  0
SECTION
  2
HEADER
  9
$ACADVER
  1
AC1015
  9
$ACADMAINTVER
 70
     6
  9
$DWGCODEPAGE
  3
ANSI_1252
  9
$INSBASE
 10
0.0
 20
0.0
 30
0.0
  9
$EXTMIN
 10
-85.9993254009
 20
-85.9909355733
 30
0.0
  9
$EXTMAX
 10
85.9993254009
 20
85.9909355733
 30
0.0
  9
$LIMMIN
 10
0.0
 20
0.0
  9
$LIMMAX
 10
420.0
 20
297.0
  9
$ORTHOMODE
 70
     0
  9
$REGENMODE
 70
     1
  9
$FILLMODE
 70
     1
  9
$QTEXTMODE
 70
     0
  9
$MIRRTEXT
 70
     1
  9
$LTSCALE
 40
1.0
  9
$ATTMODE
 70
     1
  9
$TEXTSIZE
 40
6.35
  9
$TRACEWID
 40
1.0
  9
$TEXTSTYLE
  7
Standard
  9
$CLAYER
  8
0
  9
$CELTYPE
  6
ByLayer
  9
$CECOLOR
 62
   256
  9
$CELTSCALE
 40
1.0
  9
$DISPSILH
 70
     0
  9
$DIMSCALE
 40
1.0
  9
$DIMASZ
 40
6.0
  9
$DIMEXO
 40
0.0
  9
$DIMDLI
 40
3.75
  9
$DIMRND
 40
0.0
  9
$DIMDLE
 40
0.0
  9
$DIMEXE
 40
1.0
  9
$DIMTP
 40
0.0
  9
$DIMTM
 40
0.0
  9
$DIMTXT
 40
6.35
  9
$DIMCEN
 40
2.5
  9
$DIMTSZ
 40
0.0
  9
$DIMTOL
 70
     0
  9
$DIMLIM
 70
     0
  9
$DIMTIH
 70
     1
  9
$DIMTOH
 70
     1
  9
$DIMSE1
 70
     0
  9
$DIMSE2
 70
     0
  9
$DIMTAD
 70
     0
  9
$DIMZIN
 70
     0
  9
$DIMBLK
  1

  9
$DIMASO
 70
     1
  9
$DIMSHO
 70
     1
  9
$DIMPOST
  1

  9
$DIMAPOST
  1

  9
$DIMALT
 70
     0
  9
$DIMALTD
 70
     3
  9
$DIMALTF
 40
0.0393700787
  9
$DIMLFAC
 40
1.0
  9
$DIMTOFL
 70
     1
  9
$DIMTVP
 40
0.0
  9
$DIMTIX
 70
     0
  9
$DIMSOXD
 70
     0
  9
$DIMSAH
 70
     0
  9
$DIMBLK1
  1

  9
$DIMBLK2
  1

  9
$DIMSTYLE
  2
ISO-25
  9
$DIMCLRD
 70
     0
  9
$DIMCLRE
 70
     0
  9
$DIMCLRT
 70
     0
  9
$DIMTFAC
 40
1.0
  9
$DIMGAP
 40
1.524
  9
$DIMJUST
 70
     0
  9
$DIMSD1
 70
     0
  9
$DIMSD2
 70
     0
  9
$DIMTOLJ
 70
     0
  9
$DIMTZIN
 70
     0
  9
$DIMALTZ
 70
     0
  9
$DIMALTTZ
 70
     0
  9
$DIMUPT
 70
     0
  9
$DIMDEC
 70
     3
  9
$DIMTDEC
 70
     2
  9
$DIMALTU
 70
     2
  9
$DIMALTTD
 70
     3
  9
$DIMTXSTY
  7
Standard
  9
$DIMAUNIT
 70
     0
  9
$DIMADEC
 70
     3
  9
$DIMALTRND
 40
0.0
  9
$DIMAZIN
 70
     0
  9
$DIMDSEP
 70
    44
  9
$DIMATFIT
 70
     3
  9
$DIMFRAC
 70
     0
  9
$DIMLDRBLK
  1

  9
$DIMLUNIT
 70
     2
  9
$DIMLWD
 70
    -2
  9
$DIMLWE
 70
    -2
  9
$DIMTMOVE
 70
     0
  9
$LUNITS
 70
     2
  9
$LUPREC
 70
     3
  9
$SKETCHINC
 40
1.0
  9
$FILLETRAD
 40
0.0
  9
$AUNITS
 70
     0
  9
$AUPREC
 70
     3
  9
$MENU
  1
.
  9
$ELEVATION
 40
0.0
  9
$PELEVATION
 40
0.0
  9
$THICKNESS
 40
0.0
  9
$LIMCHECK
 70
     0
  9
$CHAMFERA
 40
0.0
  9
$CHAMFERB
 40
0.0
  9
$CHAMFERC
 40
0.0
  9
$CHAMFERD
 40
0.0
  9
$SKPOLY
 70
     0
  9
$TDCREATE
 40
2461020.68132125
  9
$TDUCREATE
 40
2461020.639654584
  9
$TDUPDATE
 40
2461020.681359341
  9
$TDUUPDATE
 40
2461020.639692674
  9
$TDINDWG
 40
0.0000000116
  9
$TDUSRTIMER
 40
0.0000000116
  9
$USRTIMER
 70
     1
  9
$ANGBASE
 50
0.0
  9
$ANGDIR
 70
     0
  9
$PDMODE
 70
     0
  9
$PDSIZE
 40
-1.0
  9
$PLINEWID
 40
0.0
  9
$SPLFRAME
 70
     0
  9
$SPLINETYPE
 70
     6
  9
$SPLINESEGS
 70
     8
  9
$HANDSEED
  5
5B8
  9
$SURFTAB1
 70
     6
  9
$SURFTAB2
 70
     6
  9
$SURFTYPE
 70
     6
  9
$SURFU
 70
     6
  9
$SURFV
 70
     6
  9
$UCSBASE
  2

  9
$UCSNAME
  2

  9
$UCSORG
 10
0.0
 20
0.0
 30
0.0
  9
$UCSXDIR
 10
1.0
 20
0.0
 30
0.0
  9
$UCSYDIR
 10
0.0
 20
1.0
 30
0.0
  9
$UCSORTHOREF
  2

  9
$UCSORTHOVIEW
 70
     0
  9
$UCSORGTOP
 10
0.0
 20
0.0
 30
0.0
  9
$UCSORGBOTTOM
 10
0.0
 20
0.0
 30
0.0
  9
$UCSORGLEFT
 10
0.0
 20
0.0
 30
0.0
  9
$UCSORGRIGHT
 10
0.0
 20
0.0
 30
0.0
  9
$UCSORGFRONT
 10
0.0
 20
0.0
 30
0.0
  9
$UCSORGBACK
 10
0.0
 20
0.0
 30
0.0
  9
$PUCSBASE
  2

  9
$PUCSNAME
  2

  9
$PUCSORG
 10
0.0
 20
0.0
 30
0.0
  9
$PUCSXDIR
 10
1.0
 20
0.0
 30
0.0
  9
$PUCSYDIR
 10
0.0
 20
1.0
 30
0.0
  9
$PUCSORTHOREF
  2

  9
$PUCSORTHOVIEW
 70
     0
  9
$PUCSORGTOP
 10
0.0
 20
0.0
 30
0.0
  9
$PUCSORGBOTTOM
 10
0.0
 20
0.0
 30
0.0
  9
$PUCSORGLEFT
 10
0.0
 20
0.0
 30
0.0
  9
$PUCSORGRIGHT
 10
0.0
 20
0.0
 30
0.0
  9
$PUCSORGFRONT
 10
0.0
 20
0.0
 30
0.0
  9
$PUCSORGBACK
 10
0.0
 20
0.0
 30
0.0
  9
$USERI1
 70
     0
  9
$USERI2
 70
     0
  9
$USERI3
 70
     0
  9
$USERI4
 70
     0
  9
$USERI5
 70
     0
  9
$USERR1
 40
0.0
  9
$USERR2
 40
0.0
  9
$USERR3
 40
0.0
  9
$USERR4
 40
0.0
  9
$USERR5
 40
0.0
  9
$WORLDVIEW
 70
     1
  9
$SHADEDGE
 70
     3
  9
$SHADEDIF
 70
    70
  9
$TILEMODE
 70
     1
  9
$MAXACTVP
 70
    64
  9
$PINSBASE
 10
0.0
 20
0.0
 30
0.0
  9
$PLIMCHECK
 70
     0
  9
$PEXTMIN
 10
1.0000000000E+20
 20
1.0000000000E+20
 30
1.0000000000E+20
  9
$PEXTMAX
 10
-1.0000000000E+20
 20
-1.0000000000E+20
 30
-1.0000000000E+20
  9
$PLIMMIN
 10
0.0
 20
0.0
  9
$PLIMMAX
 10
420.0
 20
297.0
  9
$UNITMODE
 70
     0
  9
$VISRETAIN
 70
     1
  9
$PLINEGEN
 70
     0
  9
$PSLTSCALE
 70
     1
  9
$TREEDEPTH
 70
  3020
  9
$CMLSTYLE
  2
Standard
  9
$CMLJUST
 70
     0
  9
$CMLSCALE
 40
20.0
  9
$PROXYGRAPHICS
 70
     1
  9
$MEASUREMENT
 70
     1
  9
$CELWEIGHT
370
    -1
  9
$ENDCAPS
280
     0
  9
$JOINSTYLE
280
     0
  9
$LWDISPLAY
290
     1
  9
$INSUNITS
 70
     4
  9
$HYPERLINKBASE
  1

  9
$STYLESHEET
  1

  9
$XEDIT
290
     1
  9
$CEPSNTYPE
380
     0
  9
$PSTYLEMODE
290
     1
  9
$FINGERPRINTGUID
  2
{1cee8332-6f2a-40e6-bdc7-a72ada070b5b}
  9
$VERSIONGUID
  2
{FAEB1C32-E019-11D5-929B-00C0DF256EC4}
  9
$EXTNAMES
290
     1
  9
$PSVPSCALE
 40
0.0
  9
$OLESTARTUP
290
     0
  0
ENDSEC
  0
SECTION
  2
CLASSES
  0
CLASS
  1
ACDBDICTIONARYWDFLT
  2
AcDbDictionaryWithDefault
  3
ObjectDBX Classes
 90
        0
280
     0
281
     0
  0
CLASS
  1
VISUALSTYLE
  2
AcDbVisualStyle
  3
ObjectDBX Classes
 90
     4095
280
     0
281
     0
  0
CLASS
  1
MATERIAL
  2
AcDbMaterial
  3
ObjectDBX Classes
 90
     1153
280
     0
281
     0
  0
CLASS
  1
SCALE
  2
AcDbScale
  3
ObjectDBX Classes
 90
     1153
280
     0
281
     0
  0
CLASS
  1
TABLESTYLE
  2
AcDbTableStyle
  3
ObjectDBX Classes
 90
     4095
280
     0
281
     0
  0
CLASS
  1
MLEADERSTYLE
  2
AcDbMLeaderStyle
  3
ACDB_MLEADERSTYLE_CLASS
 90
     4095
280
     0
281
     0
  0
CLASS
  1
SUN
  2
AcDbSun
  3
SCENEOE
 90
     1153
280
     0
281
     0
  0
CLASS
  1
ACDBPLACEHOLDER
  2
AcDbPlaceHolder
  3
ObjectDBX Classes
 90
        0
280
     0
281
     0
  0
CLASS
  1
LAYOUT
  2
AcDbLayout
  3
ObjectDBX Classes
 90
        0
280
     0
281
     0
  0
ENDSEC
  0
SECTION
  2
TABLES
  0
TABLE
  2
VPORT
  5
8
330
0
100
AcDbSymbolTable
 70
     1
  0
VPORT
  5
29
330
8
100
AcDbSymbolTableRecord
100
AcDbViewportTableRecord
  2
*Active
 70
     0
 10
0.0
 20
0.0
 11
1.0
 21
1.0
 12
0.0
 22
0.0
 13
0.0
 23
0.0
 14
10.0
 24
10.0
 15
10.0
 25
10.0
 16
0.0
 26
0.0
 36
1.0
 17
0.0
 27
0.0
 37
0.0
 40
175.4215085696
 41
1.0000975664
 42
50.0
 43
0.0
 44
0.0
 50
0.0
 51
0.0
 71
     0
 72
   100
 73
     1
 74
     3
 75
     0
 76
     0
 77
     0
 78
     0
281
     0
 65
     1
110
0.0
120
0.0
130
0.0
111
1.0
121
0.0
131
0.0
112
0.0
122
1.0
132
0.0
 79
     0
146
0.0
  0
ENDTAB
  0
TABLE
  2
LTYPE
  5
5
330
0
100
AcDbSymbolTable
 70
     6
  0
LTYPE
  5
14
330
5
100
AcDbSymbolTableRecord
100
AcDbLinetypeTableRecord
  2
ByBlock
 70
     0
  3

 72
    65
 73
     0
 40
0.0
  0
LTYPE
  5
15
330
5
100
AcDbSymbolTableRecord
100
AcDbLinetypeTableRecord
  2
ByLayer
 70
     0
  3

 72
    65
 73
     0
 40
0.0
  0
LTYPE
  5
16
330
5
100
AcDbSymbolTableRecord
100
AcDbLinetypeTableRecord
  2
Continuous
 70
     0
  3
Solid line
 72
    65
 73
     0
 40
0.0
  0
LTYPE
  5
5E
330
5
100
AcDbSymbolTableRecord
100
AcDbLinetypeTableRecord
  2
HIDDEN
 70
     0
  3
Hidden __ __ __ __ __ __ __ __ __ __ __ __ __ __
 72
    65
 73
     2
 40
1.905
 49
1.27
 74
     0
 49
-0.635
 74
     0
  0
LTYPE
  5
5F
330
5
100
AcDbSymbolTableRecord
100
AcDbLinetypeTableRecord
  2
PHANTOM
 70
     0
  3
Phantom ______  __  __  ______  __  __  ______
 72
    65
 73
     6
 40
12.7
 49
6.35
 74
     0
 49
-1.27
 74
     0
 49
1.27
 74
     0
 49
-1.27
 74
     0
 49
1.27
 74
     0
 49
-1.27
 74
     0
  0
LTYPE
  5
60
330
5
100
AcDbSymbolTableRecord
100
AcDbLinetypeTableRecord
  2
CENTER
 70
     0
  3
Center ____ _ ____ _ ____ _ ____ _ ____ _ ____
 72
    65
 73
     4
 40
10.16
 49
6.35
 74
     0
 49
-1.27
 74
     0
 49
1.27
 74
     0
 49
-1.27
 74
     0
  0
LTYPE
  5
61
330
5
100
AcDbSymbolTableRecord
100
AcDbLinetypeTableRecord
  2
CENTERX2
 70
     0
  3
Center (2x) ________  __  ________  __  _____
 72
    65
 73
     4
 40
20.32
 49
12.7
 74
     0
 49
-2.54
 74
     0
 49
2.54
 74
     0
 49
-2.54
 74
     0
  0
LTYPE
  5
62
330
5
100
AcDbSymbolTableRecord
100
AcDbLinetypeTableRecord
  2
DOT2
 70
     0
  3
Dot (.5x) ........................................
 72
    65
 73
     2
 40
0.635
 49
0.0
 74
     0
 49
-0.635
 74
     0
  0
ENDTAB
  0
TABLE
  2
LAYER
  5
2
330
0
100
AcDbSymbolTable
 70
     1
  0
LAYER
  5
10
330
2
100
AcDbSymbolTableRecord
100
AcDbLayerTableRecord
  2
0
 70
     0
 62
     7
  6
Continuous
370
    -3
390
F
  0
ENDTAB
  0
TABLE
  2
STYLE
  5
3
330
0
100
AcDbSymbolTable
 70
     2
  0
STYLE
  5
11
330
3
100
AcDbSymbolTableRecord
100
AcDbTextStyleTableRecord
  2
Standard
 70
     0
 40
0.0
 41
1.0
 50
0.0
 71
     0
 42
6.35
  3
txt
  4

  0
STYLE
  5
5B4
330
3
100
AcDbSymbolTableRecord
100
AcDbTextStyleTableRecord
  2
SLDTEXTSTYLE0
 70
     0
 40
0.0
 41
0.7
 50
0.0
 71
     0
 42
6.35
  3
TXT
  4

  0
ENDTAB
  0
TABLE
  2
VIEW
  5
6
330
0
100
AcDbSymbolTable
 70
     0
  0
ENDTAB
  0
TABLE
  2
UCS
  5
7
330
0
100
AcDbSymbolTable
 70
     0
  0
ENDTAB
  0
TABLE
  2
APPID
  5
9
330
0
100
AcDbSymbolTable
 70
     1
  0
APPID
  5
12
330
9
100
AcDbSymbolTableRecord
100
AcDbRegAppTableRecord
  2
ACAD
 70
     0
  0
ENDTAB
  0
TABLE
  2
DIMSTYLE
  5
A
330
0
100
AcDbSymbolTable
 70
     1
100
AcDbDimStyleTable
  0
DIMSTYLE
105
27
330
A
100
AcDbSymbolTableRecord
100
AcDbDimStyleTableRecord
  2
ISO-25
 70
     0
 41
2.5
 42
0.625
 43
3.75
 44
1.25
 73
     0
 74
     0
 77
     1
 78
     8
140
2.5
141
2.5
143
0.0393700787
147
0.625
171
     3
172
     1
178
     0
271
     2
272
     2
274
     3
278
    44
283
     0
284
     8
340
11
  0
ENDTAB
  0
TABLE
  2
BLOCK_RECORD
  5
1
330
0
100
AcDbSymbolTable
 70
     1
  0
BLOCK_RECORD
  5
1F
330
1
100
AcDbSymbolTableRecord
100
AcDbBlockTableRecord
  2
*Model_Space
340
22
  0
BLOCK_RECORD
  5
1B
330
1
100
AcDbSymbolTableRecord
100
AcDbBlockTableRecord
  2
*Paper_Space
340
1E
  0
BLOCK_RECORD
  5
23
330
1
100
AcDbSymbolTableRecord
100
AcDbBlockTableRecord
  2
*Paper_Space0
340
26
  0
ENDTAB
  0
ENDSEC
  0
SECTION
  2
BLOCKS
  0
BLOCK
  5
20
330
1F
100
AcDbEntity
  8
0
100
AcDbBlockBegin
  2
*Model_Space
 70
     0
 10
0.0
 20
0.0
 30
0.0
  3
*Model_Space
  1

  0
ENDBLK
  5
21
330
1F
100
AcDbEntity
  8
0
100
AcDbBlockEnd
  0
BLOCK
  5
1C
330
1B
100
AcDbEntity
 67
     1
  8
0
100
AcDbBlockBegin
  2
*Paper_Space
 70
     0
 10
0.0
 20
0.0
 30
0.0
  3
*Paper_Space
  1

  0
ENDBLK
  5
1D
330
1B
100
AcDbEntity
 67
     1
  8
0
100
AcDbBlockEnd
  0
BLOCK
  5
24
330
23
100
AcDbEntity
  8
0
100
AcDbBlockBegin
  2
*Paper_Space0
 70
     0
 10
0.0
 20
0.0
 30
0.0
  3
*Paper_Space0
  1

  0
ENDBLK
  5
25
330
23
100
AcDbEntity
  8
0
100
AcDbBlockEnd
  0
ENDSEC
  0
SECTION
  2
ENTITIES
  0
CIRCLE
  5
30B
330
1F
100
AcDbEntity
  8
0
  6
Continuous
 62
     7
370
    25
100
AcDbCircle
 10
0.0
 20
0.0
 30
0.0
 40
5.0
  0
LINE
  5
30C
330
1F
100
AcDbEntity
  8
0
  6
Continuous
 62
     7
370
    25
100
AcDbLine
 10
-85.9993254009
 20
0.3406326202
 30
0.0
 11
-85.9993254009
 21
-0.3406326202
 31
0.0
  0
LINE
  5
30D
330
1F
100
AcDbEntity
  8
0
  6
Continuous
 62
     7
370
    25
100
AcDbLine
 10
-83.7262414535
 20
1.952304553
 30
0.0
 11
-83.7412020466
 21
1.1428389135
 31
0.0
  0
LINE
  5
30E
330
1F
100
AcDbEntity
  8
0
  6
Continuous
 62
     7
370
    25
100
AcDbLine
 10
-85.9280061479
 20
3.5182040086
 30
0.0
 11
-85.95317992
 21
2.8374040314
 31
0.0
  0
LINE
  5
30F
330
1F
100
AcDbEntity
  8
0
  6
Continuous
 62
     7
370
    25
100
AcDbLine
 10
-83.5969208857
 20
5.0447814064
 30
0.0
 11
-83.6417822307
 21
4.2364213995
 31
0.0
  0
LINE
  5
310
330
1F
100
AcDbEntity
  8
0
  6
Continuous
 62
     7
370
    25
100
AcDbLine
 10
-85.7393195744
 20
6.6909699536
 30
0.0
 11
-85.7896327343
 21
6.0115651304
 31
0.0
  0
LINE
  5
311
330
1F
100
AcDbEntity
  8
0
  6
Continuous
 62
     7
370
    25
100
AcDbLine
 10
-83.3534169794
 20
8.1303676951
 30
0.0
 11
-83.4281178011
 21
7.3242174435
 31
0.0
  0
LINE
  5
312
330
1F
100
AcDbEntity
  8
0
  6
Continuous
 62
     7
370
    25
100
AcDbLine
 10
-85.4335234036
 20
9.8545968384
 30
0.0
 11
-85.5089072295
 21
9.1775151546
 31
0.0
  0
LINE
  5
313
330
1F
100
AcDbEntity
  8
0
  6
Continuous
 62
     7
370
    25
100
AcDbLine
 10
-82.9960623318
 20
11.2048488796
 30
0.0
 11
-83.1005005979
 21
10.4020094875
 31
0.0
  0
LINE
  5
314
330
1F
100
AcDbEntity
  8
0
  6
Continuous
 62
     7
370
    25
100
AcDbLine
 10
-85.0110353163
 20
13.0047635293
 30
0.0
 11
-85.111386843
 21
12.330929797
 31
0.0
  0
LINE
  5
315
330
1F
100
AcDbEntity
  8
0
  6
Continuous
 62
     7
370
    25
100
AcDbLine
 10
-82.5253450463
 20
14.2640255882
 30
0.0
 11
-82.6593781067
 21
13.4655936377
 31
0.0
  0
LINE
  5
316
330
1F
100
AcDbEntity
  8
0
  6
Continuous
 62
     7
370
    25
100
AcDbLine
 10
-84.4724323804
 20
16.1371672775
 30
0.0
 11
-84.5976145398
 21
15.4675018725
 31
0.0
  0
LINE
  5
317
330
1F
100
AcDbEntity
  8
0
  6
Continuous
 62
     7
370
    25
100
AcDbLine
 10
-81.9419080662
 20
17.3037193537
 30
0.0
 11
-82.1053528478
 21
16.5107854067
 31
0.0
  0
LINE
  5
318
330
1F
100
AcDbEntity
  8
0
  6
Continuous
 62
     7
370
    25
100
AcDbLine
 10
-83.8184502627
 20
19.2475295963
 30
0.0
 11
-83.968292071
 21
18.5829472009
 31
0.0
  0
LINE
  5
319
330
1F
100
AcDbEntity
  8
0
  6
Continuous
 62
     7
370
    25
100
AcDbLine
 10
-81.2465482961
 20
20.3197783199
 30
0.0
 11
-81.439181553
 21
19.5334254289
 31
0.0
  0
LINE
  5
31A
330
1F
100
AcDbEntity
  8
0
  6
Continuous
 62
     7
370
    25
100
AcDbLine
 10
-83.0499822241
 20
22.3316021049
 30
0.0
 11
-83.2242790155
 21
21.6730104588
 31
0.0
  0
LINE
  5
31B
330
1F
100
AcDbEntity
  8
0
  6
Continuous
 62
     7
370
    25
100
AcDbLine
 10
-80.4402155138
 20
23.3080829132
 30
0.0
 11
-80.6617741322
 21
22.5293851415
 31
0.0
  0
LINE
  5
31C
330
1F
100
AcDbEntity
  8
0
  6
Continuous
 62
     7
370
    25
100
AcDbLine
 10
-82.1680778996
 20
25.3851723311
 30
0.0
 11
-82.3665916056
 21
24.7334709913
 31
0.0
  0
LINE
  5
31D
330
1F
100
AcDbEntity
  8
0
  6
Continuous
 62
     7
370
    25
100
AcDbLine
 10
-79.524011073
 20
26.2645514688
 30
0.0
 11
-79.7741924304
 21
25.494572424
 31
0.0
  0
LINE
  5
31E
330
1F
100
AcDbEntity
  8
0
  6
Continuous
 62
     7
370
    25
100
AcDbLine
 10
-81.1739418644
 20
28.4040694655
 30
0.0
 11
-81.3964013391
 21
27.7601485776
 31
0.0
  0
LINE
  5
31F
330
1F
100
AcDbEntity
  8
0
  6
Continuous
 62
     7
370
    25
100
AcDbLine
 10
-78.4991863987
 20
29.1851458063
 30
0.0
 11
-78.7776487774
 21
28.4249371872
 31
0.0
  0
LINE
  5
320
330
1F
100
AcDbEntity
  8
0
  6
Continuous
 62
     7
370
    25
100
AcDbLine
 10
-80.0689319886
 20
31.3841700576
 30
0.0
 11
-80.3150333792
 21
30.7489091401
 31
0.0
  0
LINE
  5
321
330
1F
100
AcDbEntity
  8
0
  6
Continuous
 62
     7
370
    25
100
AcDbLine
 10
-77.3671412782
 20
32.0658767453
 30
0.0
 11
-77.6735043321
 21
31.3164769054
 31
0.0
  0
LINE
  5
322
330
1F
100
AcDbEntity
  8
0
  6
Continuous
 62
     7
370
    25
100
AcDbLine
 10
-78.8545575829
 20
34.3214036484
 30
0.0
 11
-79.1239647445
 21
33.6956703913
 31
0.0
  0
LINE
  5
323
330
1F
100
AcDbEntity
  8
0
  6
Continuous
 62
     7
370
    25
100
AcDbLine
 10
-76.1294219488
 20
34.9028095537
 30
0.0
 11
-76.463267223
 21
34.165242083
 31
0.0
  0
LINE
  5
324
330
1F
100
AcDbEntity
  8
0
  6
Continuous
 62
     7
370
    25
100
AcDbLine
 10
-77.5324773367
 20
37.2117583303
 30
0.0
 11
-77.8248222914
 21
36.5964074099
 31
0.0
  0
LINE
  5
325
330
1F
100
AcDbEntity
  8
0
  6
Continuous
 62
     7
370
    25
100
AcDbLine
 10
-74.7877189864
 20
37.6920693226
 30
0.0
 11
-75.1485904882
 21
36.9673416495
 31
0.0
  0
LINE
  5
326
330
1F
100
AcDbEntity
  8
0
  6
Continuous
 62
     7
370
    25
100
AcDbLine
 10
-76.1044970525
 20
40.0512862263
 30
0.0
 11
-76.4193804923
 21
39.447158138
 31
0.0
  0
LINE
  5
327
330
1F
100
AcDbEntity
  8
0
  6
Continuous
 62
     7
370
    25
100
AcDbLine
 10
-73.3438649957
 20
40.4298462586
 30
0.0
 11
-73.7312698182
 21
39.718948274
 31
0.0
  0
LINE
  5
328
330
1F
100
AcDbEntity
  8
0
  6
Continuous
 62
     7
370
    25
100
AcDbLine
 10
-74.5725671797
 20
42.836108883
 30
0.0
 11
-74.9095590117
 21
42.2440287931
 31
0.0
  0
LINE
  5
329
330
1F
100
AcDbEntity
  8
0
  6
Continuous
 62
     7
370
    25
100
AcDbLine
 10
-71.7998321077
 20
43.1124008877
 30
0.0
 11
-72.2132411025
 21
42.4163035928
 31
0.0
  0
LINE
  5
32A
330
1F
100
AcDbEntity
  8
0
  6
Continuous
 62
     7
370
    25
100
AcDbLine
 10
-72.9387801501
 20
45.5624225675
 30
0.0
 11
-73.2974200841
 21
44.9831991861
 31
0.0
  0
LINE
  5
32B
330
1F
100
AcDbEntity
  8
0
  6
Continuous
 62
     7
370
    25
100
AcDbLine
 10
-70.1577292856
 20
45.7360691631
 30
0.0
 11
-70.5965777856
 21
45.055723343
 31
0.0
  0
LINE
  5
32C
330
1F
100
AcDbEntity
  8
0
  6
Continuous
 62
     7
370
    25
100
AcDbLine
 10
-71.2053675203
 20
48.2265034633
 30
0.0
 11
-71.5851656972
 21
47.66092794
 31
0.0
  0
LINE
  5
32D
330
1F
100
AcDbEntity
  8
0
  6
Continuous
 62
     7
370
    25
100
AcDbLine
 10
-68.4197994442
 20
48.2972674694
 30
0.0
 11
-68.8834880353
 21
47.6336023947
 31
0.0
  0
LINE
  5
32E
330
1F
100
AcDbEntity
  8
0
  6
Continuous
 62
     7
370
    25
100
AcDbLine
 10
-69.3746969236
 20
50.8247127563
 30
0.0
 11
-69.7751345847
 21
50.2735575992
 31
0.0
  0
LINE
  5
32F
330
1F
100
AcDbEntity
  8
0
  6
Continuous
 62
     7
370
    25
100
AcDbLine
 10
-66.5884163868
 20
50.7924975178
 30
0.0
 11
-67.076311726
 21
50.1464196751
 31
0.0
  0
LINE
  5
330
330
1F
100
AcDbEntity
  8
0
  6
Continuous
 62
     7
370
    25
100
AcDbLine
 10
-67.4492688356
 20
53.3535016053
 30
0.0
 11
-67.8697990314
 21
52.817519626
 31
0.0
  0
LINE
  5
331
330
1F
100
AcDbEntity
  8
0
  6
Continuous
 62
     7
370
    25
100
AcDbLine
 10
-64.6660815622
 20
53.2183511243
 30
0.0
 11
-65.1775172433
 21
52.5907429782
 31
0.0
  0
LINE
  5
332
330
1F
100
AcDbEntity
  8
0
  6
Continuous
 62
     7
370
    25
100
AcDbLine
 10
-65.4317131596
 20
55.8094159887
 30
0.0
 11
-65.8717614964
 21
55.2893392741
 31
0.0
  0
LINE
  5
333
330
1F
100
AcDbEntity
  8
0
  6
Continuous
 62
     7
370
    25
100
AcDbLine
 10
-62.6554206487
 20
55.5715148645
 30
0.0
 11
-63.189698112
 21
54.9632336523
 31
0.0
  0
LINE
  5
334
330
1F
100
AcDbEntity
  8
0
  6
Continuous
 62
     7
370
    25
100
AcDbLine
 10
-63.324785634
 20
58.189101423
 30
0.0
 11
-63.7837510586
 21
57.6856403353
 31
0.0
  0
LINE
  5
335
330
1F
100
AcDbEntity
  8
0
  6
Continuous
 62
     7
370
    25
100
AcDbLine
 10
-60.5591799671
 20
57.8487745999
 30
0.0
 11
-61.1155694538
 21
57.2606511606
 31
0.0
  0
LINE
  5
336
330
1F
100
AcDbEntity
  8
0
  6
Continuous
 62
     7
370
    25
100
AcDbLine
 10
-61.1313640682
 20
60.489307544
 30
0.0
 11
-61.6086196891
 21
60.0031497507
 31
0.0
  0
LINE
  5
337
330
1F
100
AcDbEntity
  8
0
  6
Continuous
 62
     7
370
    25
100
AcDbLine
 10
-58.3802227301
 20
60.0470198677
 30
0.0
 11
-58.9579642792
 21
59.479857507
 31
0.0
  0
LINE
  5
338
330
1F
100
AcDbEntity
  8
0
  6
Continuous
 62
     7
370
    25
100
AcDbLine
 10
-58.8544444124
 20
62.706892547
 30
0.0
 11
-59.3493383558
 21
62.238702081
 31
0.0
  0
LINE
  5
339
330
1F
100
AcDbEntity
  8
0
  6
Continuous
 62
     7
370
    25
100
AcDbLine
 10
-56.1215251312
 20
62.163248129
 30
0.0
 11
-56.7198296172
 21
61.6178215227
 31
0.0
  0
LINE
  5
33A
330
1F
100
AcDbEntity
  8
0
  6
Continuous
 62
     7
370
    25
100
AcDbLine
 10
-56.4971366649
 20
64.8388274775
 30
0.0
 11
-57.0089929653
 21
64.3892438307
 31
0.0
  0
LINE
  5
33B
330
1F
100
AcDbEntity
  8
0
  6
Continuous
 62
     7
370
    25
100
AcDbLine
 10
-53.7861722795
 20
64.1945688709
 30
0.0
 11
-54.4042224905
 21
63.6716230059
 31
0.0
  0
LINE
  5
33C
330
1F
100
AcDbEntity
  8
0
  6
Continuous
 62
     7
370
    25
100
AcDbLine
 10
-54.0626606246
 20
66.8822003689
 30
0.0
 11
-54.5907801477
 21
66.4518376184
 31
0.0
  0
LINE
  5
33D
330
1F
100
AcDbEntity
  8
0
  6
Continuous
 62
     7
370
    25
100
AcDbLine
 10
-51.3773539863
 20
66.1382075533
 30
0.0
 11
-52.01430574
 21
65.6384567109
 31
0.0
  0
LINE
  5
33E
330
1F
100
AcDbEntity
  8
0
  6
Continuous
 62
     7
370
    25
100
AcDbLine
 10
-51.5543414928
 20
68.8342202196
 30
0.0
 11
-52.0980028909
 21
68.4236661892
 31
0.0
  0
LINE
  5
33F
330
1F
100
AcDbEntity
  8
0
  6
Continuous
 62
     7
370
    25
100
AcDbLine
 10
-48.8983604075
 20
67.9915093997
 30
0.0
 11
-49.5533437044
 21
67.5156361795
 31
0.0
  0
LINE
  5
340
330
1F
100
AcDbEntity
  8
0
  6
Continuous
 62
     7
370
    25
100
AcDbLine
 10
-48.9756053318
 20
70.6922208053
 30
0.0
 11
-49.5340660289
 21
70.3020362624
 31
0.0
  0
LINE
  5
341
330
1F
100
AcDbEntity
  8
0
  6
Continuous
 62
     7
370
    25
100
AcDbLine
 10
-46.3525775502
 20
69.7519430228
 30
0.0
 11
-47.0246977619
 21
69.3005974102
 31
0.0
  0
LINE
  5
342
330
1F
100
AcDbEntity
  8
0
  6
Continuous
 62
     7
370
    25
100
AcDbLine
 10
-46.329974385
 20
72.4536643206
 30
0.0
 11
-46.9024715909
 21
72.0843822104
 31
0.0
  0
LINE
  5
343
330
1F
100
AcDbEntity
  8
0
  6
Continuous
 62
     7
370
    25
100
AcDbLine
 10
-43.7434826475
 20
71.4171038818
 30
0.0
 11
-44.4318217386
 21
70.9909023607
 31
0.0
  0
LINE
  5
344
330
1F
100
AcDbEntity
  8
0
  6
Continuous
 62
     7
370
    25
100
AcDbLine
 10
-43.621062266
 20
74.1161448457
 30
0.0
 11
-44.2068140185
 21
73.7682695631
 31
0.0
  0
LINE
  5
345
330
1F
100
AcDbEntity
  8
0
  6
Continuous
 62
     7
370
    25
100
AcDbLine
 10
-41.0746394093
 20
72.9847175674
 30
0.0
 11
-41.7782571914
 21
72.5842422778
 31
0.0
  0
LINE
  5
346
330
1F
100
AcDbEntity
  8
0
  6
Continuous
 62
     7
370
    25
100
AcDbLine
 10
-40.852569023
 20
75.677391632
 30
0.0
 11
-41.4507752555
 21
75.3513983328
 31
0.0
  0
LINE
  5
347
330
1F
100
AcDbEntity
  8
0
  6
Continuous
 62
     7
370
    25
100
AcDbLine
 10
-38.3496931543
 20
74.4526429079
 30
0.0
 11
-39.0676285703
 21
74.0784408509
 31
0.0
  0
LINE
  5
348
330
1F
100
AcDbEntity
  8
0
  6
Continuous
 62
     7
370
    25
100
AcDbLine
 10
-38.0282760847
 20
77.1352722043
 30
0.0
 11
-38.6381197195
 21
76.8316061562
 31
0.0
  0
LINE
  5
349
330
1F
100
AcDbEntity
  8
0
  6
Continuous
 62
     7
370
    25
100
AcDbLine
 10
-35.5723658314
 20
75.8188748938
 30
0.0
 11
-36.3036382677
 21
75.4714571843
 31
0.0
  0
LINE
  5
34A
330
1F
100
AcDbEntity
  8
0
  6
Continuous
 62
     7
370
    25
100
AcDbLine
 10
-35.1520410955
 20
78.487795273
 30
0.0
 11
-35.7726891596
 21
78.2068712473
 31
0.0
  0
LINE
  5
34B
330
1F
100
AcDbEntity
  8
0
  6
Continuous
 62
     7
370
    25
100
AcDbLine
 10
-32.7464509357
 20
77.0815474165
 30
0.0
 11
-33.4900615622
 21
76.7613885854
 31
0.0
  0
LINE
  5
34C
330
1F
100
AcDbEntity
  8
0
  6
Continuous
 62
     7
370
    25
100
AcDbLine
 10
-32.2277926465
 20
79.7331134544
 30
0.0
 11
-32.8583974093
 21
79.4753151594
 31
0.0
  0
LINE
  5
34D
330
1F
100
AcDbEntity
  8
0
  6
Continuous
 62
     7
370
    25
100
AcDbLine
 10
-29.8758083269
 20
78.2389358172
 30
0.0
 11
-30.6307414609
 21
77.946473163
 31
0.0
  0
LINE
  5
34E
330
1F
100
AcDbEntity
  8
0
  6
Continuous
 62
     7
370
    25
100
AcDbLine
 10
-29.2595249093
 20
80.8695257936
 30
0.0
 11
-29.8992250405
 21
80.6352053509
 31
0.0
  0
LINE
  5
34F
330
1F
100
AcDbEntity
  8
0
  6
Continuous
 62
     7
370
    25
100
AcDbLine
 10
-26.9643589576
 20
79.2894592428
 30
0.0
 11
-27.7295834512
 21
79.0250922342
 31
0.0
  0
LINE
  5
350
330
1F
100
AcDbEntity
  8
0
  6
Continuous
 62
     7
370
    25
100
AcDbLine
 10
-26.2512921806
 20
81.895480088
 30
0.0
 11
-26.8992139268
 21
81.6849575511
 31
0.0
  0
LINE
  5
351
330
1F
100
AcDbEntity
  8
0
  6
Continuous
 62
     7
370
    25
100
AcDbLine
 10
-24.0160795173
 20
80.2316828043
 30
0.0
 11
-24.790550166
 21
79.995772535
 31
0.0
  0
LINE
  5
352
330
1F
100
AcDbEntity
  8
0
  6
Continuous
 62
     7
370
    25
100
AcDbLine
 10
-23.2072033444
 20
82.8095750076
 30
0.0
 11
-23.8624617224
 21
82.6231379248
 31
0.0
  0
LINE
  5
353
330
1F
100
AcDbEntity
  8
0
  6
Continuous
 62
     7
370
    25
100
AcDbLine
 10
-21.0349970013
 20
81.064319538
 30
0.0
 11
-21.8176559713
 21
80.8571882328
 31
0.0
  0
LINE
  5
354
330
1F
100
AcDbEntity
  8
0
  6
Continuous
 62
     7
370
    25
100
AcDbLine
 10
-20.13141626
 20
83.6105620084
 30
0.0
 11
-20.7931162656
 21
83.4484650306
 31
0.0
  0
LINE
  5
355
330
1F
100
AcDbEntity
  8
0
  6
Continuous
 62
     7
370
    25
100
AcDbLine
 10
-18.0251832095
 20
81.786232162
 30
0.0
 11
-18.8149614829
 21
81.6081627375
 31
0.0
  0
LINE
  5
356
330
1F
100
AcDbEntity
  8
0
  6
Continuous
 62
     7
370
    25
100
AcDbLine
 10
-17.0281320824
 20
84.2973470388
 30
0.0
 11
-17.6953699132
 21
84.1598115708
 31
0.0
  0
LINE
  5
357
330
1F
100
AcDbEntity
  8
0
  6
Continuous
 62
     7
370
    25
100
AcDbLine
 10
-14.9907491857
 20
82.3964346307
 30
0.0
 11
-15.7865680202
 21
82.2476703083
 31
0.0
  0
LINE
  5
358
330
1F
100
AcDbEntity
  8
0
  6
Continuous
 62
     7
370
    25
100
AcDbLine
 10
-13.9015895247
 20
84.8689920329
 30
0.0
 11
-14.5734538139
 21
84.7562059317
 31
0.0
  0
LINE
  5
359
330
1F
100
AcDbEntity
  8
0
  6
Continuous
 62
     7
370
    25
100
AcDbLine
 10
-11.9358396017
 20
82.8940934808
 30
0.0
 11
-12.7366120046
 21
82.7748374547
 31
0.0
  0
LINE
  5
35A
330
1F
100
AcDbEntity
  8
0
  6
Continuous
 62
     7
370
    25
100
AcDbLine
 10
-10.7560590679
 20
85.3247161925
 30
0.0
 11
-11.4316321298
 21
85.2368335102
 31
0.0
  0
LINE
  5
35B
330
1F
100
AcDbEntity
  8
0
  6
Continuous
 62
     7
370
    25
100
AcDbLine
 10
-8.8646270965
 20
83.2785289702
 30
0.0
 11
-9.6692593089
 21
83.1889441297
 31
0.0
  0
LINE
  5
35C
330
1F
100
AcDbEntity
  8
0
  6
Continuous
 62
     7
370
    25
100
AcDbLine
 10
-7.5958371282
 20
85.6638970531
 30
0.0
 11
-8.2741962112
 21
85.601037827
 31
0.0
  0
LINE
  5
35D
330
1F
100
AcDbEntity
  8
0
  6
Continuous
 62
     7
370
    25
100
AcDbLine
 10
-5.781306577
 20
83.5492160063
 30
0.0
 11
-6.5886995682
 21
83.4894247136
 31
0.0
  0
LINE
  5
35E
330
1F
100
AcDbEntity
  8
0
  6
Continuous
 62
     7
370
    25
100
AcDbLine
 10
-4.4252401887
 20
85.8860713345
 30
0.0
 11
-5.1054587358
 21
85.8483214227
 31
0.0
  0
LINE
  5
35F
330
1F
100
AcDbEntity
  8
0
  6
Continuous
 62
     7
370
    25
100
AcDbLine
 10
-2.6900894881
 20
83.7057848631
 30
0.0
 11
-3.4991404563
 21
83.6758687859
 31
0.0
  0
LINE
  5
360
330
1F
100
AcDbEntity
  8
0
  6
Continuous
 62
     7
370
    25
100
AcDbLine
 10
-1.2485989033
 20
85.9909355733
 30
0.0
 11
-1.929747818
 21
85.9783465377
 31
0.0
  0
LINE
  5
361
330
1F
100
AcDbEntity
  8
0
  6
Continuous
 62
     7
370
    25
100
AcDbLine
 10
0.4048019395
 20
83.7480216864
 30
0.0
 11
-0.4048019395
 21
83.7480216864
 31
0.0
  0
LINE
  5
362
330
1F
100
AcDbEntity
  8
0
  6
Continuous
 62
     7
370
    25
100
AcDbLine
 10
1.929747818
 20
85.9783465377
 30
0.0
 11
1.2485989033
 21
85.9909355733
 31
0.0
  0
LINE
  5
363
330
1F
100
AcDbEntity
  8
0
  6
Continuous
 62
     7
370
    25
100
AcDbLine
 10
3.4991404563
 20
83.6758687859
 30
0.0
 11
2.6900894881
 21
83.7057848631
 31
0.0
  0
LINE
  5
364
330
1F
100
AcDbEntity
  8
0
  6
Continuous
 62
     7
370
    25
100
AcDbLine
 10
5.1054587358
 20
85.8483214227
 30
0.0
 11
4.4252401887
 21
85.8860713345
 31
0.0
  0
LINE
  5
365
330
1F
100
AcDbEntity
  8
0
  6
Continuous
 62
     7
370
    25
100
AcDbLine
 10
6.5886995682
 20
83.4894247136
 30
0.0
 11
5.781306577
 21
83.5492160063
 31
0.0
  0
LINE
  5
366
330
1F
100
AcDbEntity
  8
0
  6
Continuous
 62
     7
370
    25
100
AcDbLine
 10
8.2741962112
 20
85.601037827
 30
0.0
 11
7.5958371282
 21
85.6638970531
 31
0.0
  0
LINE
  5
367
330
1F
100
AcDbEntity
  8
0
  6
Continuous
 62
     7
370
    25
100
AcDbLine
 10
9.6692593089
 20
83.1889441297
 30
0.0
 11
8.8646270965
 21
83.2785289702
 31
0.0
  0
LINE
  5
368
330
1F
100
AcDbEntity
  8
0
  6
Continuous
 62
     7
370
    25
100
AcDbLine
 10
11.4316321298
 20
85.2368335102
 30
0.0
 11
10.7560590679
 21
85.3247161925
 31
0.0
  0
LINE
  5
369
330
1F
100
AcDbEntity
  8
0
  6
Continuous
 62
     7
370
    25
100
AcDbLine
 10
12.7366120046
 20
82.7748374547
 30
0.0
 11
11.9358396017
 21
82.8940934808
 31
0.0
  0
LINE
  5
36A
330
1F
100
AcDbEntity
  8
0
  6
Continuous
 62
     7
370
    25
100
AcDbLine
 10
14.5734538139
 20
84.7562059317
 30
0.0
 11
13.9015895247
 21
84.8689920329
 31
0.0
  0
LINE
  5
36B
330
1F
100
AcDbEntity
  8
0
  6
Continuous
 62
     7
370
    25
100
AcDbLine
 10
15.7865680202
 20
82.2476703083
 30
0.0
 11
14.9907491857
 21
82.3964346307
 31
0.0
  0
LINE
  5
36C
330
1F
100
AcDbEntity
  8
0
  6
Continuous
 62
     7
370
    25
100
AcDbLine
 10
17.6953699132
 20
84.1598115708
 30
0.0
 11
17.0281320824
 21
84.2973470388
 31
0.0
  0
LINE
  5
36D
330
1F
100
AcDbEntity
  8
0
  6
Continuous
 62
     7
370
    25
100
AcDbLine
 10
18.8149614829
 20
81.6081627375
 30
0.0
 11
18.0251832095
 21
81.786232162
 31
0.0
  0
LINE
  5
36E
330
1F
100
AcDbEntity
  8
0
  6
Continuous
 62
     7
370
    25
100
AcDbLine
 10
20.7931162656
 20
83.4484650306
 30
0.0
 11
20.13141626
 21
83.6105620084
 31
0.0
  0
LINE
  5
36F
330
1F
100
AcDbEntity
  8
0
  6
Continuous
 62
     7
370
    25
100
AcDbLine
 10
21.8176559713
 20
80.8571882328
 30
0.0
 11
21.0349970013
 21
81.064319538
 31
0.0
  0
LINE
  5
370
330
1F
100
AcDbEntity
  8
0
  6
Continuous
 62
     7
370
    25
100
AcDbLine
 10
23.8624617224
 20
82.6231379248
 30
0.0
 11
23.2072033444
 21
82.8095750076
 31
0.0
  0
LINE
  5
371
330
1F
100
AcDbEntity
  8
0
  6
Continuous
 62
     7
370
    25
100
AcDbLine
 10
24.790550166
 20
79.995772535
 30
0.0
 11
24.0160795173
 21
80.2316828043
 31
0.0
  0
LINE
  5
372
330
1F
100
AcDbEntity
  8
0
  6
Continuous
 62
     7
370
    25
100
AcDbLine
 10
26.8992139268
 20
81.6849575511
 30
0.0
 11
26.2512921806
 21
81.895480088
 31
0.0
  0
LINE
  5
373
330
1F
100
AcDbEntity
  8
0
  6
Continuous
 62
     7
370
    25
100
AcDbLine
 10
27.7295834512
 20
79.0250922342
 30
0.0
 11
26.9643589576
 21
79.2894592428
 31
0.0
  0
LINE
  5
374
330
1F
100
AcDbEntity
  8
0
  6
Continuous
 62
     7
370
    25
100
AcDbLine
 10
29.8992250405
 20
80.6352053509
 30
0.0
 11
29.2595249093
 21
80.8695257936
 31
0.0
  0
LINE
  5
375
330
1F
100
AcDbEntity
  8
0
  6
Continuous
 62
     7
370
    25
100
AcDbLine
 10
30.6307414609
 20
77.946473163
 30
0.0
 11
29.8758083269
 21
78.2389358173
 31
0.0
  0
LINE
  5
376
330
1F
100
AcDbEntity
  8
0
  6
Continuous
 62
     7
370
    25
100
AcDbLine
 10
32.8583974093
 20
79.4753151594
 30
0.0
 11
32.2277926465
 21
79.7331134544
 31
0.0
  0
LINE
  5
377
330
1F
100
AcDbEntity
  8
0
  6
Continuous
 62
     7
370
    25
100
AcDbLine
 10
33.4900615622
 20
76.7613885854
 30
0.0
 11
32.7464509357
 21
77.0815474165
 31
0.0
  0
LINE
  5
378
330
1F
100
AcDbEntity
  8
0
  6
Continuous
 62
     7
370
    25
100
AcDbLine
 10
35.7726891596
 20
78.2068712473
 30
0.0
 11
35.1520410955
 21
78.487795273
 31
0.0
  0
LINE
  5
379
330
1F
100
AcDbEntity
  8
0
  6
Continuous
 62
     7
370
    25
100
AcDbLine
 10
36.3036382677
 20
75.4714571843
 30
0.0
 11
35.5723658314
 21
75.8188748938
 31
0.0
  0
LINE
  5
37A
330
1F
100
AcDbEntity
  8
0
  6
Continuous
 62
     7
370
    25
100
AcDbLine
 10
38.6381197195
 20
76.8316061562
 30
0.0
 11
38.0282760847
 21
77.1352722043
 31
0.0
  0
LINE
  5
37B
330
1F
100
AcDbEntity
  8
0
  6
Continuous
 62
     7
370
    25
100
AcDbLine
 10
39.0676285703
 20
74.0784408509
 30
0.0
 11
38.3496931543
 21
74.4526429079
 31
0.0
  0
LINE
  5
37C
330
1F
100
AcDbEntity
  8
0
  6
Continuous
 62
     7
370
    25
100
AcDbLine
 10
41.4507752555
 20
75.3513983328
 30
0.0
 11
40.852569023
 21
75.677391632
 31
0.0
  0
LINE
  5
37D
330
1F
100
AcDbEntity
  8
0
  6
Continuous
 62
     7
370
    25
100
AcDbLine
 10
41.7782571914
 20
72.5842422778
 30
0.0
 11
41.0746394093
 21
72.9847175674
 31
0.0
  0
LINE
  5
37E
330
1F
100
AcDbEntity
  8
0
  6
Continuous
 62
     7
370
    25
100
AcDbLine
 10
44.2068140185
 20
73.7682695631
 30
0.0
 11
43.621062266
 21
74.1161448457
 31
0.0
  0
LINE
  5
37F
330
1F
100
AcDbEntity
  8
0
  6
Continuous
 62
     7
370
    25
100
AcDbLine
 10
44.4318217386
 20
70.9909023607
 30
0.0
 11
43.7434826475
 21
71.4171038818
 31
0.0
  0
LINE
  5
380
330
1F
100
AcDbEntity
  8
0
  6
Continuous
 62
     7
370
    25
100
AcDbLine
 10
46.9024715909
 20
72.0843822105
 30
0.0
 11
46.329974385
 21
72.4536643206
 31
0.0
  0
LINE
  5
381
330
1F
100
AcDbEntity
  8
0
  6
Continuous
 62
     7
370
    25
100
AcDbLine
 10
47.0246977619
 20
69.3005974102
 30
0.0
 11
46.3525775502
 21
69.7519430228
 31
0.0
  0
LINE
  5
382
330
1F
100
AcDbEntity
  8
0
  6
Continuous
 62
     7
370
    25
100
AcDbLine
 10
49.5340660289
 20
70.3020362624
 30
0.0
 11
48.9756053318
 21
70.6922208053
 31
0.0
  0
LINE
  5
383
330
1F
100
AcDbEntity
  8
0
  6
Continuous
 62
     7
370
    25
100
AcDbLine
 10
49.5533437044
 20
67.5156361795
 30
0.0
 11
48.8983604075
 21
67.9915093997
 31
0.0
  0
LINE
  5
384
330
1F
100
AcDbEntity
  8
0
  6
Continuous
 62
     7
370
    25
100
AcDbLine
 10
52.0980028909
 20
68.4236661892
 30
0.0
 11
51.5543414928
 21
68.8342202196
 31
0.0
  0
LINE
  5
385
330
1F
100
AcDbEntity
  8
0
  6
Continuous
 62
     7
370
    25
100
AcDbLine
 10
52.01430574
 20
65.6384567109
 30
0.0
 11
51.3773539863
 21
66.1382075533
 31
0.0
  0
LINE
  5
386
330
1F
100
AcDbEntity
  8
0
  6
Continuous
 62
     7
370
    25
100
AcDbLine
 10
54.5907801477
 20
66.4518376184
 30
0.0
 11
54.0626606246
 21
66.8822003689
 31
0.0
  0
LINE
  5
387
330
1F
100
AcDbEntity
  8
0
  6
Continuous
 62
     7
370
    25
100
AcDbLine
 10
54.4042224905
 20
63.6716230059
 30
0.0
 11
53.7861722795
 21
64.1945688709
 31
0.0
  0
LINE
  5
388
330
1F
100
AcDbEntity
  8
0
  6
Continuous
 62
     7
370
    25
100
AcDbLine
 10
57.0089929653
 20
64.3892438307
 30
0.0
 11
56.4971366649
 21
64.8388274776
 31
0.0
  0
LINE
  5
389
330
1F
100
AcDbEntity
  8
0
  6
Continuous
 62
     7
370
    25
100
AcDbLine
 10
56.7198296172
 20
61.6178215227
 30
0.0
 11
56.1215251312
 21
62.163248129
 31
0.0
  0
LINE
  5
38A
330
1F
100
AcDbEntity
  8
0
  6
Continuous
 62
     7
370
    25
100
AcDbLine
 10
59.3493383558
 20
62.238702081
 30
0.0
 11
58.8544444124
 21
62.706892547
 31
0.0
  0
LINE
  5
38B
330
1F
100
AcDbEntity
  8
0
  6
Continuous
 62
     7
370
    25
100
AcDbLine
 10
58.9579642792
 20
59.479857507
 30
0.0
 11
58.3802227301
 21
60.0470198677
 31
0.0
  0
LINE
  5
38C
330
1F
100
AcDbEntity
  8
0
  6
Continuous
 62
     7
370
    25
100
AcDbLine
 10
61.6086196891
 20
60.0031497507
 30
0.0
 11
61.1313640682
 21
60.489307544
 31
0.0
  0
LINE
  5
38D
330
1F
100
AcDbEntity
  8
0
  6
Continuous
 62
     7
370
    25
100
AcDbLine
 10
61.1155694538
 20
57.2606511606
 30
0.0
 11
60.5591799671
 21
57.8487746
 31
0.0
  0
LINE
  5
38E
330
1F
100
AcDbEntity
  8
0
  6
Continuous
 62
     7
370
    25
100
AcDbLine
 10
63.7837510586
 20
57.6856403354
 30
0.0
 11
63.324785634
 21
58.189101423
 31
0.0
  0
LINE
  5
38F
330
1F
100
AcDbEntity
  8
0
  6
Continuous
 62
     7
370
    25
100
AcDbLine
 10
63.189698112
 20
54.9632336523
 30
0.0
 11
62.6554206487
 21
55.5715148645
 31
0.0
  0
LINE
  5
390
330
1F
100
AcDbEntity
  8
0
  6
Continuous
 62
     7
370
    25
100
AcDbLine
 10
65.8717614964
 20
55.2893392741
 30
0.0
 11
65.4317131596
 21
55.8094159887
 31
0.0
  0
LINE
  5
391
330
1F
100
AcDbEntity
  8
0
  6
Continuous
 62
     7
370
    25
100
AcDbLine
 10
65.1775172433
 20
52.5907429782
 30
0.0
 11
64.6660815622
 21
53.2183511243
 31
0.0
  0
LINE
  5
392
330
1F
100
AcDbEntity
  8
0
  6
Continuous
 62
     7
370
    25
100
AcDbLine
 10
67.8697990314
 20
52.817519626
 30
0.0
 11
67.4492688356
 21
53.3535016053
 31
0.0
  0
LINE
  5
393
330
1F
100
AcDbEntity
  8
0
  6
Continuous
 62
     7
370
    25
100
AcDbLine
 10
67.076311726
 20
50.1464196751
 30
0.0
 11
66.5884163868
 21
50.7924975178
 31
0.0
  0
LINE
  5
394
330
1F
100
AcDbEntity
  8
0
  6
Continuous
 62
     7
370
    25
100
AcDbLine
 10
69.7751345847
 20
50.2735575992
 30
0.0
 11
69.3746969236
 21
50.8247127563
 31
0.0
  0
LINE
  5
395
330
1F
100
AcDbEntity
  8
0
  6
Continuous
 62
     7
370
    25
100
AcDbLine
 10
68.8834880353
 20
47.6336023947
 30
0.0
 11
68.4197994442
 21
48.2972674694
 31
0.0
  0
LINE
  5
396
330
1F
100
AcDbEntity
  8
0
  6
Continuous
 62
     7
370
    25
100
AcDbLine
 10
71.5851656972
 20
47.66092794
 30
0.0
 11
71.2053675203
 21
48.2265034633
 31
0.0
  0
LINE
  5
397
330
1F
100
AcDbEntity
  8
0
  6
Continuous
 62
     7
370
    25
100
AcDbLine
 10
70.5965777856
 20
45.055723343
 30
0.0
 11
70.1577292856
 21
45.7360691631
 31
0.0
  0
LINE
  5
398
330
1F
100
AcDbEntity
  8
0
  6
Continuous
 62
     7
370
    25
100
AcDbLine
 10
73.2974200841
 20
44.9831991861
 30
0.0
 11
72.9387801501
 21
45.5624225675
 31
0.0
  0
LINE
  5
399
330
1F
100
AcDbEntity
  8
0
  6
Continuous
 62
     7
370
    25
100
AcDbLine
 10
72.2132411025
 20
42.4163035928
 30
0.0
 11
71.7998321077
 21
43.1124008877
 31
0.0
  0
LINE
  5
39A
330
1F
100
AcDbEntity
  8
0
  6
Continuous
 62
     7
370
    25
100
AcDbLine
 10
74.9095590117
 20
42.2440287931
 30
0.0
 11
74.5725671797
 21
42.836108883
 31
0.0
  0
LINE
  5
39B
330
1F
100
AcDbEntity
  8
0
  6
Continuous
 62
     7
370
    25
100
AcDbLine
 10
73.7312698182
 20
39.718948274
 30
0.0
 11
73.3438649957
 21
40.4298462586
 31
0.0
  0
LINE
  5
39C
330
1F
100
AcDbEntity
  8
0
  6
Continuous
 62
     7
370
    25
100
AcDbLine
 10
76.4193804923
 20
39.447158138
 30
0.0
 11
76.1044970525
 21
40.0512862263
 31
0.0
  0
LINE
  5
39D
330
1F
100
AcDbEntity
  8
0
  6
Continuous
 62
     7
370
    25
100
AcDbLine
 10
75.1485904882
 20
36.9673416495
 30
0.0
 11
74.7877189864
 21
37.6920693226
 31
0.0
  0
LINE
  5
39E
330
1F
100
AcDbEntity
  8
0
  6
Continuous
 62
     7
370
    25
100
AcDbLine
 10
77.8248222914
 20
36.5964074099
 30
0.0
 11
77.5324773367
 21
37.2117583303
 31
0.0
  0
LINE
  5
39F
330
1F
100
AcDbEntity
  8
0
  6
Continuous
 62
     7
370
    25
100
AcDbLine
 10
76.463267223
 20
34.165242083
 30
0.0
 11
76.1294219488
 21
34.9028095537
 31
0.0
  0
LINE
  5
3A0
330
1F
100
AcDbEntity
  8
0
  6
Continuous
 62
     7
370
    25
100
AcDbLine
 10
79.1239647444
 20
33.6956703913
 30
0.0
 11
78.8545575829
 21
34.3214036484
 31
0.0
  0
LINE
  5
3A1
330
1F
100
AcDbEntity
  8
0
  6
Continuous
 62
     7
370
    25
100
AcDbLine
 10
77.6735043321
 20
31.3164769054
 30
0.0
 11
77.3671412782
 21
32.0658767453
 31
0.0
  0
LINE
  5
3A2
330
1F
100
AcDbEntity
  8
0
  6
Continuous
 62
     7
370
    25
100
AcDbLine
 10
80.3150333792
 20
30.7489091401
 30
0.0
 11
80.0689319886
 21
31.3841700576
 31
0.0
  0
LINE
  5
3A3
330
1F
100
AcDbEntity
  8
0
  6
Continuous
 62
     7
370
    25
100
AcDbLine
 10
78.7776487774
 20
28.4249371872
 30
0.0
 11
78.4991863987
 21
29.1851458063
 31
0.0
  0
LINE
  5
3A4
330
1F
100
AcDbEntity
  8
0
  6
Continuous
 62
     7
370
    25
100
AcDbLine
 10
81.3964013391
 20
27.7601485776
 30
0.0
 11
81.1739418644
 21
28.4040694655
 31
0.0
  0
LINE
  5
3A5
330
1F
100
AcDbEntity
  8
0
  6
Continuous
 62
     7
370
    25
100
AcDbLine
 10
79.7741924304
 20
25.494572424
 30
0.0
 11
79.524011073
 21
26.2645514688
 31
0.0
  0
LINE
  5
3A6
330
1F
100
AcDbEntity
  8
0
  6
Continuous
 62
     7
370
    25
100
AcDbLine
 10
82.3665916056
 20
24.7334709913
 30
0.0
 11
82.1680778996
 21
25.3851723311
 31
0.0
  0
LINE
  5
3A7
330
1F
100
AcDbEntity
  8
0
  6
Continuous
 62
     7
370
    25
100
AcDbLine
 10
80.6617741322
 20
22.5293851415
 30
0.0
 11
80.4402155138
 21
23.3080829132
 31
0.0
  0
LINE
  5
3A8
330
1F
100
AcDbEntity
  8
0
  6
Continuous
 62
     7
370
    25
100
AcDbLine
 10
83.2242790155
 20
21.6730104588
 30
0.0
 11
83.0499822241
 21
22.3316021049
 31
0.0
  0
LINE
  5
3A9
330
1F
100
AcDbEntity
  8
0
  6
Continuous
 62
     7
370
    25
100
AcDbLine
 10
81.439181553
 20
19.5334254289
 30
0.0
 11
81.2465482961
 21
20.3197783199
 31
0.0
  0
LINE
  5
3AA
330
1F
100
AcDbEntity
  8
0
  6
Continuous
 62
     7
370
    25
100
AcDbLine
 10
83.968292071
 20
18.5829472009
 30
0.0
 11
83.8184502627
 21
19.2475295963
 31
0.0
  0
LINE
  5
3AB
330
1F
100
AcDbEntity
  8
0
  6
Continuous
 62
     7
370
    25
100
AcDbLine
 10
82.1053528478
 20
16.5107854067
 30
0.0
 11
81.9419080662
 21
17.3037193537
 31
0.0
  0
LINE
  5
3AC
330
1F
100
AcDbEntity
  8
0
  6
Continuous
 62
     7
370
    25
100
AcDbLine
 10
84.5976145398
 20
15.4675018725
 30
0.0
 11
84.4724323804
 21
16.1371672775
 31
0.0
  0
LINE
  5
3AD
330
1F
100
AcDbEntity
  8
0
  6
Continuous
 62
     7
370
    25
100
AcDbLine
 10
82.6593781067
 20
13.4655936377
 30
0.0
 11
82.5253450463
 21
14.2640255882
 31
0.0
  0
LINE
  5
3AE
330
1F
100
AcDbEntity
  8
0
  6
Continuous
 62
     7
370
    25
100
AcDbLine
 10
85.111386843
 20
12.330929797
 30
0.0
 11
85.0110353163
 21
13.0047635293
 31
0.0
  0
LINE
  5
3AF
330
1F
100
AcDbEntity
  8
0
  6
Continuous
 62
     7
370
    25
100
AcDbLine
 10
83.1005005979
 20
10.4020094875
 30
0.0
 11
82.9960623318
 21
11.2048488796
 31
0.0
  0
LINE
  5
3B0
330
1F
100
AcDbEntity
  8
0
  6
Continuous
 62
     7
370
    25
100
AcDbLine
 10
85.5089072295
 20
9.1775151546
 30
0.0
 11
85.4335234036
 21
9.8545968384
 31
0.0
  0
LINE
  5
3B1
330
1F
100
AcDbEntity
  8
0
  6
Continuous
 62
     7
370
    25
100
AcDbLine
 10
83.4281178011
 20
7.3242174435
 30
0.0
 11
83.3534169794
 21
8.1303676951
 31
0.0
  0
LINE
  5
3B2
330
1F
100
AcDbEntity
  8
0
  6
Continuous
 62
     7
370
    25
100
AcDbLine
 10
85.7896327343
 20
6.0115651304
 30
0.0
 11
85.7393195744
 21
6.6909699536
 31
0.0
  0
LINE
  5
3B3
330
1F
100
AcDbEntity
  8
0
  6
Continuous
 62
     7
370
    25
100
AcDbLine
 10
83.6417822307
 20
4.2364213995
 30
0.0
 11
83.5969208857
 21
5.0447814064
 31
0.0
  0
LINE
  5
3B4
330
1F
100
AcDbEntity
  8
0
  6
Continuous
 62
     7
370
    25
100
AcDbLine
 10
85.95317992
 20
2.8374040314
 30
0.0
 11
85.9280061479
 21
3.5182040086
 31
0.0
  0
LINE
  5
3B5
330
1F
100
AcDbEntity
  8
0
  6
Continuous
 62
     7
370
    25
100
AcDbLine
 10
83.7412020466
 20
1.1428389135
 30
0.0
 11
83.7262414535
 21
1.952304553
 31
0.0
  0
LINE
  5
3B6
330
1F
100
AcDbEntity
  8
0
  6
Continuous
 62
     7
370
    25
100
AcDbLine
 10
85.9993254009
 20
-0.3406326202
 30
0.0
 11
85.9993254009
 21
0.3406326202
 31
0.0
  0
LINE
  5
3B7
330
1F
100
AcDbEntity
  8
0
  6
Continuous
 62
     7
370
    25
100
AcDbLine
 10
83.7262414535
 20
-1.952304553
 30
0.0
 11
83.7412020466
 21
-1.1428389135
 31
0.0
  0
LINE
  5
3B8
330
1F
100
AcDbEntity
  8
0
  6
Continuous
 62
     7
370
    25
100
AcDbLine
 10
85.9280061479
 20
-3.5182040086
 30
0.0
 11
85.95317992
 21
-2.8374040314
 31
0.0
  0
LINE
  5
3B9
330
1F
100
AcDbEntity
  8
0
  6
Continuous
 62
     7
370
    25
100
AcDbLine
 10
83.5969208857
 20
-5.0447814064
 30
0.0
 11
83.6417822307
 21
-4.2364213995
 31
0.0
  0
LINE
  5
3BA
330
1F
100
AcDbEntity
  8
0
  6
Continuous
 62
     7
370
    25
100
AcDbLine
 10
85.7393195744
 20
-6.6909699536
 30
0.0
 11
85.7896327343
 21
-6.0115651304
 31
0.0
  0
LINE
  5
3BB
330
1F
100
AcDbEntity
  8
0
  6
Continuous
 62
     7
370
    25
100
AcDbLine
 10
83.3534169794
 20
-8.1303676951
 30
0.0
 11
83.4281178011
 21
-7.3242174435
 31
0.0
  0
LINE
  5
3BC
330
1F
100
AcDbEntity
  8
0
  6
Continuous
 62
     7
370
    25
100
AcDbLine
 10
85.4335234036
 20
-9.8545968384
 30
0.0
 11
85.5089072295
 21
-9.1775151546
 31
0.0
  0
LINE
  5
3BD
330
1F
100
AcDbEntity
  8
0
  6
Continuous
 62
     7
370
    25
100
AcDbLine
 10
82.9960623318
 20
-11.2048488796
 30
0.0
 11
83.1005005979
 21
-10.4020094875
 31
0.0
  0
LINE
  5
3BE
330
1F
100
AcDbEntity
  8
0
  6
Continuous
 62
     7
370
    25
100
AcDbLine
 10
85.0110353163
 20
-13.0047635293
 30
0.0
 11
85.111386843
 21
-12.330929797
 31
0.0
  0
LINE
  5
3BF
330
1F
100
AcDbEntity
  8
0
  6
Continuous
 62
     7
370
    25
100
AcDbLine
 10
82.5253450463
 20
-14.2640255882
 30
0.0
 11
82.6593781067
 21
-13.4655936377
 31
0.0
  0
LINE
  5
3C0
330
1F
100
AcDbEntity
  8
0
  6
Continuous
 62
     7
370
    25
100
AcDbLine
 10
84.4724323804
 20
-16.1371672775
 30
0.0
 11
84.5976145398
 21
-15.4675018725
 31
0.0
  0
LINE
  5
3C1
330
1F
100
AcDbEntity
  8
0
  6
Continuous
 62
     7
370
    25
100
AcDbLine
 10
81.9419080662
 20
-17.3037193537
 30
0.0
 11
82.1053528478
 21
-16.5107854067
 31
0.0
  0
LINE
  5
3C2
330
1F
100
AcDbEntity
  8
0
  6
Continuous
 62
     7
370
    25
100
AcDbLine
 10
83.8184502627
 20
-19.2475295963
 30
0.0
 11
83.968292071
 21
-18.5829472009
 31
0.0
  0
LINE
  5
3C3
330
1F
100
AcDbEntity
  8
0
  6
Continuous
 62
     7
370
    25
100
AcDbLine
 10
81.2465482961
 20
-20.3197783199
 30
0.0
 11
81.439181553
 21
-19.5334254289
 31
0.0
  0
LINE
  5
3C4
330
1F
100
AcDbEntity
  8
0
  6
Continuous
 62
     7
370
    25
100
AcDbLine
 10
83.0499822241
 20
-22.3316021049
 30
0.0
 11
83.2242790155
 21
-21.6730104588
 31
0.0
  0
LINE
  5
3C5
330
1F
100
AcDbEntity
  8
0
  6
Continuous
 62
     7
370
    25
100
AcDbLine
 10
80.4402155138
 20
-23.3080829132
 30
0.0
 11
80.6617741322
 21
-22.5293851415
 31
0.0
  0
LINE
  5
3C6
330
1F
100
AcDbEntity
  8
0
  6
Continuous
 62
     7
370
    25
100
AcDbLine
 10
82.1680778996
 20
-25.3851723311
 30
0.0
 11
82.3665916056
 21
-24.7334709913
 31
0.0
  0
LINE
  5
3C7
330
1F
100
AcDbEntity
  8
0
  6
Continuous
 62
     7
370
    25
100
AcDbLine
 10
79.524011073
 20
-26.2645514688
 30
0.0
 11
79.7741924304
 21
-25.494572424
 31
0.0
  0
LINE
  5
3C8
330
1F
100
AcDbEntity
  8
0
  6
Continuous
 62
     7
370
    25
100
AcDbLine
 10
81.1739418644
 20
-28.4040694655
 30
0.0
 11
81.3964013391
 21
-27.7601485776
 31
0.0
  0
LINE
  5
3C9
330
1F
100
AcDbEntity
  8
0
  6
Continuous
 62
     7
370
    25
100
AcDbLine
 10
78.4991863987
 20
-29.1851458063
 30
0.0
 11
78.7776487774
 21
-28.4249371872
 31
0.0
  0
LINE
  5
3CA
330
1F
100
AcDbEntity
  8
0
  6
Continuous
 62
     7
370
    25
100
AcDbLine
 10
80.0689319886
 20
-31.3841700576
 30
0.0
 11
80.3150333792
 21
-30.7489091401
 31
0.0
  0
LINE
  5
3CB
330
1F
100
AcDbEntity
  8
0
  6
Continuous
 62
     7
370
    25
100
AcDbLine
 10
77.3671412782
 20
-32.0658767453
 30
0.0
 11
77.6735043321
 21
-31.3164769054
 31
0.0
  0
LINE
  5
3CC
330
1F
100
AcDbEntity
  8
0
  6
Continuous
 62
     7
370
    25
100
AcDbLine
 10
78.8545575829
 20
-34.3214036484
 30
0.0
 11
79.1239647445
 21
-33.6956703913
 31
0.0
  0
LINE
  5
3CD
330
1F
100
AcDbEntity
  8
0
  6
Continuous
 62
     7
370
    25
100
AcDbLine
 10
76.1294219488
 20
-34.9028095537
 30
0.0
 11
76.463267223
 21
-34.165242083
 31
0.0
  0
LINE
  5
3CE
330
1F
100
AcDbEntity
  8
0
  6
Continuous
 62
     7
370
    25
100
AcDbLine
 10
77.5324773367
 20
-37.2117583303
 30
0.0
 11
77.8248222914
 21
-36.5964074099
 31
0.0
  0
LINE
  5
3CF
330
1F
100
AcDbEntity
  8
0
  6
Continuous
 62
     7
370
    25
100
AcDbLine
 10
74.7877189864
 20
-37.6920693226
 30
0.0
 11
75.1485904882
 21
-36.9673416495
 31
0.0
  0
LINE
  5
3D0
330
1F
100
AcDbEntity
  8
0
  6
Continuous
 62
     7
370
    25
100
AcDbLine
 10
76.1044970525
 20
-40.0512862263
 30
0.0
 11
76.4193804923
 21
-39.447158138
 31
0.0
  0
LINE
  5
3D1
330
1F
100
AcDbEntity
  8
0
  6
Continuous
 62
     7
370
    25
100
AcDbLine
 10
73.3438649957
 20
-40.4298462586
 30
0.0
 11
73.7312698182
 21
-39.718948274
 31
0.0
  0
LINE
  5
3D2
330
1F
100
AcDbEntity
  8
0
  6
Continuous
 62
     7
370
    25
100
AcDbLine
 10
74.5725671797
 20
-42.836108883
 30
0.0
 11
74.9095590117
 21
-42.2440287931
 31
0.0
  0
LINE
  5
3D3
330
1F
100
AcDbEntity
  8
0
  6
Continuous
 62
     7
370
    25
100
AcDbLine
 10
71.7998321077
 20
-43.1124008877
 30
0.0
 11
72.2132411025
 21
-42.4163035928
 31
0.0
  0
LINE
  5
3D4
330
1F
100
AcDbEntity
  8
0
  6
Continuous
 62
     7
370
    25
100
AcDbLine
 10
72.9387801501
 20
-45.5624225675
 30
0.0
 11
73.2974200841
 21
-44.9831991861
 31
0.0
  0
LINE
  5
3D5
330
1F
100
AcDbEntity
  8
0
  6
Continuous
 62
     7
370
    25
100
AcDbLine
 10
70.1577292856
 20
-45.7360691631
 30
0.0
 11
70.5965777856
 21
-45.055723343
 31
0.0
  0
LINE
  5
3D6
330
1F
100
AcDbEntity
  8
0
  6
Continuous
 62
     7
370
    25
100
AcDbLine
 10
71.2053675203
 20
-48.2265034633
 30
0.0
 11
71.5851656972
 21
-47.66092794
 31
0.0
  0
LINE
  5
3D7
330
1F
100
AcDbEntity
  8
0
  6
Continuous
 62
     7
370
    25
100
AcDbLine
 10
68.4197994442
 20
-48.2972674694
 30
0.0
 11
68.8834880353
 21
-47.6336023947
 31
0.0
  0
LINE
  5
3D8
330
1F
100
AcDbEntity
  8
0
  6
Continuous
 62
     7
370
    25
100
AcDbLine
 10
69.3746969236
 20
-50.8247127563
 30
0.0
 11
69.7751345847
 21
-50.2735575992
 31
0.0
  0
LINE
  5
3D9
330
1F
100
AcDbEntity
  8
0
  6
Continuous
 62
     7
370
    25
100
AcDbLine
 10
66.5884163868
 20
-50.7924975178
 30
0.0
 11
67.076311726
 21
-50.1464196751
 31
0.0
  0
LINE
  5
3DA
330
1F
100
AcDbEntity
  8
0
  6
Continuous
 62
     7
370
    25
100
AcDbLine
 10
67.4492688356
 20
-53.3535016053
 30
0.0
 11
67.8697990314
 21
-52.817519626
 31
0.0
  0
LINE
  5
3DB
330
1F
100
AcDbEntity
  8
0
  6
Continuous
 62
     7
370
    25
100
AcDbLine
 10
64.6660815622
 20
-53.2183511243
 30
0.0
 11
65.1775172433
 21
-52.5907429782
 31
0.0
  0
LINE
  5
3DC
330
1F
100
AcDbEntity
  8
0
  6
Continuous
 62
     7
370
    25
100
AcDbLine
 10
65.4317131596
 20
-55.8094159887
 30
0.0
 11
65.8717614964
 21
-55.2893392741
 31
0.0
  0
LINE
  5
3DD
330
1F
100
AcDbEntity
  8
0
  6
Continuous
 62
     7
370
    25
100
AcDbLine
 10
62.6554206487
 20
-55.5715148645
 30
0.0
 11
63.189698112
 21
-54.9632336523
 31
0.0
  0
LINE
  5
3DE
330
1F
100
AcDbEntity
  8
0
  6
Continuous
 62
     7
370
    25
100
AcDbLine
 10
63.324785634
 20
-58.189101423
 30
0.0
 11
63.7837510586
 21
-57.6856403353
 31
0.0
  0
LINE
  5
3DF
330
1F
100
AcDbEntity
  8
0
  6
Continuous
 62
     7
370
    25
100
AcDbLine
 10
60.5591799671
 20
-57.8487745999
 30
0.0
 11
61.1155694538
 21
-57.2606511606
 31
0.0
  0
LINE
  5
3E0
330
1F
100
AcDbEntity
  8
0
  6
Continuous
 62
     7
370
    25
100
AcDbLine
 10
61.1313640682
 20
-60.489307544
 30
0.0
 11
61.6086196891
 21
-60.0031497507
 31
0.0
  0
LINE
  5
3E1
330
1F
100
AcDbEntity
  8
0
  6
Continuous
 62
     7
370
    25
100
AcDbLine
 10
58.3802227301
 20
-60.0470198677
 30
0.0
 11
58.9579642792
 21
-59.479857507
 31
0.0
  0
LINE
  5
3E2
330
1F
100
AcDbEntity
  8
0
  6
Continuous
 62
     7
370
    25
100
AcDbLine
 10
58.8544444124
 20
-62.706892547
 30
0.0
 11
59.3493383558
 21
-62.238702081
 31
0.0
  0
LINE
  5
3E3
330
1F
100
AcDbEntity
  8
0
  6
Continuous
 62
     7
370
    25
100
AcDbLine
 10
56.1215251312
 20
-62.163248129
 30
0.0
 11
56.7198296172
 21
-61.6178215227
 31
0.0
  0
LINE
  5
3E4
330
1F
100
AcDbEntity
  8
0
  6
Continuous
 62
     7
370
    25
100
AcDbLine
 10
56.4971366649
 20
-64.8388274775
 30
0.0
 11
57.0089929653
 21
-64.3892438307
 31
0.0
  0
LINE
  5
3E5
330
1F
100
AcDbEntity
  8
0
  6
Continuous
 62
     7
370
    25
100
AcDbLine
 10
53.7861722795
 20
-64.1945688709
 30
0.0
 11
54.4042224905
 21
-63.6716230059
 31
0.0
  0
LINE
  5
3E6
330
1F
100
AcDbEntity
  8
0
  6
Continuous
 62
     7
370
    25
100
AcDbLine
 10
54.0626606246
 20
-66.8822003689
 30
0.0
 11
54.5907801477
 21
-66.4518376184
 31
0.0
  0
LINE
  5
3E7
330
1F
100
AcDbEntity
  8
0
  6
Continuous
 62
     7
370
    25
100
AcDbLine
 10
51.3773539863
 20
-66.1382075533
 30
0.0
 11
52.01430574
 21
-65.6384567109
 31
0.0
  0
LINE
  5
3E8
330
1F
100
AcDbEntity
  8
0
  6
Continuous
 62
     7
370
    25
100
AcDbLine
 10
51.5543414928
 20
-68.8342202196
 30
0.0
 11
52.0980028909
 21
-68.4236661892
 31
0.0
  0
LINE
  5
3E9
330
1F
100
AcDbEntity
  8
0
  6
Continuous
 62
     7
370
    25
100
AcDbLine
 10
48.8983604075
 20
-67.9915093997
 30
0.0
 11
49.5533437044
 21
-67.5156361795
 31
0.0
  0
LINE
  5
3EA
330
1F
100
AcDbEntity
  8
0
  6
Continuous
 62
     7
370
    25
100
AcDbLine
 10
48.9756053318
 20
-70.6922208053
 30
0.0
 11
49.5340660289
 21
-70.3020362624
 31
0.0
  0
LINE
  5
3EB
330
1F
100
AcDbEntity
  8
0
  6
Continuous
 62
     7
370
    25
100
AcDbLine
 10
46.3525775502
 20
-69.7519430228
 30
0.0
 11
47.0246977619
 21
-69.3005974102
 31
0.0
  0
LINE
  5
3EC
330
1F
100
AcDbEntity
  8
0
  6
Continuous
 62
     7
370
    25
100
AcDbLine
 10
46.329974385
 20
-72.4536643206
 30
0.0
 11
46.9024715909
 21
-72.0843822104
 31
0.0
  0
LINE
  5
3ED
330
1F
100
AcDbEntity
  8
0
  6
Continuous
 62
     7
370
    25
100
AcDbLine
 10
43.7434826475
 20
-71.4171038818
 30
0.0
 11
44.4318217386
 21
-70.9909023607
 31
0.0
  0
LINE
  5
3EE
330
1F
100
AcDbEntity
  8
0
  6
Continuous
 62
     7
370
    25
100
AcDbLine
 10
43.621062266
 20
-74.1161448457
 30
0.0
 11
44.2068140185
 21
-73.7682695631
 31
0.0
  0
LINE
  5
3EF
330
1F
100
AcDbEntity
  8
0
  6
Continuous
 62
     7
370
    25
100
AcDbLine
 10
41.0746394093
 20
-72.9847175674
 30
0.0
 11
41.7782571914
 21
-72.5842422778
 31
0.0
  0
LINE
  5
3F0
330
1F
100
AcDbEntity
  8
0
  6
Continuous
 62
     7
370
    25
100
AcDbLine
 10
40.852569023
 20
-75.677391632
 30
0.0
 11
41.4507752555
 21
-75.3513983328
 31
0.0
  0
LINE
  5
3F1
330
1F
100
AcDbEntity
  8
0
  6
Continuous
 62
     7
370
    25
100
AcDbLine
 10
38.3496931543
 20
-74.4526429079
 30
0.0
 11
39.0676285703
 21
-74.0784408509
 31
0.0
  0
LINE
  5
3F2
330
1F
100
AcDbEntity
  8
0
  6
Continuous
 62
     7
370
    25
100
AcDbLine
 10
38.0282760847
 20
-77.1352722043
 30
0.0
 11
38.6381197195
 21
-76.8316061562
 31
0.0
  0
LINE
  5
3F3
330
1F
100
AcDbEntity
  8
0
  6
Continuous
 62
     7
370
    25
100
AcDbLine
 10
35.5723658314
 20
-75.8188748938
 30
0.0
 11
36.3036382677
 21
-75.4714571843
 31
0.0
  0
LINE
  5
3F4
330
1F
100
AcDbEntity
  8
0
  6
Continuous
 62
     7
370
    25
100
AcDbLine
 10
35.1520410955
 20
-78.487795273
 30
0.0
 11
35.7726891596
 21
-78.2068712473
 31
0.0
  0
LINE
  5
3F5
330
1F
100
AcDbEntity
  8
0
  6
Continuous
 62
     7
370
    25
100
AcDbLine
 10
32.7464509357
 20
-77.0815474165
 30
0.0
 11
33.4900615622
 21
-76.7613885854
 31
0.0
  0
LINE
  5
3F6
330
1F
100
AcDbEntity
  8
0
  6
Continuous
 62
     7
370
    25
100
AcDbLine
 10
32.2277926465
 20
-79.7331134544
 30
0.0
 11
32.8583974093
 21
-79.4753151594
 31
0.0
  0
LINE
  5
3F7
330
1F
100
AcDbEntity
  8
0
  6
Continuous
 62
     7
370
    25
100
AcDbLine
 10
29.8758083269
 20
-78.2389358172
 30
0.0
 11
30.6307414609
 21
-77.946473163
 31
0.0
  0
LINE
  5
3F8
330
1F
100
AcDbEntity
  8
0
  6
Continuous
 62
     7
370
    25
100
AcDbLine
 10
29.2595249093
 20
-80.8695257936
 30
0.0
 11
29.8992250405
 21
-80.6352053509
 31
0.0
  0
LINE
  5
3F9
330
1F
100
AcDbEntity
  8
0
  6
Continuous
 62
     7
370
    25
100
AcDbLine
 10
26.9643589576
 20
-79.2894592428
 30
0.0
 11
27.7295834512
 21
-79.0250922342
 31
0.0
  0
LINE
  5
3FA
330
1F
100
AcDbEntity
  8
0
  6
Continuous
 62
     7
370
    25
100
AcDbLine
 10
26.2512921806
 20
-81.895480088
 30
0.0
 11
26.8992139268
 21
-81.6849575511
 31
0.0
  0
LINE
  5
3FB
330
1F
100
AcDbEntity
  8
0
  6
Continuous
 62
     7
370
    25
100
AcDbLine
 10
24.0160795173
 20
-80.2316828043
 30
0.0
 11
24.7905501661
 21
-79.995772535
 31
0.0
  0
LINE
  5
3FC
330
1F
100
AcDbEntity
  8
0
  6
Continuous
 62
     7
370
    25
100
AcDbLine
 10
23.2072033444
 20
-82.8095750076
 30
0.0
 11
23.8624617224
 21
-82.6231379248
 31
0.0
  0
LINE
  5
3FD
330
1F
100
AcDbEntity
  8
0
  6
Continuous
 62
     7
370
    25
100
AcDbLine
 10
21.0349970013
 20
-81.064319538
 30
0.0
 11
21.8176559713
 21
-80.8571882328
 31
0.0
  0
LINE
  5
3FE
330
1F
100
AcDbEntity
  8
0
  6
Continuous
 62
     7
370
    25
100
AcDbLine
 10
20.13141626
 20
-83.6105620084
 30
0.0
 11
20.7931162656
 21
-83.4484650306
 31
0.0
  0
LINE
  5
3FF
330
1F
100
AcDbEntity
  8
0
  6
Continuous
 62
     7
370
    25
100
AcDbLine
 10
18.0251832096
 20
-81.786232162
 30
0.0
 11
18.8149614829
 21
-81.6081627375
 31
0.0
  0
LINE
  5
400
330
1F
100
AcDbEntity
  8
0
  6
Continuous
 62
     7
370
    25
100
AcDbLine
 10
17.0281320825
 20
-84.2973470388
 30
0.0
 11
17.6953699132
 21
-84.1598115708
 31
0.0
  0
LINE
  5
401
330
1F
100
AcDbEntity
  8
0
  6
Continuous
 62
     7
370
    25
100
AcDbLine
 10
14.9907491857
 20
-82.3964346307
 30
0.0
 11
15.7865680202
 21
-82.2476703083
 31
0.0
  0
LINE
  5
402
330
1F
100
AcDbEntity
  8
0
  6
Continuous
 62
     7
370
    25
100
AcDbLine
 10
13.9015895247
 20
-84.8689920329
 30
0.0
 11
14.5734538139
 21
-84.7562059317
 31
0.0
  0
LINE
  5
403
330
1F
100
AcDbEntity
  8
0
  6
Continuous
 62
     7
370
    25
100
AcDbLine
 10
11.9358396017
 20
-82.8940934808
 30
0.0
 11
12.7366120046
 21
-82.7748374547
 31
0.0
  0
LINE
  5
404
330
1F
100
AcDbEntity
  8
0
  6
Continuous
 62
     7
370
    25
100
AcDbLine
 10
10.7560590679
 20
-85.3247161925
 30
0.0
 11
11.4316321298
 21
-85.2368335102
 31
0.0
  0
LINE
  5
405
330
1F
100
AcDbEntity
  8
0
  6
Continuous
 62
     7
370
    25
100
AcDbLine
 10
8.8646270965
 20
-83.2785289702
 30
0.0
 11
9.6692593089
 21
-83.1889441297
 31
0.0
  0
LINE
  5
406
330
1F
100
AcDbEntity
  8
0
  6
Continuous
 62
     7
370
    25
100
AcDbLine
 10
7.5958371282
 20
-85.6638970531
 30
0.0
 11
8.2741962112
 21
-85.601037827
 31
0.0
  0
LINE
  5
407
330
1F
100
AcDbEntity
  8
0
  6
Continuous
 62
     7
370
    25
100
AcDbLine
 10
5.781306577
 20
-83.5492160063
 30
0.0
 11
6.5886995682
 21
-83.4894247136
 31
0.0
  0
LINE
  5
408
330
1F
100
AcDbEntity
  8
0
  6
Continuous
 62
     7
370
    25
100
AcDbLine
 10
4.4252401887
 20
-85.8860713345
 30
0.0
 11
5.1054587358
 21
-85.8483214227
 31
0.0
  0
LINE
  5
409
330
1F
100
AcDbEntity
  8
0
  6
Continuous
 62
     7
370
    25
100
AcDbLine
 10
2.6900894881
 20
-83.7057848631
 30
0.0
 11
3.4991404563
 21
-83.6758687859
 31
0.0
  0
LINE
  5
40A
330
1F
100
AcDbEntity
  8
0
  6
Continuous
 62
     7
370
    25
100
AcDbLine
 10
1.2485989033
 20
-85.9909355733
 30
0.0
 11
1.929747818
 21
-85.9783465377
 31
0.0
  0
LINE
  5
40B
330
1F
100
AcDbEntity
  8
0
  6
Continuous
 62
     7
370
    25
100
AcDbLine
 10
-0.4048019395
 20
-83.7480216864
 30
0.0
 11
0.4048019395
 21
-83.7480216864
 31
0.0
  0
LINE
  5
40C
330
1F
100
AcDbEntity
  8
0
  6
Continuous
 62
     7
370
    25
100
AcDbLine
 10
-1.929747818
 20
-85.9783465377
 30
0.0
 11
-1.2485989033
 21
-85.9909355733
 31
0.0
  0
LINE
  5
40D
330
1F
100
AcDbEntity
  8
0
  6
Continuous
 62
     7
370
    25
100
AcDbLine
 10
-3.4991404563
 20
-83.6758687859
 30
0.0
 11
-2.6900894881
 21
-83.7057848631
 31
0.0
  0
LINE
  5
40E
330
1F
100
AcDbEntity
  8
0
  6
Continuous
 62
     7
370
    25
100
AcDbLine
 10
-5.1054587358
 20
-85.8483214227
 30
0.0
 11
-4.4252401887
 21
-85.8860713345
 31
0.0
  0
LINE
  5
40F
330
1F
100
AcDbEntity
  8
0
  6
Continuous
 62
     7
370
    25
100
AcDbLine
 10
-6.5886995682
 20
-83.4894247136
 30
0.0
 11
-5.781306577
 21
-83.5492160063
 31
0.0
  0
LINE
  5
410
330
1F
100
AcDbEntity
  8
0
  6
Continuous
 62
     7
370
    25
100
AcDbLine
 10
-8.2741962112
 20
-85.601037827
 30
0.0
 11
-7.5958371282
 21
-85.6638970531
 31
0.0
  0
LINE
  5
411
330
1F
100
AcDbEntity
  8
0
  6
Continuous
 62
     7
370
    25
100
AcDbLine
 10
-9.6692593089
 20
-83.1889441297
 30
0.0
 11
-8.8646270965
 21
-83.2785289702
 31
0.0
  0
LINE
  5
412
330
1F
100
AcDbEntity
  8
0
  6
Continuous
 62
     7
370
    25
100
AcDbLine
 10
-11.4316321298
 20
-85.2368335102
 30
0.0
 11
-10.7560590679
 21
-85.3247161925
 31
0.0
  0
LINE
  5
413
330
1F
100
AcDbEntity
  8
0
  6
Continuous
 62
     7
370
    25
100
AcDbLine
 10
-12.7366120046
 20
-82.7748374547
 30
0.0
 11
-11.9358396017
 21
-82.8940934808
 31
0.0
  0
LINE
  5
414
330
1F
100
AcDbEntity
  8
0
  6
Continuous
 62
     7
370
    25
100
AcDbLine
 10
-14.5734538139
 20
-84.7562059317
 30
0.0
 11
-13.9015895247
 21
-84.8689920329
 31
0.0
  0
LINE
  5
415
330
1F
100
AcDbEntity
  8
0
  6
Continuous
 62
     7
370
    25
100
AcDbLine
 10
-15.7865680202
 20
-82.2476703083
 30
0.0
 11
-14.9907491857
 21
-82.3964346307
 31
0.0
  0
LINE
  5
416
330
1F
100
AcDbEntity
  8
0
  6
Continuous
 62
     7
370
    25
100
AcDbLine
 10
-17.6953699132
 20
-84.1598115708
 30
0.0
 11
-17.0281320824
 21
-84.2973470388
 31
0.0
  0
LINE
  5
417
330
1F
100
AcDbEntity
  8
0
  6
Continuous
 62
     7
370
    25
100
AcDbLine
 10
-18.8149614829
 20
-81.6081627375
 30
0.0
 11
-18.0251832095
 21
-81.786232162
 31
0.0
  0
LINE
  5
418
330
1F
100
AcDbEntity
  8
0
  6
Continuous
 62
     7
370
    25
100
AcDbLine
 10
-20.7931162656
 20
-83.4484650306
 30
0.0
 11
-20.13141626
 21
-83.6105620084
 31
0.0
  0
LINE
  5
419
330
1F
100
AcDbEntity
  8
0
  6
Continuous
 62
     7
370
    25
100
AcDbLine
 10
-21.8176559713
 20
-80.8571882328
 30
0.0
 11
-21.0349970013
 21
-81.064319538
 31
0.0
  0
LINE
  5
41A
330
1F
100
AcDbEntity
  8
0
  6
Continuous
 62
     7
370
    25
100
AcDbLine
 10
-23.8624617224
 20
-82.6231379248
 30
0.0
 11
-23.2072033444
 21
-82.8095750076
 31
0.0
  0
LINE
  5
41B
330
1F
100
AcDbEntity
  8
0
  6
Continuous
 62
     7
370
    25
100
AcDbLine
 10
-24.790550166
 20
-79.995772535
 30
0.0
 11
-24.0160795173
 21
-80.2316828043
 31
0.0
  0
LINE
  5
41C
330
1F
100
AcDbEntity
  8
0
  6
Continuous
 62
     7
370
    25
100
AcDbLine
 10
-26.8992139268
 20
-81.6849575511
 30
0.0
 11
-26.2512921806
 21
-81.895480088
 31
0.0
  0
LINE
  5
41D
330
1F
100
AcDbEntity
  8
0
  6
Continuous
 62
     7
370
    25
100
AcDbLine
 10
-27.7295834512
 20
-79.0250922342
 30
0.0
 11
-26.9643589576
 21
-79.2894592428
 31
0.0
  0
LINE
  5
41E
330
1F
100
AcDbEntity
  8
0
  6
Continuous
 62
     7
370
    25
100
AcDbLine
 10
-29.8992250405
 20
-80.6352053509
 30
0.0
 11
-29.2595249093
 21
-80.8695257936
 31
0.0
  0
LINE
  5
41F
330
1F
100
AcDbEntity
  8
0
  6
Continuous
 62
     7
370
    25
100
AcDbLine
 10
-30.6307414609
 20
-77.946473163
 30
0.0
 11
-29.8758083269
 21
-78.2389358173
 31
0.0
  0
LINE
  5
420
330
1F
100
AcDbEntity
  8
0
  6
Continuous
 62
     7
370
    25
100
AcDbLine
 10
-32.8583974093
 20
-79.4753151594
 30
0.0
 11
-32.2277926465
 21
-79.7331134544
 31
0.0
  0
LINE
  5
421
330
1F
100
AcDbEntity
  8
0
  6
Continuous
 62
     7
370
    25
100
AcDbLine
 10
-33.4900615622
 20
-76.7613885854
 30
0.0
 11
-32.7464509357
 21
-77.0815474165
 31
0.0
  0
LINE
  5
422
330
1F
100
AcDbEntity
  8
0
  6
Continuous
 62
     7
370
    25
100
AcDbLine
 10
-35.7726891596
 20
-78.2068712473
 30
0.0
 11
-35.1520410955
 21
-78.487795273
 31
0.0
  0
LINE
  5
423
330
1F
100
AcDbEntity
  8
0
  6
Continuous
 62
     7
370
    25
100
AcDbLine
 10
-36.3036382677
 20
-75.4714571843
 30
0.0
 11
-35.5723658314
 21
-75.8188748938
 31
0.0
  0
LINE
  5
424
330
1F
100
AcDbEntity
  8
0
  6
Continuous
 62
     7
370
    25
100
AcDbLine
 10
-38.6381197195
 20
-76.8316061562
 30
0.0
 11
-38.0282760847
 21
-77.1352722043
 31
0.0
  0
LINE
  5
425
330
1F
100
AcDbEntity
  8
0
  6
Continuous
 62
     7
370
    25
100
AcDbLine
 10
-39.0676285703
 20
-74.0784408509
 30
0.0
 11
-38.3496931543
 21
-74.4526429079
 31
0.0
  0
LINE
  5
426
330
1F
100
AcDbEntity
  8
0
  6
Continuous
 62
     7
370
    25
100
AcDbLine
 10
-41.4507752555
 20
-75.3513983328
 30
0.0
 11
-40.852569023
 21
-75.677391632
 31
0.0
  0
LINE
  5
427
330
1F
100
AcDbEntity
  8
0
  6
Continuous
 62
     7
370
    25
100
AcDbLine
 10
-41.7782571914
 20
-72.5842422778
 30
0.0
 11
-41.0746394093
 21
-72.9847175674
 31
0.0
  0
LINE
  5
428
330
1F
100
AcDbEntity
  8
0
  6
Continuous
 62
     7
370
    25
100
AcDbLine
 10
-44.2068140185
 20
-73.7682695631
 30
0.0
 11
-43.621062266
 21
-74.1161448457
 31
0.0
  0
LINE
  5
429
330
1F
100
AcDbEntity
  8
0
  6
Continuous
 62
     7
370
    25
100
AcDbLine
 10
-44.4318217386
 20
-70.9909023607
 30
0.0
 11
-43.7434826475
 21
-71.4171038818
 31
0.0
  0
LINE
  5
42A
330
1F
100
AcDbEntity
  8
0
  6
Continuous
 62
     7
370
    25
100
AcDbLine
 10
-46.9024715909
 20
-72.0843822105
 30
0.0
 11
-46.329974385
 21
-72.4536643206
 31
0.0
  0
LINE
  5
42B
330
1F
100
AcDbEntity
  8
0
  6
Continuous
 62
     7
370
    25
100
AcDbLine
 10
-47.0246977619
 20
-69.3005974102
 30
0.0
 11
-46.3525775502
 21
-69.7519430228
 31
0.0
  0
LINE
  5
42C
330
1F
100
AcDbEntity
  8
0
  6
Continuous
 62
     7
370
    25
100
AcDbLine
 10
-49.5340660289
 20
-70.3020362624
 30
0.0
 11
-48.9756053318
 21
-70.6922208053
 31
0.0
  0
LINE
  5
42D
330
1F
100
AcDbEntity
  8
0
  6
Continuous
 62
     7
370
    25
100
AcDbLine
 10
-49.5533437044
 20
-67.5156361795
 30
0.0
 11
-48.8983604075
 21
-67.9915093997
 31
0.0
  0
LINE
  5
42E
330
1F
100
AcDbEntity
  8
0
  6
Continuous
 62
     7
370
    25
100
AcDbLine
 10
-52.0980028909
 20
-68.4236661892
 30
0.0
 11
-51.5543414928
 21
-68.8342202196
 31
0.0
  0
LINE
  5
42F
330
1F
100
AcDbEntity
  8
0
  6
Continuous
 62
     7
370
    25
100
AcDbLine
 10
-52.01430574
 20
-65.6384567109
 30
0.0
 11
-51.3773539863
 21
-66.1382075533
 31
0.0
  0
LINE
  5
430
330
1F
100
AcDbEntity
  8
0
  6
Continuous
 62
     7
370
    25
100
AcDbLine
 10
-54.5907801477
 20
-66.4518376184
 30
0.0
 11
-54.0626606246
 21
-66.8822003689
 31
0.0
  0
LINE
  5
431
330
1F
100
AcDbEntity
  8
0
  6
Continuous
 62
     7
370
    25
100
AcDbLine
 10
-54.4042224905
 20
-63.6716230059
 30
0.0
 11
-53.7861722795
 21
-64.1945688709
 31
0.0
  0
LINE
  5
432
330
1F
100
AcDbEntity
  8
0
  6
Continuous
 62
     7
370
    25
100
AcDbLine
 10
-57.0089929653
 20
-64.3892438307
 30
0.0
 11
-56.4971366649
 21
-64.8388274775
 31
0.0
  0
LINE
  5
433
330
1F
100
AcDbEntity
  8
0
  6
Continuous
 62
     7
370
    25
100
AcDbLine
 10
-56.7198296172
 20
-61.6178215227
 30
0.0
 11
-56.1215251312
 21
-62.163248129
 31
0.0
  0
LINE
  5
434
330
1F
100
AcDbEntity
  8
0
  6
Continuous
 62
     7
370
    25
100
AcDbLine
 10
-59.3493383558
 20
-62.238702081
 30
0.0
 11
-58.8544444124
 21
-62.706892547
 31
0.0
  0
LINE
  5
435
330
1F
100
AcDbEntity
  8
0
  6
Continuous
 62
     7
370
    25
100
AcDbLine
 10
-58.9579642792
 20
-59.479857507
 30
0.0
 11
-58.3802227301
 21
-60.0470198677
 31
0.0
  0
LINE
  5
436
330
1F
100
AcDbEntity
  8
0
  6
Continuous
 62
     7
370
    25
100
AcDbLine
 10
-61.6086196891
 20
-60.0031497507
 30
0.0
 11
-61.1313640682
 21
-60.489307544
 31
0.0
  0
LINE
  5
437
330
1F
100
AcDbEntity
  8
0
  6
Continuous
 62
     7
370
    25
100
AcDbLine
 10
-61.1155694538
 20
-57.2606511606
 30
0.0
 11
-60.5591799671
 21
-57.8487745999
 31
0.0
  0
LINE
  5
438
330
1F
100
AcDbEntity
  8
0
  6
Continuous
 62
     7
370
    25
100
AcDbLine
 10
-63.7837510586
 20
-57.6856403353
 30
0.0
 11
-63.324785634
 21
-58.189101423
 31
0.0
  0
LINE
  5
439
330
1F
100
AcDbEntity
  8
0
  6
Continuous
 62
     7
370
    25
100
AcDbLine
 10
-63.189698112
 20
-54.9632336523
 30
0.0
 11
-62.6554206487
 21
-55.5715148645
 31
0.0
  0
LINE
  5
43A
330
1F
100
AcDbEntity
  8
0
  6
Continuous
 62
     7
370
    25
100
AcDbLine
 10
-65.8717614964
 20
-55.2893392741
 30
0.0
 11
-65.4317131596
 21
-55.8094159887
 31
0.0
  0
LINE
  5
43B
330
1F
100
AcDbEntity
  8
0
  6
Continuous
 62
     7
370
    25
100
AcDbLine
 10
-65.1775172433
 20
-52.5907429782
 30
0.0
 11
-64.6660815622
 21
-53.2183511243
 31
0.0
  0
LINE
  5
43C
330
1F
100
AcDbEntity
  8
0
  6
Continuous
 62
     7
370
    25
100
AcDbLine
 10
-67.8697990314
 20
-52.817519626
 30
0.0
 11
-67.4492688356
 21
-53.3535016053
 31
0.0
  0
LINE
  5
43D
330
1F
100
AcDbEntity
  8
0
  6
Continuous
 62
     7
370
    25
100
AcDbLine
 10
-67.076311726
 20
-50.1464196751
 30
0.0
 11
-66.5884163868
 21
-50.7924975178
 31
0.0
  0
LINE
  5
43E
330
1F
100
AcDbEntity
  8
0
  6
Continuous
 62
     7
370
    25
100
AcDbLine
 10
-69.7751345847
 20
-50.2735575992
 30
0.0
 11
-69.3746969236
 21
-50.8247127563
 31
0.0
  0
LINE
  5
43F
330
1F
100
AcDbEntity
  8
0
  6
Continuous
 62
     7
370
    25
100
AcDbLine
 10
-68.8834880353
 20
-47.6336023947
 30
0.0
 11
-68.4197994442
 21
-48.2972674694
 31
0.0
  0
LINE
  5
440
330
1F
100
AcDbEntity
  8
0
  6
Continuous
 62
     7
370
    25
100
AcDbLine
 10
-71.5851656972
 20
-47.66092794
 30
0.0
 11
-71.2053675203
 21
-48.2265034633
 31
0.0
  0
LINE
  5
441
330
1F
100
AcDbEntity
  8
0
  6
Continuous
 62
     7
370
    25
100
AcDbLine
 10
-70.5965777856
 20
-45.055723343
 30
0.0
 11
-70.1577292856
 21
-45.7360691631
 31
0.0
  0
LINE
  5
442
330
1F
100
AcDbEntity
  8
0
  6
Continuous
 62
     7
370
    25
100
AcDbLine
 10
-73.2974200841
 20
-44.9831991861
 30
0.0
 11
-72.9387801501
 21
-45.5624225675
 31
0.0
  0
LINE
  5
443
330
1F
100
AcDbEntity
  8
0
  6
Continuous
 62
     7
370
    25
100
AcDbLine
 10
-72.2132411025
 20
-42.4163035928
 30
0.0
 11
-71.7998321077
 21
-43.1124008877
 31
0.0
  0
LINE
  5
444
330
1F
100
AcDbEntity
  8
0
  6
Continuous
 62
     7
370
    25
100
AcDbLine
 10
-74.9095590117
 20
-42.2440287931
 30
0.0
 11
-74.5725671797
 21
-42.836108883
 31
0.0
  0
LINE
  5
445
330
1F
100
AcDbEntity
  8
0
  6
Continuous
 62
     7
370
    25
100
AcDbLine
 10
-73.7312698182
 20
-39.718948274
 30
0.0
 11
-73.3438649957
 21
-40.4298462586
 31
0.0
  0
LINE
  5
446
330
1F
100
AcDbEntity
  8
0
  6
Continuous
 62
     7
370
    25
100
AcDbLine
 10
-76.4193804923
 20
-39.447158138
 30
0.0
 11
-76.1044970525
 21
-40.0512862263
 31
0.0
  0
LINE
  5
447
330
1F
100
AcDbEntity
  8
0
  6
Continuous
 62
     7
370
    25
100
AcDbLine
 10
-75.1485904882
 20
-36.9673416495
 30
0.0
 11
-74.7877189864
 21
-37.6920693226
 31
0.0
  0
LINE
  5
448
330
1F
100
AcDbEntity
  8
0
  6
Continuous
 62
     7
370
    25
100
AcDbLine
 10
-77.8248222914
 20
-36.5964074099
 30
0.0
 11
-77.5324773367
 21
-37.2117583303
 31
0.0
  0
LINE
  5
449
330
1F
100
AcDbEntity
  8
0
  6
Continuous
 62
     7
370
    25
100
AcDbLine
 10
-76.463267223
 20
-34.165242083
 30
0.0
 11
-76.1294219488
 21
-34.9028095537
 31
0.0
  0
LINE
  5
44A
330
1F
100
AcDbEntity
  8
0
  6
Continuous
 62
     7
370
    25
100
AcDbLine
 10
-79.1239647444
 20
-33.6956703913
 30
0.0
 11
-78.8545575829
 21
-34.3214036484
 31
0.0
  0
LINE
  5
44B
330
1F
100
AcDbEntity
  8
0
  6
Continuous
 62
     7
370
    25
100
AcDbLine
 10
-77.6735043321
 20
-31.3164769054
 30
0.0
 11
-77.3671412782
 21
-32.0658767453
 31
0.0
  0
LINE
  5
44C
330
1F
100
AcDbEntity
  8
0
  6
Continuous
 62
     7
370
    25
100
AcDbLine
 10
-80.3150333792
 20
-30.7489091401
 30
0.0
 11
-80.0689319886
 21
-31.3841700576
 31
0.0
  0
LINE
  5
44D
330
1F
100
AcDbEntity
  8
0
  6
Continuous
 62
     7
370
    25
100
AcDbLine
 10
-78.7776487774
 20
-28.4249371872
 30
0.0
 11
-78.4991863987
 21
-29.1851458063
 31
0.0
  0
LINE
  5
44E
330
1F
100
AcDbEntity
  8
0
  6
Continuous
 62
     7
370
    25
100
AcDbLine
 10
-81.3964013391
 20
-27.7601485776
 30
0.0
 11
-81.1739418644
 21
-28.4040694655
 31
0.0
  0
LINE
  5
44F
330
1F
100
AcDbEntity
  8
0
  6
Continuous
 62
     7
370
    25
100
AcDbLine
 10
-79.7741924304
 20
-25.494572424
 30
0.0
 11
-79.524011073
 21
-26.2645514688
 31
0.0
  0
LINE
  5
450
330
1F
100
AcDbEntity
  8
0
  6
Continuous
 62
     7
370
    25
100
AcDbLine
 10
-82.3665916056
 20
-24.7334709913
 30
0.0
 11
-82.1680778996
 21
-25.3851723311
 31
0.0
  0
LINE
  5
451
330
1F
100
AcDbEntity
  8
0
  6
Continuous
 62
     7
370
    25
100
AcDbLine
 10
-80.6617741322
 20
-22.5293851415
 30
0.0
 11
-80.4402155138
 21
-23.3080829132
 31
0.0
  0
LINE
  5
452
330
1F
100
AcDbEntity
  8
0
  6
Continuous
 62
     7
370
    25
100
AcDbLine
 10
-83.2242790155
 20
-21.6730104588
 30
0.0
 11
-83.0499822241
 21
-22.3316021049
 31
0.0
  0
LINE
  5
453
330
1F
100
AcDbEntity
  8
0
  6
Continuous
 62
     7
370
    25
100
AcDbLine
 10
-81.439181553
 20
-19.5334254289
 30
0.0
 11
-81.2465482961
 21
-20.3197783199
 31
0.0
  0
LINE
  5
454
330
1F
100
AcDbEntity
  8
0
  6
Continuous
 62
     7
370
    25
100
AcDbLine
 10
-83.968292071
 20
-18.5829472009
 30
0.0
 11
-83.8184502627
 21
-19.2475295963
 31
0.0
  0
LINE
  5
455
330
1F
100
AcDbEntity
  8
0
  6
Continuous
 62
     7
370
    25
100
AcDbLine
 10
-82.1053528478
 20
-16.5107854067
 30
0.0
 11
-81.9419080662
 21
-17.3037193537
 31
0.0
  0
LINE
  5
456
330
1F
100
AcDbEntity
  8
0
  6
Continuous
 62
     7
370
    25
100
AcDbLine
 10
-84.5976145398
 20
-15.4675018725
 30
0.0
 11
-84.4724323804
 21
-16.1371672775
 31
0.0
  0
LINE
  5
457
330
1F
100
AcDbEntity
  8
0
  6
Continuous
 62
     7
370
    25
100
AcDbLine
 10
-82.6593781067
 20
-13.4655936377
 30
0.0
 11
-82.5253450463
 21
-14.2640255882
 31
0.0
  0
LINE
  5
458
330
1F
100
AcDbEntity
  8
0
  6
Continuous
 62
     7
370
    25
100
AcDbLine
 10
-85.111386843
 20
-12.330929797
 30
0.0
 11
-85.0110353163
 21
-13.0047635293
 31
0.0
  0
LINE
  5
459
330
1F
100
AcDbEntity
  8
0
  6
Continuous
 62
     7
370
    25
100
AcDbLine
 10
-83.1005005979
 20
-10.4020094875
 30
0.0
 11
-82.9960623318
 21
-11.2048488796
 31
0.0
  0
LINE
  5
45A
330
1F
100
AcDbEntity
  8
0
  6
Continuous
 62
     7
370
    25
100
AcDbLine
 10
-85.5089072295
 20
-9.1775151546
 30
0.0
 11
-85.4335234036
 21
-9.8545968384
 31
0.0
  0
LINE
  5
45B
330
1F
100
AcDbEntity
  8
0
  6
Continuous
 62
     7
370
    25
100
AcDbLine
 10
-83.4281178011
 20
-7.3242174435
 30
0.0
 11
-83.3534169794
 21
-8.1303676951
 31
0.0
  0
LINE
  5
45C
330
1F
100
AcDbEntity
  8
0
  6
Continuous
 62
     7
370
    25
100
AcDbLine
 10
-85.7896327343
 20
-6.0115651304
 30
0.0
 11
-85.7393195744
 21
-6.6909699536
 31
0.0
  0
LINE
  5
45D
330
1F
100
AcDbEntity
  8
0
  6
Continuous
 62
     7
370
    25
100
AcDbLine
 10
-83.6417822307
 20
-4.2364213995
 30
0.0
 11
-83.5969208857
 21
-5.0447814064
 31
0.0
  0
LINE
  5
45E
330
1F
100
AcDbEntity
  8
0
  6
Continuous
 62
     7
370
    25
100
AcDbLine
 10
-85.95317992
 20
-2.8374040314
 30
0.0
 11
-85.9280061479
 21
-3.5182040086
 31
0.0
  0
LINE
  5
45F
330
1F
100
AcDbEntity
  8
0
  6
Continuous
 62
     7
370
    25
100
AcDbLine
 10
-83.7412020466
 20
-1.1428389135
 30
0.0
 11
-83.7262414535
 21
-1.952304553
 31
0.0
  0
ARC
  5
460
330
1F
100
AcDbEntity
  8
0
  6
Continuous
 62
     7
370
    25
100
AcDbCircle
 10
-73.4955956528
 20
-31.2767161362
 30
0.0
 40
34.00000000002493
100
AcDbArc
 50
107.5381864059
 51
111.5773370545
  0
ARC
  5
461
330
1F
100
AcDbEntity
  8
0
  6
Continuous
 62
     7
370
    25
100
AcDbCircle
 10
-72.289681024
 20
33.971128478
 30
0.0
 40
34.00000000000045
100
AcDbArc
 50
246.3050158867
 51
250.3441665353
  0
ARC
  5
462
330
1F
100
AcDbEntity
  8
0
  6
Continuous
 62
     7
370
    25
100
AcDbCircle
 10
-74.6011241384
 20
-28.5395835623
 30
0.0
 40
34.00000000000904
100
AcDbArc
 50
105.4205393471
 51
109.4596899956
  0
ARC
  5
463
330
1F
100
AcDbEntity
  8
0
  6
Continuous
 62
     7
370
    25
100
AcDbCircle
 10
-70.9850273863
 20
36.6191403446
 30
0.0
 40
34.00000000001062
100
AcDbArc
 50
244.1873688279
 51
248.2265194764
  0
ARC
  5
464
330
1F
100
AcDbEntity
  8
0
  6
Continuous
 62
     7
370
    25
100
AcDbCircle
 10
-75.6047564619
 20
-25.7634693502
 30
0.0
 40
34.00000000002428
100
AcDbArc
 50
103.3028922883
 51
107.3420429368
  0
ARC
  5
465
330
1F
100
AcDbEntity
  8
0
  6
Continuous
 62
     7
370
    25
100
AcDbCircle
 10
-69.5834167398
 20
39.2171348703
 30
0.0
 40
34.0000000000062
100
AcDbArc
 50
242.0697217691
 51
246.1088724176
  0
ARC
  5
466
330
1F
100
AcDbEntity
  8
0
  6
Continuous
 62
     7
370
    25
100
AcDbCircle
 10
-76.5051217823
 20
-22.9521653379
 30
0.0
 40
34.00000000001058
100
AcDbArc
 50
101.1852452294
 51
105.224395878
  0
ARC
  5
467
330
1F
100
AcDbEntity
  8
0
  6
Continuous
 62
     7
370
    25
100
AcDbCircle
 10
-68.0867635159
 20
41.7615635069
 30
0.0
 40
33.99999999999596
100
AcDbArc
 50
239.9520747103
 51
243.9912253588
  0
ARC
  5
468
330
1F
100
AcDbEntity
  8
0
  6
Continuous
 62
     7
370
    25
100
AcDbCircle
 10
-77.3009903088
 20
-20.1095114286
 30
0.0
 40
34.00000000001724
100
AcDbArc
 50
99.0675981706
 51
103.1067488192
  0
ARC
  5
469
330
1F
100
AcDbEntity
  8
0
  6
Continuous
 62
     7
370
    25
100
AcDbCircle
 10
-66.497111963
 20
44.2489508712
 30
0.0
 40
34.00000000001046
100
AcDbArc
 50
237.8344276514
 51
241.8735783
  0
ARC
  5
46A
330
1F
100
AcDbEntity
  8
0
  6
Continuous
 62
     7
370
    25
100
AcDbCircle
 10
-77.9912749808
 20
-17.2393903455
 30
0.0
 40
34.00000000001339
100
AcDbArc
 50
96.9499511118
 51
100.9891017603
  0
ARC
  5
46B
330
1F
100
AcDbEntity
  8
0
  6
Continuous
 62
     7
370
    25
100
AcDbCircle
 10
-64.8166333538
 20
46.6758994911
 30
0.0
 40
34.00000000001332
100
AcDbArc
 50
235.7167805926
 51
239.7559312412
  0
ARC
  5
46C
330
1F
100
AcDbEntity
  8
0
  6
Continuous
 62
     7
370
    25
100
AcDbCircle
 10
-78.5750329525
 20
-14.345722329
 30
0.0
 40
34.00000000001917
100
AcDbArc
 50
94.832304053
 51
98.8714547015
  0
ARC
  5
46D
330
1F
100
AcDbEntity
  8
0
  6
Continuous
 62
     7
370
    25
100
AcDbCircle
 10
-63.0476230199
 20
49.0390944468
 30
0.0
 40
34.00000000000684
100
AcDbArc
 50
233.5991335338
 51
237.6382841823
  0
ARC
  5
46E
330
1F
100
AcDbEntity
  8
0
  6
Continuous
 62
     7
370
    25
100
AcDbCircle
 10
-79.0514668806
 20
-11.4324597812
 30
0.0
 40
34.00000000001603
100
AcDbArc
 50
92.7146569941
 51
96.7538076427
  0
ARC
  5
46F
330
1F
100
AcDbEntity
  8
0
  6
Continuous
 62
     7
370
    25
100
AcDbCircle
 10
-61.1924972168
 20
51.3353078981
 30
0.0
 40
34.00000000000715
100
AcDbArc
 50
231.481486475
 51
235.5206371235
  0
ARC
  5
470
330
1F
100
AcDbEntity
  8
0
  6
Continuous
 62
     7
370
    25
100
AcDbCircle
 10
-79.4199260137
 20
-8.5035818687
 30
0.0
 40
34.00000000002268
100
AcDbArc
 50
90.5970099353
 51
94.6361605839
  0
ARC
  5
471
330
1F
100
AcDbEntity
  8
0
  6
Continuous
 62
     7
370
    25
100
AcDbCircle
 10
-59.2537898231
 20
53.5614034938
 30
0.0
 40
33.99999999998258
100
AcDbArc
 50
229.3638394161
 51
233.4029900647
  0
ARC
  5
472
330
1F
100
AcDbEntity
  8
0
  6
Continuous
 62
     7
370
    25
100
AcDbCircle
 10
-79.679907081
 20
-5.5630890861
 30
0.0
 40
34.00000000001769
100
AcDbArc
 50
88.4793628765
 51
92.518513525
  0
ARC
  5
473
330
1F
100
AcDbEntity
  8
0
  6
Continuous
 62
     7
370
    25
100
AcDbCircle
 10
-57.2341488798
 20
55.714340655
 30
0.0
 40
34.00000000003033
100
AcDbArc
 50
227.2461923573
 51
231.2853430059
  0
ARC
  5
474
330
1F
100
AcDbEntity
  8
0
  6
Continuous
 62
     7
370
    25
100
AcDbCircle
 10
-79.8310549796
 20
-2.614997793
 30
0.0
 40
34.00000000001097
100
AcDbArc
 50
86.3617158177
 51
90.4008664662
  0
ARC
  5
475
330
1F
100
AcDbEntity
  8
0
  6
Continuous
 62
     7
370
    25
100
AcDbCircle
 10
-55.1363329737
 20
57.7911787285
 30
0.0
 40
34.00000000000774
100
AcDbArc
 50
225.1285452985
 51
229.167695947
  0
ARC
  5
476
330
1F
100
AcDbEntity
  8
0
  6
Continuous
 62
     7
370
    25
100
AcDbCircle
 10
-79.8731632597
 20
0.3366652725
 30
0.0
 40
34.00000000003484
100
AcDbArc
 50
84.2440687589
 51
88.2832194074
  0
ARC
  5
477
330
1F
100
AcDbEntity
  8
0
  6
Continuous
 62
     7
370
    25
100
AcDbCircle
 10
-52.9632074688
 20
59.7890810034
 30
0.0
 40
34.00000000001709
100
AcDbArc
 50
223.0108982397
 51
227.0500488882
  0
ARC
  5
478
330
1F
100
AcDbEntity
  8
0
  6
Continuous
 62
     7
370
    25
100
AcDbCircle
 10
-79.8061744064
 20
3.2878684938
 30
0.0
 40
34.00000000000485
100
AcDbArc
 50
82.1264217
 51
86.1655723486
  0
ARC
  5
479
330
1F
100
AcDbEntity
  8
0
  6
Continuous
 62
     7
370
    25
100
AcDbCircle
 10
-50.7177405933
 20
61.7053185854
 30
0.0
 40
33.99999999999637
100
AcDbArc
 50
220.8932511808
 51
224.9324018294
  0
ARC
  5
47A
330
1F
100
AcDbEntity
  8
0
  6
Continuous
 62
     7
370
    25
100
AcDbCircle
 10
-79.6301799184
 20
6.2345808822
 30
0.0
 40
34.00000000001772
100
AcDbArc
 50
80.0087746412
 51
84.0479252897
  0
ARC
  5
47B
330
1F
100
AcDbEntity
  8
0
  6
Continuous
 62
     7
370
    25
100
AcDbCircle
 10
-48.4029993848
 20
63.5372741245
 30
0.0
 40
33.99999999998847
100
AcDbArc
 50
218.775604122
 51
222.8147547706
  0
ARC
  5
47C
330
1F
100
AcDbEntity
  8
0
  6
Continuous
 62
     7
370
    25
100
AcDbCircle
 10
-79.3454201831
 20
9.172777583
 30
0.0
 40
34.00000000000713
100
AcDbArc
 50
77.8911275824
 51
81.9302782309
  0
ARC
  5
47D
330
1F
100
AcDbEntity
  8
0
  6
Continuous
 62
     7
370
    25
100
AcDbCircle
 10
-46.0221455013
 20
65.2824453898
 30
0.0
 40
33.99999999999998
100
AcDbArc
 50
216.6579570632
 51
220.6971077117
  0
ARC
  5
47E
330
1F
100
AcDbEntity
  8
0
  6
Continuous
 62
     7
370
    25
100
AcDbCircle
 10
-78.9522841479
 20
12.0984453731
 30
0.0
 40
34.00000000000941
100
AcDbArc
 50
75.7734805236
 51
79.8126311721
  0
ARC
  5
47F
330
1F
100
AcDbEntity
  8
0
  6
Continuous
 62
     7
370
    25
100
AcDbCircle
 10
-43.5784309029
 20
66.9384486873
 30
0.0
 40
34.00000000001167
100
AcDbArc
 50
214.5403100044
 51
218.5794606529
  0
ARC
  5
480
330
1F
100
AcDbEntity
  8
0
  6
Continuous
 62
     7
370
    25
100
AcDbCircle
 10
-78.4513087895
 20
15.007588142
 30
0.0
 40
34.00000000001942
100
AcDbArc
 50
73.6558334647
 51
77.6949841133
  0
ARC
  5
481
330
1F
100
AcDbEntity
  8
0
  6
Continuous
 62
     7
370
    25
100
AcDbCircle
 10
-41.0751934098
 20
68.5030221156
 30
0.0
 40
33.99999999999191
100
AcDbArc
 50
212.4226629455
 51
216.4618135941
  0
ARC
  5
482
330
1F
100
AcDbEntity
  8
0
  6
Continuous
 62
     7
370
    25
100
AcDbCircle
 10
-77.8431783798
 20
17.8962323507
 30
0.0
 40
33.99999999999753
100
AcDbArc
 50
71.5381864059
 51
75.5773370545
  0
ARC
  5
483
330
1F
100
AcDbEntity
  8
0
  6
Continuous
 62
     7
370
    25
100
AcDbCircle
 10
-38.5158521432
 20
69.9740286556
 30
0.0
 40
33.99999999998154
100
AcDbArc
 50
210.3050158867
 51
214.3441665353
  0
ARC
  5
484
330
1F
100
AcDbEntity
  8
0
  6
Continuous
 62
     7
370
    25
100
AcDbCircle
 10
-77.1287235519
 20
20.7604324587
 30
0.0
 40
34.00000000002196
100
AcDbArc
 50
69.4205393471
 51
73.4596899956
  0
ARC
  5
485
330
1F
100
AcDbEntity
  8
0
  6
Continuous
 62
     7
370
    25
100
AcDbCircle
 10
-35.9039028555
 20
71.3494590895
 30
0.0
 40
34.00000000000841
100
AcDbArc
 50
208.1873688279
 51
212.2265194764
  0
ARC
  5
486
330
1F
100
AcDbEntity
  8
0
  6
Continuous
 62
     7
370
    25
100
AcDbCircle
 10
-76.3089201652
 20
23.5962763131
 30
0.0
 40
34.00000000001523
100
AcDbArc
 50
67.3028922883
 51
71.3420429368
  0
ARC
  5
487
330
1F
100
AcDbEntity
  8
0
  6
Continuous
 62
     7
370
    25
100
AcDbCircle
 10
-33.2429131553
 20
72.6274347445
 30
0.0
 40
34.00000000003094
100
AcDbArc
 50
206.0697217691
 51
210.1088724176
  0
ARC
  5
488
330
1F
100
AcDbEntity
  8
0
  6
Continuous
 62
     7
370
    25
100
AcDbCircle
 10
-75.3848879724
 20
26.3998904924
 30
0.0
 40
34.00000000000565
100
AcDbArc
 50
65.1852452294
 51
69.224395878
  0
ARC
  5
489
330
1F
100
AcDbEntity
  8
0
  6
Continuous
 62
     7
370
    25
100
AcDbCircle
 10
-30.5365176343
 20
73.8062100598
 30
0.0
 40
34.00000000001866
100
AcDbArc
 50
203.9520747103
 51
207.9912253588
  0
ARC
  5
48A
330
1F
100
AcDbEntity
  8
0
  6
Continuous
 62
     7
370
    25
100
AcDbCircle
 10
-74.3578890904
 20
29.1674455968
 30
0.0
 40
34.00000000001369
100
AcDbArc
 50
63.0675981706
 51
67.1067488192
  0
ARC
  5
48B
330
1F
100
AcDbEntity
  8
0
  6
Continuous
 62
     7
370
    25
100
AcDbCircle
 10
-27.7884129034
 20
74.8841749699
 30
0.0
 40
34.00000000000198
100
AcDbArc
 50
201.8344276514
 51
205.8735783
  0
ARC
  5
48C
330
1F
100
AcDbEntity
  8
0
  6
Continuous
 62
     7
370
    25
100
AcDbCircle
 10
-73.2293262761
 20
31.895161479
 30
0.0
 40
34.00000000000724
100
AcDbArc
 50
60.9499511118
 51
64.9891017603
  0
ARC
  5
48D
330
1F
100
AcDbEntity
  8
0
  6
Continuous
 62
     7
370
    25
100
AcDbCircle
 10
-25.002352543
 20
75.8598571046
 30
0.0
 40
34.00000000000983
100
AcDbArc
 50
199.7167805926
 51
203.7559312412
  0
ARC
  5
48E
330
1F
100
AcDbEntity
  8
0
  6
Continuous
 62
     7
370
    25
100
AcDbCircle
 10
-72.0007410105
 20
34.5793124072
 30
0.0
 40
34.00000000000641
100
AcDbArc
 50
58.832304053
 51
62.8714547015
  0
ARC
  5
48F
330
1F
100
AcDbEntity
  8
0
  6
Continuous
 62
     7
370
    25
100
AcDbCircle
 10
-22.1821419765
 20
76.7319237994
 30
0.0
 40
34.00000000000424
100
AcDbArc
 50
197.5991335338
 51
201.6382841823
  0
ARC
  5
490
330
1F
100
AcDbEntity
  8
0
  6
Continuous
 62
     7
370
    25
100
AcDbCircle
 10
-70.6738113935
 20
37.216232154
 30
0.0
 40
33.99999999998727
100
AcDbArc
 50
56.7146569941
 51
60.7538076427
  0
ARC
  5
491
330
1F
100
AcDbEntity
  8
0
  6
Continuous
 62
     7
370
    25
100
AcDbCircle
 10
-19.3316332722
 20
77.499183916
 30
0.0
 40
33.99999999999449
100
AcDbArc
 50
195.481486475
 51
199.5206371235
  0
ARC
  5
492
330
1F
100
AcDbEntity
  8
0
  6
Continuous
 62
     7
370
    25
100
AcDbCircle
 10
-69.2503498511
 20
39.8023190042
 30
0.0
 40
33.99999999999999
100
AcDbArc
 50
54.5970099353
 51
58.6361605839
  0
ARC
  5
493
330
1F
100
AcDbEntity
  8
0
  6
Continuous
 62
     7
370
    25
100
AcDbCircle
 10
-16.4547198822
 20
78.1605894695
 30
0.0
 40
34.00000000001495
100
AcDbArc
 50
193.3638394161
 51
197.4029900647
  0
ARC
  5
494
330
1F
100
AcDbEntity
  8
0
  6
Continuous
 62
     7
370
    25
100
AcDbCircle
 10
-67.7323006608
 20
42.3340406744
 30
0.0
 40
34.0000000000229
100
AcDbArc
 50
52.4793628765
 51
56.518513525
  0
ARC
  5
495
330
1F
100
AcDbEntity
  8
0
  6
Continuous
 62
     7
370
    25
100
AcDbCircle
 10
-13.5553313241
 20
78.7152370594
 30
0.0
 40
34.0000000000133
100
AcDbArc
 50
191.2461923573
 51
195.2853430059
  0
ARC
  5
496
330
1F
100
AcDbEntity
  8
0
  6
Continuous
 62
     7
370
    25
100
AcDbCircle
 10
-66.1217372949
 20
44.8079391372
 30
0.0
 40
34.0000000000198
100
AcDbArc
 50
50.3617158177
 51
54.4008664662
  0
ARC
  5
497
330
1F
100
AcDbEntity
  8
0
  6
Continuous
 62
     7
370
    25
100
AcDbCircle
 10
-10.637427814
 20
79.1623691038
 30
0.0
 40
34.00000000000443
100
AcDbArc
 50
189.1285452985
 51
193.167695947
  0
ARC
  5
498
330
1F
100
AcDbEntity
  8
0
  6
Continuous
 62
     7
370
    25
100
AcDbCircle
 10
-64.4208595894
 20
47.2206353449
 30
0.0
 40
34.00000000001696
100
AcDbArc
 50
48.2440687589
 51
52.2832194074
  0
ARC
  5
499
330
1F
100
AcDbEntity
  8
0
  6
Continuous
 62
     7
370
    25
100
AcDbCircle
 10
-7.704994857
 20
79.5013748741
 30
0.0
 40
34.0000000000154
100
AcDbArc
 50
187.0108982397
 51
191.0500488882
  0
ARC
  5
49A
330
1F
100
AcDbEntity
  8
0
  6
Continuous
 62
     7
370
    25
100
AcDbCircle
 10
-62.6319907387
 20
49.5688338447
 30
0.0
 40
34.00000000001711
100
AcDbArc
 50
46.1264217
 51
50.1655723486
  0
ARC
  5
49B
330
1F
100
AcDbEntity
  8
0
  6
Continuous
 62
     7
370
    25
100
AcDbCircle
 10
-4.7620378038
 20
79.7317913293
 30
0.0
 40
34.00000000000665
100
AcDbArc
 50
184.8932511808
 51
188.9324018294
  0
ARC
  5
49C
330
1F
100
AcDbEntity
  8
0
  6
Continuous
 62
     7
370
    25
100
AcDbCircle
 10
-60.7575741224
 20
51.84932728
 30
0.0
 40
34.00000000003254
100
AcDbArc
 50
44.0087746412
 51
48.0479252897
  0
ARC
  5
49D
330
1F
100
AcDbEntity
  8
0
  6
Continuous
 62
     7
370
    25
100
AcDbCircle
 10
-1.8125763798
 20
79.8533037481
 30
0.0
 40
34.00000000000109
100
AcDbArc
 50
182.775604122
 51
186.8147547706
  0
ARC
  5
49E
330
1F
100
AcDbEntity
  8
0
  6
Continuous
 62
     7
370
    25
100
AcDbCircle
 10
-58.8001699681
 20
54.0590007709
 30
0.0
 40
34.00000000000284
100
AcDbArc
 50
41.8911275824
 51
45.9302782309
  0
ARC
  5
49F
330
1F
100
AcDbEntity
  8
0
  6
Continuous
 62
     7
370
    25
100
AcDbCircle
 10
1.1393608055
 20
79.8657461593
 30
0.0
 40
34.00000000000132
100
AcDbArc
 50
180.6579570632
 51
184.6971077117
  0
ARC
  5
4A0
330
1F
100
AcDbEntity
  8
0
  6
Continuous
 62
     7
370
    25
100
AcDbCircle
 10
-56.7624518544
 20
56.1948361693
 30
0.0
 40
34.00000000000414
100
AcDbArc
 50
39.7734805236
 51
43.8126311721
  0
ARC
  5
4A1
330
1F
100
AcDbEntity
  8
0
  6
Continuous
 62
     7
370
    25
100
AcDbCircle
 10
4.0897417611
 20
79.7691015679
 30
0.0
 40
33.99999999999856
100
AcDbArc
 50
178.5403100044
 51
182.5794606529
  0
ARC
  5
4A2
330
1F
100
AcDbEntity
  8
0
  6
Continuous
 62
     7
370
    25
100
AcDbCircle
 10
-54.6472030593
 20
58.2539161809
 30
0.0
 40
34.00000000002462
100
AcDbArc
 50
37.6558334647
 51
41.6949841133
  0
ARC
  5
4A3
330
1F
100
AcDbEntity
  8
0
  6
Continuous
 62
     7
370
    25
100
AcDbCircle
 10
7.0345366213
 20
79.5635019789
 30
0.0
 40
34.00000000000335
100
AcDbArc
 50
176.4226629455
 51
180.4618135941
  0
ARC
  5
4A4
330
1F
100
AcDbEntity
  8
0
  6
Continuous
 62
     7
370
    25
100
AcDbCircle
 10
-52.4573127581
 20
60.2334283502
 30
0.0
 40
33.99999999999719
100
AcDbArc
 50
35.5381864059
 51
39.5773370545
  0
ARC
  5
4A5
330
1F
100
AcDbEntity
  8
0
  6
Continuous
 62
     7
370
    25
100
AcDbCircle
 10
9.9697231506
 20
79.2492282166
 30
0.0
 40
34.00000000002336
100
AcDbArc
 50
174.3050158867
 51
178.3441665353
  0
ARC
  5
4A6
330
1F
100
AcDbEntity
  8
0
  6
Continuous
 62
     7
370
    25
100
AcDbCircle
 10
-50.1957720775
 20
62.1306689016
 30
0.0
 40
34.00000000002885
100
AcDbArc
 50
33.4205393471
 51
37.4596899956
  0
ARC
  5
4A7
330
1F
100
AcDbEntity
  8
0
  6
Continuous
 62
     7
370
    25
100
AcDbCircle
 10
12.8912922373
 20
78.8267095411
 30
0.0
 40
34.00000000000197
100
AcDbArc
 50
172.1873688279
 51
176.2265194764
  0
ARC
  5
4A8
330
1F
100
AcDbEntity
  8
0
  6
Continuous
 62
     7
370
    25
100
AcDbCircle
 10
-47.8656700102
 20
63.9430464327
 30
0.0
 40
34.00000000001876
100
AcDbArc
 50
31.3028922883
 51
35.3420429368
  0
ARC
  5
4A9
330
1F
100
AcDbEntity
  8
0
  6
Continuous
 62
     7
370
    25
100
AcDbCircle
 10
15.7952533695
 20
78.2965230621
 30
0.0
 40
34.00000000001036
100
AcDbArc
 50
170.0697217691
 51
174.1088724176
  0
ARC
  5
4AA
330
1F
100
AcDbEntity
  8
0
  6
Continuous
 62
     7
370
    25
100
AcDbCircle
 10
-45.4701891951
 20
65.6680854539
 30
0.0
 40
34.00000000000998
100
AcDbArc
 50
29.1852452294
 51
33.224395878
  0
ARC
  5
4AB
330
1F
100
AcDbEntity
  8
0
  6
Continuous
 62
     7
370
    25
100
AcDbCircle
 10
18.6776400855
 20
77.6593929506
 30
0.0
 40
34.00000000000455
100
AcDbArc
 50
167.9520747103
 51
171.9912253588
  0
ARC
  5
4AC
330
1F
100
AcDbEntity
  8
0
  6
Continuous
 62
     7
370
    25
100
AcDbCircle
 10
-43.0126015711
 20
67.3034297693
 30
0.0
 40
34.00000000000589
100
AcDbArc
 50
27.0675981706
 51
31.1067488192
  0
ARC
  5
4AD
330
1F
100
AcDbEntity
  8
0
  6
Continuous
 62
     7
370
    25
100
AcDbCircle
 10
21.5345153919
 20
76.9161894497
 30
0.0
 40
34.0000000000021
100
AcDbArc
 50
165.8344276514
 51
169.8735783
  0
ARC
  5
4AE
330
1F
100
AcDbEntity
  8
0
  6
Continuous
 62
     7
370
    25
100
AcDbCircle
 10
-40.4962639071
 20
68.8468456952
 30
0.0
 40
34.00000000001017
100
AcDbArc
 50
24.9499511118
 51
28.9891017603
  0
ARC
  5
4AF
330
1F
100
AcDbEntity
  8
0
  6
Continuous
 62
     7
370
    25
100
AcDbCircle
 10
24.3619771405
 20
76.0679276859
 30
0.0
 40
34.00000000000884
100
AcDbArc
 50
163.7167805926
 51
167.7559312411
  0
ARC
  5
4B0
330
1F
100
AcDbEntity
  8
0
  6
Continuous
 62
     7
370
    25
100
AcDbCircle
 10
-37.9246132178
 20
70.2962251113
 30
0.0
 40
34.00000000000193
100
AcDbArc
 50
22.832304053
 51
26.8714547015
  0
ARC
  5
4B1
330
1F
100
AcDbEntity
  8
0
  6
Continuous
 62
     7
370
    25
100
AcDbCircle
 10
27.1561633587
 20
75.1157662828
 30
0.0
 40
34.00000000001311
100
AcDbArc
 50
161.5991335338
 51
165.6382841823
  0
ARC
  5
4B2
330
1F
100
AcDbEntity
  8
0
  6
Continuous
 62
     7
370
    25
100
AcDbCircle
 10
-35.3011620686
 20
71.6495883395
 30
0.0
 40
34.00000000000938
100
AcDbArc
 50
20.7146569941
 51
24.7538076427
  0
ARC
  5
4B3
330
1F
100
AcDbEntity
  8
0
  6
Continuous
 62
     7
370
    25
100
AcDbCircle
 10
29.9132575243
 20
74.0610057784
 30
0.0
 40
34.00000000000305
100
AcDbArc
 50
159.481486475
 51
163.5206371235
  0
ARC
  5
4B4
330
1F
100
AcDbEntity
  8
0
  6
Continuous
 62
     7
370
    25
100
AcDbCircle
 10
-32.6294937783
 20
72.9050868485
 30
0.0
 40
34.00000000002322
100
AcDbArc
 50
18.5970099353
 51
22.6361605839
  0
ARC
  5
4B5
330
1F
100
AcDbEntity
  8
0
  6
Continuous
 62
     7
370
    25
100
AcDbCircle
 10
32.6294937783
 20
72.9050868485
 30
0.0
 40
34.00000000000529
100
AcDbArc
 50
157.3638394161
 51
161.4029900647
  0
ARC
  5
4B6
330
1F
100
AcDbEntity
  8
0
  6
Continuous
 62
     7
370
    25
100
AcDbCircle
 10
-29.9132575243
 20
74.0610057784
 30
0.0
 40
34.00000000001373
100
AcDbArc
 50
16.4793628765
 51
20.518513525
  0
ARC
  5
4B7
330
1F
100
AcDbEntity
  8
0
  6
Continuous
 62
     7
370
    25
100
AcDbCircle
 10
35.3011620686
 20
71.6495883396
 30
0.0
 40
33.99999999999506
100
AcDbArc
 50
155.2461923573
 51
159.2853430059
  0
ARC
  5
4B8
330
1F
100
AcDbEntity
  8
0
  6
Continuous
 62
     7
370
    25
100
AcDbCircle
 10
-27.1561633587
 20
75.1157662828
 30
0.0
 40
34.00000000001729
100
AcDbArc
 50
14.3617158177
 51
18.4008664662
  0
ARC
  5
4B9
330
1F
100
AcDbEntity
  8
0
  6
Continuous
 62
     7
370
    25
100
AcDbCircle
 10
37.9246132178
 20
70.2962251113
 30
0.0
 40
34.00000000000748
100
AcDbArc
 50
153.1285452985
 51
157.167695947
  0
ARC
  5
4BA
330
1F
100
AcDbEntity
  8
0
  6
Continuous
 62
     7
370
    25
100
AcDbCircle
 10
-24.3619771405
 20
76.0679276859
 30
0.0
 40
34.00000000001049
100
AcDbArc
 50
12.2440687589
 51
16.2832194074
  0
ARC
  5
4BB
330
1F
100
AcDbEntity
  8
0
  6
Continuous
 62
     7
370
    25
100
AcDbCircle
 10
40.4962639071
 20
68.8468456952
 30
0.0
 40
34.00000000001354
100
AcDbArc
 50
151.0108982397
 51
155.0500488882
  0
ARC
  5
4BC
330
1F
100
AcDbEntity
  8
0
  6
Continuous
 62
     7
370
    25
100
AcDbCircle
 10
-21.5345153919
 20
76.9161894497
 30
0.0
 40
34.00000000001574
100
AcDbArc
 50
10.1264217
 51
14.1655723486
  0
ARC
  5
4BD
330
1F
100
AcDbEntity
  8
0
  6
Continuous
 62
     7
370
    25
100
AcDbCircle
 10
43.0126015711
 20
67.3034297693
 30
0.0
 40
34.000000000014
100
AcDbArc
 50
148.8932511808
 51
152.9324018294
  0
ARC
  5
4BE
330
1F
100
AcDbEntity
  8
0
  6
Continuous
 62
     7
370
    25
100
AcDbCircle
 10
-18.6776400855
 20
77.6593929506
 30
0.0
 40
34.00000000001463
100
AcDbArc
 50
8.0087746412
 51
12.0479252897
  0
ARC
  5
4BF
330
1F
100
AcDbEntity
  8
0
  6
Continuous
 62
     7
370
    25
100
AcDbCircle
 10
45.4701891951
 20
65.6680854539
 30
0.0
 40
34.0000000000015
100
AcDbArc
 50
146.775604122
 51
150.8147547706
  0
ARC
  5
4C0
330
1F
100
AcDbEntity
  8
0
  6
Continuous
 62
     7
370
    25
100
AcDbCircle
 10
-15.7952533695
 20
78.2965230621
 30
0.0
 40
34.00000000000733
100
AcDbArc
 50
5.8911275824
 51
9.9302782309
  0
ARC
  5
4C1
330
1F
100
AcDbEntity
  8
0
  6
Continuous
 62
     7
370
    25
100
AcDbCircle
 10
47.8656700102
 20
63.9430464327
 30
0.0
 40
34.00000000001072
100
AcDbArc
 50
144.6579570632
 51
148.6971077117
  0
ARC
  5
4C2
330
1F
100
AcDbEntity
  8
0
  6
Continuous
 62
     7
370
    25
100
AcDbCircle
 10
-12.8912922373
 20
78.8267095411
 30
0.0
 40
34.00000000001772
100
AcDbArc
 50
3.7734805236
 51
7.8126311721
  0
ARC
  5
4C3
330
1F
100
AcDbEntity
  8
0
  6
Continuous
 62
     7
370
    25
100
AcDbCircle
 10
50.1957720775
 20
62.1306689016
 30
0.0
 40
34.00000000001778
100
AcDbArc
 50
142.5403100044
 51
146.5794606529
  0
ARC
  5
4C4
330
1F
100
AcDbEntity
  8
0
  6
Continuous
 62
     7
370
    25
100
AcDbCircle
 10
-9.9697231506
 20
79.2492282166
 30
0.0
 40
34.00000000001296
100
AcDbArc
 50
1.6558334647
 51
5.6949841133
  0
ARC
  5
4C5
330
1F
100
AcDbEntity
  8
0
  6
Continuous
 62
     7
370
    25
100
AcDbCircle
 10
52.4573127581
 20
60.2334283502
 30
0.0
 40
34.00000000001032
100
AcDbArc
 50
140.4226629455
 51
144.4618135941
  0
ARC
  5
4C6
330
1F
100
AcDbEntity
  8
0
  6
Continuous
 62
     7
370
    25
100
AcDbCircle
 10
-7.0345366213
 20
79.5635019789
 30
0.0
 40
34.00000000001501
100
AcDbArc
 50
359.5381864059
 51
3.5773370545
  0
ARC
  5
4C7
330
1F
100
AcDbEntity
  8
0
  6
Continuous
 62
     7
370
    25
100
AcDbCircle
 10
54.6472030593
 20
58.2539161809
 30
0.0
 40
34.0000000000159
100
AcDbArc
 50
138.3050158867
 51
142.3441665353
  0
ARC
  5
4C8
330
1F
100
AcDbEntity
  8
0
  6
Continuous
 62
     7
370
    25
100
AcDbCircle
 10
-4.0897417611
 20
79.7691015679
 30
0.0
 40
34.00000000001425
100
AcDbArc
 50
357.4205393471
 51
1.4596899956
  0
ARC
  5
4C9
330
1F
100
AcDbEntity
  8
0
  6
Continuous
 62
     7
370
    25
100
AcDbCircle
 10
56.7624518544
 20
56.1948361693
 30
0.0
 40
34.00000000001039
100
AcDbArc
 50
136.1873688279
 51
140.2265194764
  0
ARC
  5
4CA
330
1F
100
AcDbEntity
  8
0
  6
Continuous
 62
     7
370
    25
100
AcDbCircle
 10
-1.1393608056
 20
79.8657461593
 30
0.0
 40
34.00000000002132
100
AcDbArc
 50
355.3028922883
 51
359.3420429368
  0
ARC
  5
4CB
330
1F
100
AcDbEntity
  8
0
  6
Continuous
 62
     7
370
    25
100
AcDbCircle
 10
58.8001699681
 20
54.0590007709
 30
0.0
 40
34.00000000001381
100
AcDbArc
 50
134.0697217691
 51
138.1088724176
  0
ARC
  5
4CC
330
1F
100
AcDbEntity
  8
0
  6
Continuous
 62
     7
370
    25
100
AcDbCircle
 10
1.8125763798
 20
79.8533037481
 30
0.0
 40
34.000000000022
100
AcDbArc
 50
353.1852452294
 51
357.224395878
  0
ARC
  5
4CD
330
1F
100
AcDbEntity
  8
0
  6
Continuous
 62
     7
370
    25
100
AcDbCircle
 10
60.7575741223
 20
51.84932728
 30
0.0
 40
33.99999999998995
100
AcDbArc
 50
131.9520747103
 51
135.9912253588
  0
ARC
  5
4CE
330
1F
100
AcDbEntity
  8
0
  6
Continuous
 62
     7
370
    25
100
AcDbCircle
 10
4.7620378038
 20
79.7317913293
 30
0.0
 40
34.00000000003164
100
AcDbArc
 50
351.0675981706
 51
355.1067488192
  0
ARC
  5
4CF
330
1F
100
AcDbEntity
  8
0
  6
Continuous
 62
     7
370
    25
100
AcDbCircle
 10
62.6319907387
 20
49.5688338447
 30
0.0
 40
34.0000000000061
100
AcDbArc
 50
129.8344276514
 51
133.8735783
  0
ARC
  5
4D0
330
1F
100
AcDbEntity
  8
0
  6
Continuous
 62
     7
370
    25
100
AcDbCircle
 10
7.704994857
 20
79.5013748741
 30
0.0
 40
34.00000000000758
100
AcDbArc
 50
348.9499511118
 51
352.9891017603
  0
ARC
  5
4D1
330
1F
100
AcDbEntity
  8
0
  6
Continuous
 62
     7
370
    25
100
AcDbCircle
 10
64.4208595894
 20
47.2206353449
 30
0.0
 40
34.00000000000537
100
AcDbArc
 50
127.7167805926
 51
131.7559312412
  0
ARC
  5
4D2
330
1F
100
AcDbEntity
  8
0
  6
Continuous
 62
     7
370
    25
100
AcDbCircle
 10
10.637427814
 20
79.1623691038
 30
0.0
 40
34.00000000001644
100
AcDbArc
 50
346.832304053
 51
350.8714547015
  0
ARC
  5
4D3
330
1F
100
AcDbEntity
  8
0
  6
Continuous
 62
     7
370
    25
100
AcDbCircle
 10
66.1217372949
 20
44.8079391372
 30
0.0
 40
34.00000000000914
100
AcDbArc
 50
125.5991335338
 51
129.6382841823
  0
ARC
  5
4D4
330
1F
100
AcDbEntity
  8
0
  6
Continuous
 62
     7
370
    25
100
AcDbCircle
 10
13.5553313241
 20
78.7152370594
 30
0.0
 40
34.00000000000938
100
AcDbArc
 50
344.7146569941
 51
348.7538076427
  0
ARC
  5
4D5
330
1F
100
AcDbEntity
  8
0
  6
Continuous
 62
     7
370
    25
100
AcDbCircle
 10
67.7323006607
 20
42.3340406744
 30
0.0
 40
34.00000000000468
100
AcDbArc
 50
123.481486475
 51
127.5206371235
  0
ARC
  5
4D6
330
1F
100
AcDbEntity
  8
0
  6
Continuous
 62
     7
370
    25
100
AcDbCircle
 10
16.4547198822
 20
78.1605894695
 30
0.0
 40
33.9999999999979
100
AcDbArc
 50
342.5970099353
 51
346.6361605839
  0
ARC
  5
4D7
330
1F
100
AcDbEntity
  8
0
  6
Continuous
 62
     7
370
    25
100
AcDbCircle
 10
69.2503498511
 20
39.8023190042
 30
0.0
 40
34.00000000000338
100
AcDbArc
 50
121.3638394161
 51
125.4029900647
  0
ARC
  5
4D8
330
1F
100
AcDbEntity
  8
0
  6
Continuous
 62
     7
370
    25
100
AcDbCircle
 10
19.3316332722
 20
77.499183916
 30
0.0
 40
34.00000000002759
100
AcDbArc
 50
340.4793628765
 51
344.518513525
  0
ARC
  5
4D9
330
1F
100
AcDbEntity
  8
0
  6
Continuous
 62
     7
370
    25
100
AcDbCircle
 10
70.6738113935
 20
37.216232154
 30
0.0
 40
34.0000000000031
100
AcDbArc
 50
119.2461923573
 51
123.2853430059
  0
ARC
  5
4DA
330
1F
100
AcDbEntity
  8
0
  6
Continuous
 62
     7
370
    25
100
AcDbCircle
 10
22.1821419765
 20
76.7319237994
 30
0.0
 40
34.00000000001765
100
AcDbArc
 50
338.3617158177
 51
342.4008664662
  0
ARC
  5
4DB
330
1F
100
AcDbEntity
  8
0
  6
Continuous
 62
     7
370
    25
100
AcDbCircle
 10
72.0007410105
 20
34.5793124072
 30
0.0
 40
34.00000000000183
100
AcDbArc
 50
117.1285452985
 51
121.167695947
  0
ARC
  5
4DC
330
1F
100
AcDbEntity
  8
0
  6
Continuous
 62
     7
370
    25
100
AcDbCircle
 10
25.002352543
 20
75.8598571046
 30
0.0
 40
34.00000000001747
100
AcDbArc
 50
336.2440687589
 51
340.2832194074
  0
ARC
  5
4DD
330
1F
100
AcDbEntity
  8
0
  6
Continuous
 62
     7
370
    25
100
AcDbCircle
 10
73.2293262761
 20
31.895161479
 30
0.0
 40
34.00000000000281
100
AcDbArc
 50
115.0108982397
 51
119.0500488882
  0
ARC
  5
4DE
330
1F
100
AcDbEntity
  8
0
  6
Continuous
 62
     7
370
    25
100
AcDbCircle
 10
27.7884129034
 20
74.8841749699
 30
0.0
 40
34.00000000000642
100
AcDbArc
 50
334.1264217
 51
338.1655723486
  0
ARC
  5
4DF
330
1F
100
AcDbEntity
  8
0
  6
Continuous
 62
     7
370
    25
100
AcDbCircle
 10
74.3578890904
 20
29.1674455968
 30
0.0
 40
34.0000000000149
100
AcDbArc
 50
112.8932511808
 51
116.9324018294
  0
ARC
  5
4E0
330
1F
100
AcDbEntity
  8
0
  6
Continuous
 62
     7
370
    25
100
AcDbCircle
 10
30.5365176343
 20
73.8062100598
 30
0.0
 40
34.00000000000109
100
AcDbArc
 50
332.0087746412
 51
336.0479252898
  0
ARC
  5
4E1
330
1F
100
AcDbEntity
  8
0
  6
Continuous
 62
     7
370
    25
100
AcDbCircle
 10
75.3848879724
 20
26.3998904924
 30
0.0
 40
34.00000000000229
100
AcDbArc
 50
110.775604122
 51
114.8147547706
  0
ARC
  5
4E2
330
1F
100
AcDbEntity
  8
0
  6
Continuous
 62
     7
370
    25
100
AcDbCircle
 10
33.2429131553
 20
72.6274347445
 30
0.0
 40
34.00000000000153
100
AcDbArc
 50
329.8911275824
 51
333.9302782309
  0
ARC
  5
4E3
330
1F
100
AcDbEntity
  8
0
  6
Continuous
 62
     7
370
    25
100
AcDbCircle
 10
76.3089201652
 20
23.5962763131
 30
0.0
 40
34.00000000001033
100
AcDbArc
 50
108.6579570632
 51
112.6971077117
  0
ARC
  5
4E4
330
1F
100
AcDbEntity
  8
0
  6
Continuous
 62
     7
370
    25
100
AcDbCircle
 10
35.9039028555
 20
71.3494590895
 30
0.0
 40
34.00000000002506
100
AcDbArc
 50
327.7734805236
 51
331.8126311721
  0
ARC
  5
4E5
330
1F
100
AcDbEntity
  8
0
  6
Continuous
 62
     7
370
    25
100
AcDbCircle
 10
77.1287235519
 20
20.7604324587
 30
0.0
 40
34.00000000000909
100
AcDbArc
 50
106.5403100044
 51
110.5794606529
  0
ARC
  5
4E6
330
1F
100
AcDbEntity
  8
0
  6
Continuous
 62
     7
370
    25
100
AcDbCircle
 10
38.5158521432
 20
69.9740286557
 30
0.0
 40
34.000000000009
100
AcDbArc
 50
325.6558334647
 51
329.6949841133
  0
ARC
  5
4E7
330
1F
100
AcDbEntity
  8
0
  6
Continuous
 62
     7
370
    25
100
AcDbCircle
 10
77.8431783798
 20
17.8962323507
 30
0.0
 40
34.00000000001445
100
AcDbArc
 50
104.4226629455
 51
108.4618135941
  0
ARC
  5
4E8
330
1F
100
AcDbEntity
  8
0
  6
Continuous
 62
     7
370
    25
100
AcDbCircle
 10
41.0751934097
 20
68.5030221156
 30
0.0
 40
34.00000000003894
100
AcDbArc
 50
323.5381864059
 51
327.5773370545
  0
ARC
  5
4E9
330
1F
100
AcDbEntity
  8
0
  6
Continuous
 62
     7
370
    25
100
AcDbCircle
 10
78.4513087895
 20
15.007588142
 30
0.0
 40
34.00000000000525
100
AcDbArc
 50
102.3050158867
 51
106.3441665353
  0
ARC
  5
4EA
330
1F
100
AcDbEntity
  8
0
  6
Continuous
 62
     7
370
    25
100
AcDbCircle
 10
43.5784309029
 20
66.9384486873
 30
0.0
 40
34.0000000000149
100
AcDbArc
 50
321.4205393471
 51
325.4596899956
  0
ARC
  5
4EB
330
1F
100
AcDbEntity
  8
0
  6
Continuous
 62
     7
370
    25
100
AcDbCircle
 10
78.9522841479
 20
12.0984453731
 30
0.0
 40
34.00000000000409
100
AcDbArc
 50
100.1873688279
 51
104.2265194764
  0
ARC
  5
4EC
330
1F
100
AcDbEntity
  8
0
  6
Continuous
 62
     7
370
    25
100
AcDbCircle
 10
46.0221455013
 20
65.2824453898
 30
0.0
 40
34.00000000003872
100
AcDbArc
 50
319.3028922883
 51
323.3420429368
  0
ARC
  5
4ED
330
1F
100
AcDbEntity
  8
0
  6
Continuous
 62
     7
370
    25
100
AcDbCircle
 10
79.3454201831
 20
9.172777583
 30
0.0
 40
34.00000000001486
100
AcDbArc
 50
98.0697217691
 51
102.1088724176
  0
ARC
  5
4EE
330
1F
100
AcDbEntity
  8
0
  6
Continuous
 62
     7
370
    25
100
AcDbCircle
 10
48.4029993848
 20
63.5372741245
 30
0.0
 40
34.00000000001186
100
AcDbArc
 50
317.1852452294
 51
321.224395878
  0
ARC
  5
4EF
330
1F
100
AcDbEntity
  8
0
  6
Continuous
 62
     7
370
    25
100
AcDbCircle
 10
79.6301799184
 20
6.2345808822
 30
0.0
 40
34.00000000002367
100
AcDbArc
 50
95.9520747103
 51
99.9912253588
  0
ARC
  5
4F0
330
1F
100
AcDbEntity
  8
0
  6
Continuous
 62
     7
370
    25
100
AcDbCircle
 10
50.7177405933
 20
61.7053185854
 30
0.0
 40
34.0000000000121
100
AcDbArc
 50
315.0675981706
 51
319.1067488192
  0
ARC
  5
4F1
330
1F
100
AcDbEntity
  8
0
  6
Continuous
 62
     7
370
    25
100
AcDbCircle
 10
79.8061744064
 20
3.2878684938
 30
0.0
 40
33.99999999999902
100
AcDbArc
 50
93.8344276514
 51
97.8735783
  0
ARC
  5
4F2
330
1F
100
AcDbEntity
  8
0
  6
Continuous
 62
     7
370
    25
100
AcDbCircle
 10
52.9632074688
 20
59.7890810034
 30
0.0
 40
34.00000000000508
100
AcDbArc
 50
312.9499511118
 51
316.9891017603
  0
ARC
  5
4F3
330
1F
100
AcDbEntity
  8
0
  6
Continuous
 62
     7
370
    25
100
AcDbCircle
 10
79.8731632597
 20
0.3366652726
 30
0.0
 40
34.0000000000045
100
AcDbArc
 50
91.7167805926
 51
95.7559312412
  0
ARC
  5
4F4
330
1F
100
AcDbEntity
  8
0
  6
Continuous
 62
     7
370
    25
100
AcDbCircle
 10
55.1363329737
 20
57.7911787285
 30
0.0
 40
33.99999999999814
100
AcDbArc
 50
310.832304053
 51
314.8714547015
  0
ARC
  5
4F5
330
1F
100
AcDbEntity
  8
0
  6
Continuous
 62
     7
370
    25
100
AcDbCircle
 10
79.8310549796
 20
-2.614997793
 30
0.0
 40
34.00000000000089
100
AcDbArc
 50
89.5991335338
 51
93.6382841823
  0
ARC
  5
4F6
330
1F
100
AcDbEntity
  8
0
  6
Continuous
 62
     7
370
    25
100
AcDbCircle
 10
57.2341488798
 20
55.714340655
 30
0.0
 40
34.00000000000836
100
AcDbArc
 50
308.7146569941
 51
312.7538076427
  0
ARC
  5
4F7
330
1F
100
AcDbEntity
  8
0
  6
Continuous
 62
     7
370
    25
100
AcDbCircle
 10
79.679907081
 20
-5.5630890861
 30
0.0
 40
34.00000000000281
100
AcDbArc
 50
87.481486475
 51
91.5206371235
  0
ARC
  5
4F8
330
1F
100
AcDbEntity
  8
0
  6
Continuous
 62
     7
370
    25
100
AcDbCircle
 10
59.253789823
 20
53.5614034938
 30
0.0
 40
34.00000000002471
100
AcDbArc
 50
306.5970099353
 51
310.6361605839
  0
ARC
  5
4F9
330
1F
100
AcDbEntity
  8
0
  6
Continuous
 62
     7
370
    25
100
AcDbCircle
 10
79.4199260137
 20
-8.5035818686
 30
0.0
 40
34.00000000001512
100
AcDbArc
 50
85.3638394161
 51
89.4029900647
  0
ARC
  5
4FA
330
1F
100
AcDbEntity
  8
0
  6
Continuous
 62
     7
370
    25
100
AcDbCircle
 10
61.1924972168
 20
51.3353078981
 30
0.0
 40
34.00000000001896
100
AcDbArc
 50
304.4793628765
 51
308.518513525
  0
ARC
  5
4FB
330
1F
100
AcDbEntity
  8
0
  6
Continuous
 62
     7
370
    25
100
AcDbCircle
 10
79.0514668806
 20
-11.4324597812
 30
0.0
 40
34.0000000000149
100
AcDbArc
 50
83.2461923573
 51
87.2853430059
  0
ARC
  5
4FC
330
1F
100
AcDbEntity
  8
0
  6
Continuous
 62
     7
370
    25
100
AcDbCircle
 10
63.0476230199
 20
49.0390944468
 30
0.0
 40
34.00000000001591
100
AcDbArc
 50
302.3617158177
 51
306.4008664662
  0
ARC
  5
4FD
330
1F
100
AcDbEntity
  8
0
  6
Continuous
 62
     7
370
    25
100
AcDbCircle
 10
78.5750329525
 20
-14.3457223289
 30
0.0
 40
34.00000000000276
100
AcDbArc
 50
81.1285452985
 51
85.167695947
  0
ARC
  5
4FE
330
1F
100
AcDbEntity
  8
0
  6
Continuous
 62
     7
370
    25
100
AcDbCircle
 10
64.8166333538
 20
46.6758994911
 30
0.0
 40
34.00000000000474
100
AcDbArc
 50
300.2440687589
 51
304.2832194074
  0
ARC
  5
4FF
330
1F
100
AcDbEntity
  8
0
  6
Continuous
 62
     7
370
    25
100
AcDbCircle
 10
77.9912749808
 20
-17.2393903455
 30
0.0
 40
34.00000000000583
100
AcDbArc
 50
79.0108982397
 51
83.0500488882
  0
ARC
  5
500
330
1F
100
AcDbEntity
  8
0
  6
Continuous
 62
     7
370
    25
100
AcDbCircle
 10
66.497111963
 20
44.2489508712
 30
0.0
 40
34.00000000001324
100
AcDbArc
 50
298.1264217
 51
302.1655723486
  0
ARC
  5
501
330
1F
100
AcDbEntity
  8
0
  6
Continuous
 62
     7
370
    25
100
AcDbCircle
 10
77.3009903088
 20
-20.1095114286
 30
0.0
 40
33.99999999999653
100
AcDbArc
 50
76.8932511808
 51
80.9324018294
  0
ARC
  5
502
330
1F
100
AcDbEntity
  8
0
  6
Continuous
 62
     7
370
    25
100
AcDbCircle
 10
68.0867635159
 20
41.761563507
 30
0.0
 40
34.00000000003547
100
AcDbArc
 50
296.0087746412
 51
300.0479252897
  0
ARC
  5
503
330
1F
100
AcDbEntity
  8
0
  6
Continuous
 62
     7
370
    25
100
AcDbCircle
 10
76.5051217823
 20
-22.9521653379
 30
0.0
 40
33.99999999999566
100
AcDbArc
 50
74.775604122
 51
78.8147547706
  0
ARC
  5
504
330
1F
100
AcDbEntity
  8
0
  6
Continuous
 62
     7
370
    25
100
AcDbCircle
 10
69.5834167398
 20
39.2171348703
 30
0.0
 40
34.00000000000747
100
AcDbArc
 50
293.8911275824
 51
297.9302782309
  0
ARC
  5
505
330
1F
100
AcDbEntity
  8
0
  6
Continuous
 62
     7
370
    25
100
AcDbCircle
 10
75.6047564619
 20
-25.7634693502
 30
0.0
 40
34.00000000000816
100
AcDbArc
 50
72.6579570632
 51
76.6971077117
  0
ARC
  5
506
330
1F
100
AcDbEntity
  8
0
  6
Continuous
 62
     7
370
    25
100
AcDbCircle
 10
70.9850273863
 20
36.6191403446
 30
0.0
 40
34.00000000000459
100
AcDbArc
 50
291.7734805236
 51
295.8126311721
  0
ARC
  5
507
330
1F
100
AcDbEntity
  8
0
  6
Continuous
 62
     7
370
    25
100
AcDbCircle
 10
74.6011241384
 20
-28.5395835623
 30
0.0
 40
34.00000000000616
100
AcDbArc
 50
70.5403100044
 51
74.5794606529
  0
ARC
  5
508
330
1F
100
AcDbEntity
  8
0
  6
Continuous
 62
     7
370
    25
100
AcDbCircle
 10
72.289681024
 20
33.9711284781
 30
0.0
 40
34.0000000000118
100
AcDbArc
 50
289.6558334647
 51
293.6949841133
  0
ARC
  5
509
330
1F
100
AcDbEntity
  8
0
  6
Continuous
 62
     7
370
    25
100
AcDbCircle
 10
73.4955956528
 20
-31.2767161362
 30
0.0
 40
34.0000000000169
100
AcDbArc
 50
68.4226629455
 51
72.4618135941
  0
ARC
  5
50A
330
1F
100
AcDbEntity
  8
0
  6
Continuous
 62
     7
370
    25
100
AcDbCircle
 10
73.4955956527
 20
31.2767161363
 30
0.0
 40
34.00000000002946
100
AcDbArc
 50
287.5381864059
 51
291.5773370545
  0
ARC
  5
50B
330
1F
100
AcDbEntity
  8
0
  6
Continuous
 62
     7
370
    25
100
AcDbCircle
 10
72.289681024
 20
-33.9711284781
 30
0.0
 40
34.0000000000079
100
AcDbArc
 50
66.3050158867
 51
70.3441665353
  0
ARC
  5
50C
330
1F
100
AcDbEntity
  8
0
  6
Continuous
 62
     7
370
    25
100
AcDbCircle
 10
74.6011241384
 20
28.5395835623
 30
0.0
 40
34.00000000001435
100
AcDbArc
 50
285.4205393471
 51
289.4596899956
  0
ARC
  5
50D
330
1F
100
AcDbEntity
  8
0
  6
Continuous
 62
     7
370
    25
100
AcDbCircle
 10
70.9850273864
 20
-36.6191403446
 30
0.0
 40
33.99999999999373
100
AcDbArc
 50
64.1873688279
 51
68.2265194764
  0
ARC
  5
50E
330
1F
100
AcDbEntity
  8
0
  6
Continuous
 62
     7
370
    25
100
AcDbCircle
 10
75.6047564619
 20
25.7634693502
 30
0.0
 40
34.00000000002181
100
AcDbArc
 50
283.3028922883
 51
287.3420429368
  0
ARC
  5
50F
330
1F
100
AcDbEntity
  8
0
  6
Continuous
 62
     7
370
    25
100
AcDbCircle
 10
69.5834167398
 20
-39.2171348703
 30
0.0
 40
34.00000000000809
100
AcDbArc
 50
62.0697217691
 51
66.1088724176
  0
ARC
  5
510
330
1F
100
AcDbEntity
  8
0
  6
Continuous
 62
     7
370
    25
100
AcDbCircle
 10
76.5051217823
 20
22.9521653379
 30
0.0
 40
34.00000000001599
100
AcDbArc
 50
281.1852452294
 51
285.224395878
  0
ARC
  5
511
330
1F
100
AcDbEntity
  8
0
  6
Continuous
 62
     7
370
    25
100
AcDbCircle
 10
68.0867635159
 20
-41.7615635069
 30
0.0
 40
34.00000000000436
100
AcDbArc
 50
59.9520747103
 51
63.9912253588
  0
ARC
  5
512
330
1F
100
AcDbEntity
  8
0
  6
Continuous
 62
     7
370
    25
100
AcDbCircle
 10
77.3009903088
 20
20.1095114286
 30
0.0
 40
34.00000000000701
100
AcDbArc
 50
279.0675981706
 51
283.1067488192
  0
ARC
  5
513
330
1F
100
AcDbEntity
  8
0
  6
Continuous
 62
     7
370
    25
100
AcDbCircle
 10
66.497111963
 20
-44.2489508712
 30
0.0
 40
34.00000000001255
100
AcDbArc
 50
57.8344276514
 51
61.8735783
  0
ARC
  5
514
330
1F
100
AcDbEntity
  8
0
  6
Continuous
 62
     7
370
    25
100
AcDbCircle
 10
77.9912749808
 20
17.2393903455
 30
0.0
 40
34.00000000002082
100
AcDbArc
 50
276.9499511118
 51
280.9891017603
  0
ARC
  5
515
330
1F
100
AcDbEntity
  8
0
  6
Continuous
 62
     7
370
    25
100
AcDbCircle
 10
64.8166333538
 20
-46.6758994911
 30
0.0
 40
33.99999999999251
100
AcDbArc
 50
55.7167805926
 51
59.7559312412
  0
ARC
  5
516
330
1F
100
AcDbEntity
  8
0
  6
Continuous
 62
     7
370
    25
100
AcDbCircle
 10
78.5750329525
 20
14.345722329
 30
0.0
 40
34.00000000002018
100
AcDbArc
 50
274.832304053
 51
278.8714547015
  0
ARC
  5
517
330
1F
100
AcDbEntity
  8
0
  6
Continuous
 62
     7
370
    25
100
AcDbCircle
 10
63.0476230199
 20
-49.0390944468
 30
0.0
 40
34.00000000002475
100
AcDbArc
 50
53.5991335338
 51
57.6382841823
  0
ARC
  5
518
330
1F
100
AcDbEntity
  8
0
  6
Continuous
 62
     7
370
    25
100
AcDbCircle
 10
79.0514668806
 20
11.4324597812
 30
0.0
 40
34.00000000001722
100
AcDbArc
 50
272.7146569941
 51
276.7538076427
  0
ARC
  5
519
330
1F
100
AcDbEntity
  8
0
  6
Continuous
 62
     7
370
    25
100
AcDbCircle
 10
61.1924972168
 20
-51.3353078981
 30
0.0
 40
34.00000000000543
100
AcDbArc
 50
51.481486475
 51
55.5206371235
  0
ARC
  5
51A
330
1F
100
AcDbEntity
  8
0
  6
Continuous
 62
     7
370
    25
100
AcDbCircle
 10
79.4199260137
 20
8.5035818686
 30
0.0
 40
34.00000000001285
100
AcDbArc
 50
270.5970099353
 51
274.6361605839
  0
ARC
  5
51B
330
1F
100
AcDbEntity
  8
0
  6
Continuous
 62
     7
370
    25
100
AcDbCircle
 10
59.253789823
 20
-53.5614034938
 30
0.0
 40
34.00000000000932
100
AcDbArc
 50
49.3638394161
 51
53.4029900647
  0
ARC
  5
51C
330
1F
100
AcDbEntity
  8
0
  6
Continuous
 62
     7
370
    25
100
AcDbCircle
 10
79.679907081
 20
5.5630890861
 30
0.0
 40
34.00000000001532
100
AcDbArc
 50
268.4793628765
 51
272.518513525
  0
ARC
  5
51D
330
1F
100
AcDbEntity
  8
0
  6
Continuous
 62
     7
370
    25
100
AcDbCircle
 10
57.2341488798
 20
-55.714340655
 30
0.0
 40
34.00000000000488
100
AcDbArc
 50
47.2461923573
 51
51.2853430059
  0
ARC
  5
51E
330
1F
100
AcDbEntity
  8
0
  6
Continuous
 62
     7
370
    25
100
AcDbCircle
 10
79.8310549796
 20
2.614997793
 30
0.0
 40
34.00000000002498
100
AcDbArc
 50
266.3617158177
 51
270.4008664662
  0
ARC
  5
51F
330
1F
100
AcDbEntity
  8
0
  6
Continuous
 62
     7
370
    25
100
AcDbCircle
 10
55.1363329737
 20
-57.7911787285
 30
0.0
 40
34.00000000000816
100
AcDbArc
 50
45.1285452985
 51
49.167695947
  0
ARC
  5
520
330
1F
100
AcDbEntity
  8
0
  6
Continuous
 62
     7
370
    25
100
AcDbCircle
 10
79.8731632597
 20
-0.3366652726
 30
0.0
 40
34.0000000000095
100
AcDbArc
 50
264.2440687589
 51
268.2832194074
  0
ARC
  5
521
330
1F
100
AcDbEntity
  8
0
  6
Continuous
 62
     7
370
    25
100
AcDbCircle
 10
52.9632074688
 20
-59.7890810034
 30
0.0
 40
34.00000000001855
100
AcDbArc
 50
43.0108982397
 51
47.0500488882
  0
ARC
  5
522
330
1F
100
AcDbEntity
  8
0
  6
Continuous
 62
     7
370
    25
100
AcDbCircle
 10
79.8061744064
 20
-3.2878684938
 30
0.0
 40
34.00000000002367
100
AcDbArc
 50
262.1264217
 51
266.1655723486
  0
ARC
  5
523
330
1F
100
AcDbEntity
  8
0
  6
Continuous
 62
     7
370
    25
100
AcDbCircle
 10
50.7177405933
 20
-61.7053185854
 30
0.0
 40
34.00000000002601
100
AcDbArc
 50
40.8932511808
 51
44.9324018294
  0
ARC
  5
524
330
1F
100
AcDbEntity
  8
0
  6
Continuous
 62
     7
370
    25
100
AcDbCircle
 10
79.6301799184
 20
-6.2345808822
 30
0.0
 40
34.00000000000319
100
AcDbArc
 50
260.0087746412
 51
264.0479252898
  0
ARC
  5
525
330
1F
100
AcDbEntity
  8
0
  6
Continuous
 62
     7
370
    25
100
AcDbCircle
 10
48.4029993848
 20
-63.5372741245
 30
0.0
 40
34.00000000000587
100
AcDbArc
 50
38.775604122
 51
42.8147547706
  0
ARC
  5
526
330
1F
100
AcDbEntity
  8
0
  6
Continuous
 62
     7
370
    25
100
AcDbCircle
 10
79.3454201831
 20
-9.172777583
 30
0.0
 40
34.00000000002672
100
AcDbArc
 50
257.8911275824
 51
261.9302782309
  0
ARC
  5
527
330
1F
100
AcDbEntity
  8
0
  6
Continuous
 62
     7
370
    25
100
AcDbCircle
 10
46.0221455013
 20
-65.2824453898
 30
0.0
 40
34.00000000002002
100
AcDbArc
 50
36.6579570632
 51
40.6971077117
  0
ARC
  5
528
330
1F
100
AcDbEntity
  8
0
  6
Continuous
 62
     7
370
    25
100
AcDbCircle
 10
78.9522841479
 20
-12.0984453731
 30
0.0
 40
34.0000000000163
100
AcDbArc
 50
255.7734805236
 51
259.8126311721
  0
ARC
  5
529
330
1F
100
AcDbEntity
  8
0
  6
Continuous
 62
     7
370
    25
100
AcDbCircle
 10
43.5784309029
 20
-66.9384486873
 30
0.0
 40
34.00000000000214
100
AcDbArc
 50
34.5403100044
 51
38.5794606529
  0
ARC
  5
52A
330
1F
100
AcDbEntity
  8
0
  6
Continuous
 62
     7
370
    25
100
AcDbCircle
 10
78.4513087895
 20
-15.007588142
 30
0.0
 40
34.00000000001079
100
AcDbArc
 50
253.6558334647
 51
257.6949841133
  0
ARC
  5
52B
330
1F
100
AcDbEntity
  8
0
  6
Continuous
 62
     7
370
    25
100
AcDbCircle
 10
41.0751934098
 20
-68.5030221156
 30
0.0
 40
34.0000000000311
100
AcDbArc
 50
32.4226629455
 51
36.4618135941
  0
ARC
  5
52C
330
1F
100
AcDbEntity
  8
0
  6
Continuous
 62
     7
370
    25
100
AcDbCircle
 10
77.8431783798
 20
-17.8962323507
 30
0.0
 40
34.00000000001845
100
AcDbArc
 50
251.5381864059
 51
255.5773370545
  0
ARC
  5
52D
330
1F
100
AcDbEntity
  8
0
  6
Continuous
 62
     7
370
    25
100
AcDbCircle
 10
38.5158521432
 20
-69.9740286557
 30
0.0
 40
34.00000000002098
100
AcDbArc
 50
30.3050158867
 51
34.3441665353
  0
ARC
  5
52E
330
1F
100
AcDbEntity
  8
0
  6
Continuous
 62
     7
370
    25
100
AcDbCircle
 10
77.1287235519
 20
-20.7604324587
 30
0.0
 40
34.00000000001157
100
AcDbArc
 50
249.4205393471
 51
253.4596899956
  0
ARC
  5
52F
330
1F
100
AcDbEntity
  8
0
  6
Continuous
 62
     7
370
    25
100
AcDbCircle
 10
35.9039028555
 20
-71.3494590895
 30
0.0
 40
34.00000000000539
100
AcDbArc
 50
28.1873688279
 51
32.2265194764
  0
ARC
  5
530
330
1F
100
AcDbEntity
  8
0
  6
Continuous
 62
     7
370
    25
100
AcDbCircle
 10
76.3089201652
 20
-23.5962763131
 30
0.0
 40
34.00000000001885
100
AcDbArc
 50
247.3028922883
 51
251.3420429368
  0
ARC
  5
531
330
1F
100
AcDbEntity
  8
0
  6
Continuous
 62
     7
370
    25
100
AcDbCircle
 10
33.2429131553
 20
-72.6274347445
 30
0.0
 40
33.99999999999721
100
AcDbArc
 50
26.0697217691
 51
30.1088724176
  0
ARC
  5
532
330
1F
100
AcDbEntity
  8
0
  6
Continuous
 62
     7
370
    25
100
AcDbCircle
 10
75.3848879724
 20
-26.3998904924
 30
0.0
 40
34.00000000001359
100
AcDbArc
 50
245.1852452294
 51
249.224395878
  0
ARC
  5
533
330
1F
100
AcDbEntity
  8
0
  6
Continuous
 62
     7
370
    25
100
AcDbCircle
 10
30.5365176343
 20
-73.8062100598
 30
0.0
 40
33.99999999999864
100
AcDbArc
 50
23.9520747103
 51
27.9912253588
  0
ARC
  5
534
330
1F
100
AcDbEntity
  8
0
  6
Continuous
 62
     7
370
    25
100
AcDbCircle
 10
74.3578890904
 20
-29.1674455969
 30
0.0
 40
33.99999999999513
100
AcDbArc
 50
243.0675981706
 51
247.1067488192
  0
ARC
  5
535
330
1F
100
AcDbEntity
  8
0
  6
Continuous
 62
     7
370
    25
100
AcDbCircle
 10
27.7884129034
 20
-74.8841749699
 30
0.0
 40
34.00000000001273
100
AcDbArc
 50
21.8344276514
 51
25.8735783
  0
ARC
  5
536
330
1F
100
AcDbEntity
  8
0
  6
Continuous
 62
     7
370
    25
100
AcDbCircle
 10
73.2293262761
 20
-31.895161479
 30
0.0
 40
34.00000000002274
100
AcDbArc
 50
240.9499511118
 51
244.9891017603
  0
ARC
  5
537
330
1F
100
AcDbEntity
  8
0
  6
Continuous
 62
     7
370
    25
100
AcDbCircle
 10
25.002352543
 20
-75.8598571046
 30
0.0
 40
34.00000000001495
100
AcDbArc
 50
19.7167805926
 51
23.7559312411
  0
ARC
  5
538
330
1F
100
AcDbEntity
  8
0
  6
Continuous
 62
     7
370
    25
100
AcDbCircle
 10
72.0007410105
 20
-34.5793124072
 30
0.0
 40
34.00000000000919
100
AcDbArc
 50
238.832304053
 51
242.8714547015
  0
ARC
  5
539
330
1F
100
AcDbEntity
  8
0
  6
Continuous
 62
     7
370
    25
100
AcDbCircle
 10
22.1821419765
 20
-76.7319237994
 30
0.0
 40
34.00000000001209
100
AcDbArc
 50
17.5991335338
 51
21.6382841823
  0
ARC
  5
53A
330
1F
100
AcDbEntity
  8
0
  6
Continuous
 62
     7
370
    25
100
AcDbCircle
 10
70.6738113935
 20
-37.216232154
 30
0.0
 40
34.00000000000284
100
AcDbArc
 50
236.7146569941
 51
240.7538076427
  0
ARC
  5
53B
330
1F
100
AcDbEntity
  8
0
  6
Continuous
 62
     7
370
    25
100
AcDbCircle
 10
19.3316332722
 20
-77.499183916
 30
0.0
 40
34.00000000000745
100
AcDbArc
 50
15.481486475
 51
19.5206371235
  0
ARC
  5
53C
330
1F
100
AcDbEntity
  8
0
  6
Continuous
 62
     7
370
    25
100
AcDbCircle
 10
69.2503498511
 20
-39.8023190042
 30
0.0
 40
34.00000000000787
100
AcDbArc
 50
234.5970099353
 51
238.6361605839
  0
ARC
  5
53D
330
1F
100
AcDbEntity
  8
0
  6
Continuous
 62
     7
370
    25
100
AcDbCircle
 10
16.4547198822
 20
-78.1605894695
 30
0.0
 40
34.00000000000969
100
AcDbArc
 50
13.3638394161
 51
17.4029900647
  0
ARC
  5
53E
330
1F
100
AcDbEntity
  8
0
  6
Continuous
 62
     7
370
    25
100
AcDbCircle
 10
67.7323006607
 20
-42.3340406744
 30
0.0
 40
34.00000000000508
100
AcDbArc
 50
232.4793628765
 51
236.518513525
  0
ARC
  5
53F
330
1F
100
AcDbEntity
  8
0
  6
Continuous
 62
     7
370
    25
100
AcDbCircle
 10
13.5553313241
 20
-78.7152370594
 30
0.0
 40
33.99999999999885
100
AcDbArc
 50
11.2461923573
 51
15.2853430059
  0
ARC
  5
540
330
1F
100
AcDbEntity
  8
0
  6
Continuous
 62
     7
370
    25
100
AcDbCircle
 10
66.1217372949
 20
-44.8079391372
 30
0.0
 40
34.00000000001877
100
AcDbArc
 50
230.3617158177
 51
234.4008664662
  0
ARC
  5
541
330
1F
100
AcDbEntity
  8
0
  6
Continuous
 62
     7
370
    25
100
AcDbCircle
 10
10.637427814
 20
-79.1623691038
 30
0.0
 40
33.99999999999556
100
AcDbArc
 50
9.1285452985
 51
13.167695947
  0
ARC
  5
542
330
1F
100
AcDbEntity
  8
0
  6
Continuous
 62
     7
370
    25
100
AcDbCircle
 10
64.4208595894
 20
-47.2206353449
 30
0.0
 40
34.00000000002863
100
AcDbArc
 50
228.2440687589
 51
232.2832194074
  0
ARC
  5
543
330
1F
100
AcDbEntity
  8
0
  6
Continuous
 62
     7
370
    25
100
AcDbCircle
 10
7.704994857
 20
-79.5013748741
 30
0.0
 40
34.00000000000369
100
AcDbArc
 50
7.0108982397
 51
11.0500488882
  0
ARC
  5
544
330
1F
100
AcDbEntity
  8
0
  6
Continuous
 62
     7
370
    25
100
AcDbCircle
 10
62.6319907387
 20
-49.5688338447
 30
0.0
 40
34.0000000000105
100
AcDbArc
 50
226.1264217
 51
230.1655723486
  0
ARC
  5
545
330
1F
100
AcDbEntity
  8
0
  6
Continuous
 62
     7
370
    25
100
AcDbCircle
 10
4.7620378038
 20
-79.7317913293
 30
0.0
 40
34.00000000000533
100
AcDbArc
 50
4.8932511808
 51
8.9324018294
  0
ARC
  5
546
330
1F
100
AcDbEntity
  8
0
  6
Continuous
 62
     7
370
    25
100
AcDbCircle
 10
60.7575741224
 20
-51.84932728
 30
0.0
 40
34.00000000002772
100
AcDbArc
 50
224.0087746412
 51
228.0479252897
  0
ARC
  5
547
330
1F
100
AcDbEntity
  8
0
  6
Continuous
 62
     7
370
    25
100
AcDbCircle
 10
1.8125763798
 20
-79.8533037481
 30
0.0
 40
34.00000000000755
100
AcDbArc
 50
2.775604122
 51
6.8147547706
  0
ARC
  5
548
330
1F
100
AcDbEntity
  8
0
  6
Continuous
 62
     7
370
    25
100
AcDbCircle
 10
58.8001699681
 20
-54.0590007709
 30
0.0
 40
33.99999999999951
100
AcDbArc
 50
221.8911275824
 51
225.9302782309
  0
ARC
  5
549
330
1F
100
AcDbEntity
  8
0
  6
Continuous
 62
     7
370
    25
100
AcDbCircle
 10
-1.1393608055
 20
-79.8657461593
 30
0.0
 40
33.9999999999909
100
AcDbArc
 50
0.6579570632
 51
4.6971077117
  0
ARC
  5
54A
330
1F
100
AcDbEntity
  8
0
  6
Continuous
 62
     7
370
    25
100
AcDbCircle
 10
56.7624518544
 20
-56.1948361693
 30
0.0
 40
34.00000000001994
100
AcDbArc
 50
219.7734805236
 51
223.8126311721
  0
ARC
  5
54B
330
1F
100
AcDbEntity
  8
0
  6
Continuous
 62
     7
370
    25
100
AcDbCircle
 10
-4.0897417611
 20
-79.7691015679
 30
0.0
 40
34.00000000000241
100
AcDbArc
 50
358.5403100044
 51
2.5794606529
  0
ARC
  5
54C
330
1F
100
AcDbEntity
  8
0
  6
Continuous
 62
     7
370
    25
100
AcDbCircle
 10
54.6472030593
 20
-58.2539161809
 30
0.0
 40
34.00000000002395
100
AcDbArc
 50
217.6558334647
 51
221.6949841133
  0
ARC
  5
54D
330
1F
100
AcDbEntity
  8
0
  6
Continuous
 62
     7
370
    25
100
AcDbCircle
 10
-7.0345366213
 20
-79.5635019789
 30
0.0
 40
34.00000000000799
100
AcDbArc
 50
356.4226629455
 51
0.4618135941
  0
ARC
  5
54E
330
1F
100
AcDbEntity
  8
0
  6
Continuous
 62
     7
370
    25
100
AcDbCircle
 10
52.4573127581
 20
-60.2334283502
 30
0.0
 40
34.00000000001754
100
AcDbArc
 50
215.5381864059
 51
219.5773370545
  0
ARC
  5
54F
330
1F
100
AcDbEntity
  8
0
  6
Continuous
 62
     7
370
    25
100
AcDbCircle
 10
-9.9697231506
 20
-79.2492282166
 30
0.0
 40
34.00000000000542
100
AcDbArc
 50
354.3050158867
 51
358.3441665353
  0
ARC
  5
550
330
1F
100
AcDbEntity
  8
0
  6
Continuous
 62
     7
370
    25
100
AcDbCircle
 10
50.1957720775
 20
-62.1306689016
 30
0.0
 40
34.00000000001731
100
AcDbArc
 50
213.4205393471
 51
217.4596899956
  0
ARC
  5
551
330
1F
100
AcDbEntity
  8
0
  6
Continuous
 62
     7
370
    25
100
AcDbCircle
 10
-12.8912922373
 20
-78.8267095411
 30
0.0
 40
34.00000000000949
100
AcDbArc
 50
352.1873688279
 51
356.2265194764
  0
ARC
  5
552
330
1F
100
AcDbEntity
  8
0
  6
Continuous
 62
     7
370
    25
100
AcDbCircle
 10
47.8656700102
 20
-63.9430464327
 30
0.0
 40
34.00000000000436
100
AcDbArc
 50
211.3028922883
 51
215.3420429368
  0
ARC
  5
553
330
1F
100
AcDbEntity
  8
0
  6
Continuous
 62
     7
370
    25
100
AcDbCircle
 10
-15.7952533695
 20
-78.2965230621
 30
0.0
 40
34.00000000000403
100
AcDbArc
 50
350.0697217691
 51
354.1088724176
  0
ARC
  5
554
330
1F
100
AcDbEntity
  8
0
  6
Continuous
 62
     7
370
    25
100
AcDbCircle
 10
45.4701891951
 20
-65.6680854539
 30
0.0
 40
34.0000000000103
100
AcDbArc
 50
209.1852452294
 51
213.224395878
  0
ARC
  5
555
330
1F
100
AcDbEntity
  8
0
  6
Continuous
 62
     7
370
    25
100
AcDbCircle
 10
-18.6776400855
 20
-77.6593929506
 30
0.0
 40
34.00000000000739
100
AcDbArc
 50
347.9520747103
 51
351.9912253588
  0
ARC
  5
556
330
1F
100
AcDbEntity
  8
0
  6
Continuous
 62
     7
370
    25
100
AcDbCircle
 10
43.0126015711
 20
-67.3034297693
 30
0.0
 40
34.00000000000794
100
AcDbArc
 50
207.0675981706
 51
211.1067488192
  0
ARC
  5
557
330
1F
100
AcDbEntity
  8
0
  6
Continuous
 62
     7
370
    25
100
AcDbCircle
 10
-21.5345153919
 20
-76.9161894497
 30
0.0
 40
34.00000000001756
100
AcDbArc
 50
345.8344276514
 51
349.8735783
  0
ARC
  5
558
330
1F
100
AcDbEntity
  8
0
  6
Continuous
 62
     7
370
    25
100
AcDbCircle
 10
40.4962639071
 20
-68.8468456952
 30
0.0
 40
34.00000000001634
100
AcDbArc
 50
204.9499511118
 51
208.9891017603
  0
ARC
  5
559
330
1F
100
AcDbEntity
  8
0
  6
Continuous
 62
     7
370
    25
100
AcDbCircle
 10
-24.3619771405
 20
-76.0679276859
 30
0.0
 40
34.00000000000388
100
AcDbArc
 50
343.7167805926
 51
347.7559312412
  0
ARC
  5
55A
330
1F
100
AcDbEntity
  8
0
  6
Continuous
 62
     7
370
    25
100
AcDbCircle
 10
37.9246132178
 20
-70.2962251113
 30
0.0
 40
34.00000000002251
100
AcDbArc
 50
202.832304053
 51
206.8714547015
  0
ARC
  5
55B
330
1F
100
AcDbEntity
  8
0
  6
Continuous
 62
     7
370
    25
100
AcDbCircle
 10
-27.1561633587
 20
-75.1157662828
 30
0.0
 40
33.99999999999261
100
AcDbArc
 50
341.5991335338
 51
345.6382841823
  0
ARC
  5
55C
330
1F
100
AcDbEntity
  8
0
  6
Continuous
 62
     7
370
    25
100
AcDbCircle
 10
35.3011620686
 20
-71.6495883395
 30
0.0
 40
34.00000000000665
100
AcDbArc
 50
200.7146569941
 51
204.7538076427
  0
ARC
  5
55D
330
1F
100
AcDbEntity
  8
0
  6
Continuous
 62
     7
370
    25
100
AcDbCircle
 10
-29.9132575243
 20
-74.0610057784
 30
0.0
 40
34.00000000000512
100
AcDbArc
 50
339.481486475
 51
343.5206371235
  0
ARC
  5
55E
330
1F
100
AcDbEntity
  8
0
  6
Continuous
 62
     7
370
    25
100
AcDbCircle
 10
32.6294937783
 20
-72.9050868485
 30
0.0
 40
34.00000000001815
100
AcDbArc
 50
198.5970099353
 51
202.6361605839
  0
ARC
  5
55F
330
1F
100
AcDbEntity
  8
0
  6
Continuous
 62
     7
370
    25
100
AcDbCircle
 10
-32.6294937783
 20
-72.9050868485
 30
0.0
 40
34.00000000001336
100
AcDbArc
 50
337.3638394161
 51
341.4029900647
  0
ARC
  5
560
330
1F
100
AcDbEntity
  8
0
  6
Continuous
 62
     7
370
    25
100
AcDbCircle
 10
29.9132575243
 20
-74.0610057784
 30
0.0
 40
34.00000000001553
100
AcDbArc
 50
196.4793628765
 51
200.518513525
  0
ARC
  5
561
330
1F
100
AcDbEntity
  8
0
  6
Continuous
 62
     7
370
    25
100
AcDbCircle
 10
-35.3011620686
 20
-71.6495883395
 30
0.0
 40
34.0000000000054
100
AcDbArc
 50
335.2461923573
 51
339.2853430059
  0
ARC
  5
562
330
1F
100
AcDbEntity
  8
0
  6
Continuous
 62
     7
370
    25
100
AcDbCircle
 10
27.1561633587
 20
-75.1157662828
 30
0.0
 40
34.00000000001098
100
AcDbArc
 50
194.3617158177
 51
198.4008664662
  0
ARC
  5
563
330
1F
100
AcDbEntity
  8
0
  6
Continuous
 62
     7
370
    25
100
AcDbCircle
 10
-37.9246132178
 20
-70.2962251113
 30
0.0
 40
34.00000000000421
100
AcDbArc
 50
333.1285452985
 51
337.167695947
  0
ARC
  5
564
330
1F
100
AcDbEntity
  8
0
  6
Continuous
 62
     7
370
    25
100
AcDbCircle
 10
24.3619771405
 20
-76.0679276859
 30
0.0
 40
34.00000000000701
100
AcDbArc
 50
192.2440687589
 51
196.2832194074
  0
ARC
  5
565
330
1F
100
AcDbEntity
  8
0
  6
Continuous
 62
     7
370
    25
100
AcDbCircle
 10
-40.4962639071
 20
-68.8468456952
 30
0.0
 40
34.00000000001624
100
AcDbArc
 50
331.0108982397
 51
335.0500488882
  0
ARC
  5
566
330
1F
100
AcDbEntity
  8
0
  6
Continuous
 62
     7
370
    25
100
AcDbCircle
 10
21.5345153919
 20
-76.9161894497
 30
0.0
 40
34.00000000001437
100
AcDbArc
 50
190.1264217
 51
194.1655723486
  0
ARC
  5
567
330
1F
100
AcDbEntity
  8
0
  6
Continuous
 62
     7
370
    25
100
AcDbCircle
 10
-43.0126015711
 20
-67.3034297693
 30
0.0
 40
34.0000000000114
100
AcDbArc
 50
328.8932511808
 51
332.9324018294
  0
ARC
  5
568
330
1F
100
AcDbEntity
  8
0
  6
Continuous
 62
     7
370
    25
100
AcDbCircle
 10
18.6776400855
 20
-77.6593929506
 30
0.0
 40
34.00000000000657
100
AcDbArc
 50
188.0087746412
 51
192.0479252898
  0
ARC
  5
569
330
1F
100
AcDbEntity
  8
0
  6
Continuous
 62
     7
370
    25
100
AcDbCircle
 10
-45.4701891951
 20
-65.6680854539
 30
0.0
 40
34.00000000000536
100
AcDbArc
 50
326.775604122
 51
330.8147547706
  0
ARC
  5
56A
330
1F
100
AcDbEntity
  8
0
  6
Continuous
 62
     7
370
    25
100
AcDbCircle
 10
15.7952533695
 20
-78.2965230621
 30
0.0
 40
34.00000000001074
100
AcDbArc
 50
185.8911275824
 51
189.9302782309
  0
ARC
  5
56B
330
1F
100
AcDbEntity
  8
0
  6
Continuous
 62
     7
370
    25
100
AcDbCircle
 10
-47.8656700102
 20
-63.9430464327
 30
0.0
 40
34.00000000001756
100
AcDbArc
 50
324.6579570632
 51
328.6971077117
  0
ARC
  5
56C
330
1F
100
AcDbEntity
  8
0
  6
Continuous
 62
     7
370
    25
100
AcDbCircle
 10
12.8912922373
 20
-78.8267095411
 30
0.0
 40
34.00000000001718
100
AcDbArc
 50
183.7734805236
 51
187.8126311721
  0
ARC
  5
56D
330
1F
100
AcDbEntity
  8
0
  6
Continuous
 62
     7
370
    25
100
AcDbCircle
 10
-50.1957720775
 20
-62.1306689016
 30
0.0
 40
34.00000000002276
100
AcDbArc
 50
322.5403100044
 51
326.5794606529
  0
ARC
  5
56E
330
1F
100
AcDbEntity
  8
0
  6
Continuous
 62
     7
370
    25
100
AcDbCircle
 10
9.9697231506
 20
-79.2492282166
 30
0.0
 40
34.00000000001547
100
AcDbArc
 50
181.6558334647
 51
185.6949841133
  0
ARC
  5
56F
330
1F
100
AcDbEntity
  8
0
  6
Continuous
 62
     7
370
    25
100
AcDbCircle
 10
-52.4573127581
 20
-60.2334283502
 30
0.0
 40
34.00000000001258
100
AcDbArc
 50
320.4226629455
 51
324.4618135941
  0
ARC
  5
570
330
1F
100
AcDbEntity
  8
0
  6
Continuous
 62
     7
370
    25
100
AcDbCircle
 10
7.0345366213
 20
-79.5635019789
 30
0.0
 40
34.000000000017
100
AcDbArc
 50
179.5381864059
 51
183.5773370545
  0
ARC
  5
571
330
1F
100
AcDbEntity
  8
0
  6
Continuous
 62
     7
370
    25
100
AcDbCircle
 10
-54.6472030593
 20
-58.2539161809
 30
0.0
 40
34.00000000000308
100
AcDbArc
 50
318.3050158867
 51
322.3441665353
  0
ARC
  5
572
330
1F
100
AcDbEntity
  8
0
  6
Continuous
 62
     7
370
    25
100
AcDbCircle
 10
4.0897417611
 20
-79.7691015679
 30
0.0
 40
34.00000000000809
100
AcDbArc
 50
177.4205393471
 51
181.4596899956
  0
ARC
  5
573
330
1F
100
AcDbEntity
  8
0
  6
Continuous
 62
     7
370
    25
100
AcDbCircle
 10
-56.7624518544
 20
-56.1948361693
 30
0.0
 40
34.00000000000534
100
AcDbArc
 50
316.1873688279
 51
320.2265194764
  0
ARC
  5
574
330
1F
100
AcDbEntity
  8
0
  6
Continuous
 62
     7
370
    25
100
AcDbCircle
 10
1.1393608056
 20
-79.8657461593
 30
0.0
 40
34.00000000001218
100
AcDbArc
 50
175.3028922883
 51
179.3420429368
  0
ARC
  5
575
330
1F
100
AcDbEntity
  8
0
  6
Continuous
 62
     7
370
    25
100
AcDbCircle
 10
-58.8001699681
 20
-54.0590007709
 30
0.0
 40
34.0000000000017
100
AcDbArc
 50
314.0697217691
 51
318.1088724176
  0
ARC
  5
576
330
1F
100
AcDbEntity
  8
0
  6
Continuous
 62
     7
370
    25
100
AcDbCircle
 10
-1.8125763798
 20
-79.8533037481
 30
0.0
 40
34.00000000001906
100
AcDbArc
 50
173.1852452294
 51
177.224395878
  0
ARC
  5
577
330
1F
100
AcDbEntity
  8
0
  6
Continuous
 62
     7
370
    25
100
AcDbCircle
 10
-60.7575741224
 20
-51.84932728
 30
0.0
 40
34.0000000000195
100
AcDbArc
 50
311.9520747103
 51
315.9912253588
  0
ARC
  5
578
330
1F
100
AcDbEntity
  8
0
  6
Continuous
 62
     7
370
    25
100
AcDbCircle
 10
-4.7620378038
 20
-79.7317913293
 30
0.0
 40
34.00000000003636
100
AcDbArc
 50
171.0675981706
 51
175.1067488192
  0
ARC
  5
579
330
1F
100
AcDbEntity
  8
0
  6
Continuous
 62
     7
370
    25
100
AcDbCircle
 10
-62.6319907387
 20
-49.5688338447
 30
0.0
 40
34.0000000000177
100
AcDbArc
 50
309.8344276514
 51
313.8735783
  0
ARC
  5
57A
330
1F
100
AcDbEntity
  8
0
  6
Continuous
 62
     7
370
    25
100
AcDbCircle
 10
-7.704994857
 20
-79.5013748741
 30
0.0
 40
34.00000000000401
100
AcDbArc
 50
168.9499511118
 51
172.9891017603
  0
ARC
  5
57B
330
1F
100
AcDbEntity
  8
0
  6
Continuous
 62
     7
370
    25
100
AcDbCircle
 10
-64.4208595894
 20
-47.2206353449
 30
0.0
 40
34.00000000001421
100
AcDbArc
 50
307.7167805926
 51
311.7559312412
  0
ARC
  5
57C
330
1F
100
AcDbEntity
  8
0
  6
Continuous
 62
     7
370
    25
100
AcDbCircle
 10
-10.637427814
 20
-79.1623691038
 30
0.0
 40
34.0000000000047
100
AcDbArc
 50
166.832304053
 51
170.8714547015
  0
ARC
  5
57D
330
1F
100
AcDbEntity
  8
0
  6
Continuous
 62
     7
370
    25
100
AcDbCircle
 10
-66.1217372949
 20
-44.8079391372
 30
0.0
 40
34.00000000002652
100
AcDbArc
 50
305.5991335338
 51
309.6382841823
  0
ARC
  5
57E
330
1F
100
AcDbEntity
  8
0
  6
Continuous
 62
     7
370
    25
100
AcDbCircle
 10
-13.5553313241
 20
-78.7152370594
 30
0.0
 40
34.00000000002056
100
AcDbArc
 50
164.7146569941
 51
168.7538076427
  0
ARC
  5
57F
330
1F
100
AcDbEntity
  8
0
  6
Continuous
 62
     7
370
    25
100
AcDbCircle
 10
-67.7323006607
 20
-42.3340406744
 30
0.0
 40
33.99999999998264
100
AcDbArc
 50
303.481486475
 51
307.5206371235
  0
ARC
  5
580
330
1F
100
AcDbEntity
  8
0
  6
Continuous
 62
     7
370
    25
100
AcDbCircle
 10
-16.4547198822
 20
-78.1605894695
 30
0.0
 40
34.00000000002065
100
AcDbArc
 50
162.5970099353
 51
166.6361605839
  0
ARC
  5
581
330
1F
100
AcDbEntity
  8
0
  6
Continuous
 62
     7
370
    25
100
AcDbCircle
 10
-69.2503498511
 20
-39.8023190042
 30
0.0
 40
34.00000000000078
100
AcDbArc
 50
301.3638394161
 51
305.4029900647
  0
ARC
  5
582
330
1F
100
AcDbEntity
  8
0
  6
Continuous
 62
     7
370
    25
100
AcDbCircle
 10
-19.3316332722
 20
-77.499183916
 30
0.0
 40
34.0000000000019
100
AcDbArc
 50
160.4793628765
 51
164.518513525
  0
ARC
  5
583
330
1F
100
AcDbEntity
  8
0
  6
Continuous
 62
     7
370
    25
100
AcDbCircle
 10
-70.6738113935
 20
-37.216232154
 30
0.0
 40
34.00000000000414
100
AcDbArc
 50
299.2461923573
 51
303.2853430059
  0
ARC
  5
584
330
1F
100
AcDbEntity
  8
0
  6
Continuous
 62
     7
370
    25
100
AcDbCircle
 10
-22.1821419765
 20
-76.7319237994
 30
0.0
 40
34.0000000000005
100
AcDbArc
 50
158.3617158177
 51
162.4008664662
  0
ARC
  5
585
330
1F
100
AcDbEntity
  8
0
  6
Continuous
 62
     7
370
    25
100
AcDbCircle
 10
-72.0007410105
 20
-34.5793124072
 30
0.0
 40
34.00000000000274
100
AcDbArc
 50
297.1285452985
 51
301.167695947
  0
ARC
  5
586
330
1F
100
AcDbEntity
  8
0
  6
Continuous
 62
     7
370
    25
100
AcDbCircle
 10
-25.002352543
 20
-75.8598571046
 30
0.0
 40
34.00000000000475
100
AcDbArc
 50
156.2440687589
 51
160.2832194074
  0
ARC
  5
587
330
1F
100
AcDbEntity
  8
0
  6
Continuous
 62
     7
370
    25
100
AcDbCircle
 10
-73.2293262761
 20
-31.895161479
 30
0.0
 40
34.00000000003245
100
AcDbArc
 50
295.0108982397
 51
299.0500488882
  0
ARC
  5
588
330
1F
100
AcDbEntity
  8
0
  6
Continuous
 62
     7
370
    25
100
AcDbCircle
 10
-27.7884129034
 20
-74.88417497
 30
0.0
 40
34.00000000001982
100
AcDbArc
 50
154.1264217
 51
158.1655723486
  0
ARC
  5
589
330
1F
100
AcDbEntity
  8
0
  6
Continuous
 62
     7
370
    25
100
AcDbCircle
 10
-74.3578890904
 20
-29.1674455968
 30
0.0
 40
34.00000000001546
100
AcDbArc
 50
292.8932511808
 51
296.9324018294
  0
ARC
  5
58A
330
1F
100
AcDbEntity
  8
0
  6
Continuous
 62
     7
370
    25
100
AcDbCircle
 10
-30.5365176343
 20
-73.8062100598
 30
0.0
 40
34.00000000001093
100
AcDbArc
 50
152.0087746412
 51
156.0479252897
  0
ARC
  5
58B
330
1F
100
AcDbEntity
  8
0
  6
Continuous
 62
     7
370
    25
100
AcDbCircle
 10
-75.3848879724
 20
-26.3998904924
 30
0.0
 40
34.00000000000059
100
AcDbArc
 50
290.775604122
 51
294.8147547706
  0
ARC
  5
58C
330
1F
100
AcDbEntity
  8
0
  6
Continuous
 62
     7
370
    25
100
AcDbCircle
 10
-33.2429131553
 20
-72.6274347445
 30
0.0
 40
34.00000000000993
100
AcDbArc
 50
149.8911275824
 51
153.9302782309
  0
ARC
  5
58D
330
1F
100
AcDbEntity
  8
0
  6
Continuous
 62
     7
370
    25
100
AcDbCircle
 10
-76.3089201652
 20
-23.5962763131
 30
0.0
 40
34.00000000000569
100
AcDbArc
 50
288.6579570632
 51
292.6971077117
  0
ARC
  5
58E
330
1F
100
AcDbEntity
  8
0
  6
Continuous
 62
     7
370
    25
100
AcDbCircle
 10
-35.9039028555
 20
-71.3494590895
 30
0.0
 40
34.00000000000966
100
AcDbArc
 50
147.7734805236
 51
151.8126311721
  0
ARC
  5
58F
330
1F
100
AcDbEntity
  8
0
  6
Continuous
 62
     7
370
    25
100
AcDbCircle
 10
-77.1287235519
 20
-20.7604324587
 30
0.0
 40
34.00000000000305
100
AcDbArc
 50
286.5403100044
 51
290.5794606529
  0
ARC
  5
590
330
1F
100
AcDbEntity
  8
0
  6
Continuous
 62
     7
370
    25
100
AcDbCircle
 10
-38.5158521432
 20
-69.9740286557
 30
0.0
 40
34.00000000000629
100
AcDbArc
 50
145.6558334647
 51
149.6949841133
  0
ARC
  5
591
330
1F
100
AcDbEntity
  8
0
  6
Continuous
 62
     7
370
    25
100
AcDbCircle
 10
-77.8431783798
 20
-17.8962323507
 30
0.0
 40
33.99999999999626
100
AcDbArc
 50
284.4226629455
 51
288.4618135941
  0
ARC
  5
592
330
1F
100
AcDbEntity
  8
0
  6
Continuous
 62
     7
370
    25
100
AcDbCircle
 10
-41.0751934098
 20
-68.5030221156
 30
0.0
 40
34.00000000002512
100
AcDbArc
 50
143.5381864059
 51
147.5773370545
  0
ARC
  5
593
330
1F
100
AcDbEntity
  8
0
  6
Continuous
 62
     7
370
    25
100
AcDbCircle
 10
-78.4513087895
 20
-15.007588142
 30
0.0
 40
34.00000000001771
100
AcDbArc
 50
282.3050158867
 51
286.3441665353
  0
ARC
  5
594
330
1F
100
AcDbEntity
  8
0
  6
Continuous
 62
     7
370
    25
100
AcDbCircle
 10
-43.5784309029
 20
-66.9384486873
 30
0.0
 40
34.00000000002186
100
AcDbArc
 50
141.4205393471
 51
145.4596899956
  0
ARC
  5
595
330
1F
100
AcDbEntity
  8
0
  6
Continuous
 62
     7
370
    25
100
AcDbCircle
 10
-78.9522841479
 20
-12.0984453731
 30
0.0
 40
34.00000000000654
100
AcDbArc
 50
280.1873688279
 51
284.2265194764
  0
ARC
  5
596
330
1F
100
AcDbEntity
  8
0
  6
Continuous
 62
     7
370
    25
100
AcDbCircle
 10
-46.0221455013
 20
-65.2824453898
 30
0.0
 40
34.00000000000922
100
AcDbArc
 50
139.3028922883
 51
143.3420429368
  0
ARC
  5
597
330
1F
100
AcDbEntity
  8
0
  6
Continuous
 62
     7
370
    25
100
AcDbCircle
 10
-79.3454201831
 20
-9.1727775831
 30
0.0
 40
34.00000000000401
100
AcDbArc
 50
278.0697217691
 51
282.1088724176
  0
ARC
  5
598
330
1F
100
AcDbEntity
  8
0
  6
Continuous
 62
     7
370
    25
100
AcDbCircle
 10
-48.4029993848
 20
-63.5372741245
 30
0.0
 40
33.99999999999826
100
AcDbArc
 50
137.1852452294
 51
141.224395878
  0
ARC
  5
599
330
1F
100
AcDbEntity
  8
0
  6
Continuous
 62
     7
370
    25
100
AcDbCircle
 10
-79.6301799184
 20
-6.2345808822
 30
0.0
 40
34.00000000000601
100
AcDbArc
 50
275.9520747103
 51
279.9912253588
  0
ARC
  5
59A
330
1F
100
AcDbEntity
  8
0
  6
Continuous
 62
     7
370
    25
100
AcDbCircle
 10
-50.7177405933
 20
-61.7053185854
 30
0.0
 40
34.00000000001873
100
AcDbArc
 50
135.0675981706
 51
139.1067488192
  0
ARC
  5
59B
330
1F
100
AcDbEntity
  8
0
  6
Continuous
 62
     7
370
    25
100
AcDbCircle
 10
-79.8061744064
 20
-3.2878684938
 30
0.0
 40
33.99999999998789
100
AcDbArc
 50
273.8344276514
 51
277.8735783
  0
ARC
  5
59C
330
1F
100
AcDbEntity
  8
0
  6
Continuous
 62
     7
370
    25
100
AcDbCircle
 10
-52.9632074688
 20
-59.7890810034
 30
0.0
 40
34.00000000000258
100
AcDbArc
 50
132.9499511118
 51
136.9891017603
  0
ARC
  5
59D
330
1F
100
AcDbEntity
  8
0
  6
Continuous
 62
     7
370
    25
100
AcDbCircle
 10
-79.8731632597
 20
-0.3366652725
 30
0.0
 40
34.00000000001354
100
AcDbArc
 50
271.7167805926
 51
275.7559312412
  0
ARC
  5
59E
330
1F
100
AcDbEntity
  8
0
  6
Continuous
 62
     7
370
    25
100
AcDbCircle
 10
-55.1363329737
 20
-57.7911787285
 30
0.0
 40
34.00000000000418
100
AcDbArc
 50
130.832304053
 51
134.8714547015
  0
ARC
  5
59F
330
1F
100
AcDbEntity
  8
0
  6
Continuous
 62
     7
370
    25
100
AcDbCircle
 10
-79.8310549796
 20
2.614997793
 30
0.0
 40
34.00000000001366
100
AcDbArc
 50
269.5991335338
 51
273.6382841823
  0
ARC
  5
5A0
330
1F
100
AcDbEntity
  8
0
  6
Continuous
 62
     7
370
    25
100
AcDbCircle
 10
-57.2341488798
 20
-55.714340655
 30
0.0
 40
34.00000000001737
100
AcDbArc
 50
128.7146569941
 51
132.7538076427
  0
ARC
  5
5A1
330
1F
100
AcDbEntity
  8
0
  6
Continuous
 62
     7
370
    25
100
AcDbCircle
 10
-79.679907081
 20
5.5630890861
 30
0.0
 40
34.00000000000377
100
AcDbArc
 50
267.481486475
 51
271.5206371235
  0
ARC
  5
5A2
330
1F
100
AcDbEntity
  8
0
  6
Continuous
 62
     7
370
    25
100
AcDbCircle
 10
-59.253789823
 20
-53.5614034938
 30
0.0
 40
34.00000000001762
100
AcDbArc
 50
126.5970099353
 51
130.6361605839
  0
ARC
  5
5A3
330
1F
100
AcDbEntity
  8
0
  6
Continuous
 62
     7
370
    25
100
AcDbCircle
 10
-79.4199260137
 20
8.5035818687
 30
0.0
 40
34.00000000001752
100
AcDbArc
 50
265.3638394161
 51
269.4029900647
  0
ARC
  5
5A4
330
1F
100
AcDbEntity
  8
0
  6
Continuous
 62
     7
370
    25
100
AcDbCircle
 10
-61.1924972168
 20
-51.3353078981
 30
0.0
 40
34.00000000001643
100
AcDbArc
 50
124.4793628765
 51
128.518513525
  0
ARC
  5
5A5
330
1F
100
AcDbEntity
  8
0
  6
Continuous
 62
     7
370
    25
100
AcDbCircle
 10
-79.0514668806
 20
11.4324597812
 30
0.0
 40
33.99999999999552
100
AcDbArc
 50
263.2461923573
 51
267.2853430059
  0
ARC
  5
5A6
330
1F
100
AcDbEntity
  8
0
  6
Continuous
 62
     7
370
    25
100
AcDbCircle
 10
-63.0476230199
 20
-49.0390944467
 30
0.0
 40
33.99999999999559
100
AcDbArc
 50
122.3617158177
 51
126.4008664662
  0
ARC
  5
5A7
330
1F
100
AcDbEntity
  8
0
  6
Continuous
 62
     7
370
    25
100
AcDbCircle
 10
-78.5750329525
 20
14.3457223289
 30
0.0
 40
34.00000000001518
100
AcDbArc
 50
261.1285452985
 51
265.167695947
  0
ARC
  5
5A8
330
1F
100
AcDbEntity
  8
0
  6
Continuous
 62
     7
370
    25
100
AcDbCircle
 10
-64.8166333538
 20
-46.6758994911
 30
0.0
 40
34.00000000001263
100
AcDbArc
 50
120.2440687589
 51
124.2832194074
  0
ARC
  5
5A9
330
1F
100
AcDbEntity
  8
0
  6
Continuous
 62
     7
370
    25
100
AcDbCircle
 10
-77.9912749808
 20
17.2393903455
 30
0.0
 40
34.00000000000196
100
AcDbArc
 50
259.0108982397
 51
263.0500488882
  0
ARC
  5
5AA
330
1F
100
AcDbEntity
  8
0
  6
Continuous
 62
     7
370
    25
100
AcDbCircle
 10
-66.497111963
 20
-44.2489508712
 30
0.0
 40
34.00000000001721
100
AcDbArc
 50
118.1264217
 51
122.1655723486
  0
ARC
  5
5AB
330
1F
100
AcDbEntity
  8
0
  6
Continuous
 62
     7
370
    25
100
AcDbCircle
 10
-77.3009903088
 20
20.1095114286
 30
0.0
 40
34.00000000000888
100
AcDbArc
 50
256.8932511808
 51
260.9324018294
  0
ARC
  5
5AC
330
1F
100
AcDbEntity
  8
0
  6
Continuous
 62
     7
370
    25
100
AcDbCircle
 10
-68.0867635159
 20
-41.7615635069
 30
0.0
 40
34.00000000001799
100
AcDbArc
 50
116.0087746412
 51
120.0479252897
  0
ARC
  5
5AD
330
1F
100
AcDbEntity
  8
0
  6
Continuous
 62
     7
370
    25
100
AcDbCircle
 10
-76.5051217823
 20
22.9521653379
 30
0.0
 40
34.00000000001808
100
AcDbArc
 50
254.775604122
 51
258.8147547706
  0
ARC
  5
5AE
330
1F
100
AcDbEntity
  8
0
  6
Continuous
 62
     7
370
    25
100
AcDbCircle
 10
-69.5834167398
 20
-39.2171348703
 30
0.0
 40
34.00000000000432
100
AcDbArc
 50
113.8911275824
 51
117.9302782309
  0
ARC
  5
5AF
330
1F
100
AcDbEntity
  8
0
  6
Continuous
 62
     7
370
    25
100
AcDbCircle
 10
-75.6047564619
 20
25.7634693502
 30
0.0
 40
34.0000000000073
100
AcDbArc
 50
252.6579570632
 51
256.6971077117
  0
ARC
  5
5B0
330
1F
100
AcDbEntity
  8
0
  6
Continuous
 62
     7
370
    25
100
AcDbCircle
 10
-70.9850273863
 20
-36.6191403446
 30
0.0
 40
34.00000000000597
100
AcDbArc
 50
111.7734805236
 51
115.8126311721
  0
ARC
  5
5B1
330
1F
100
AcDbEntity
  8
0
  6
Continuous
 62
     7
370
    25
100
AcDbCircle
 10
-74.6011241384
 20
28.5395835623
 30
0.0
 40
33.99999999999655
100
AcDbArc
 50
250.5403100044
 51
254.5794606529
  0
ARC
  5
5B2
330
1F
100
AcDbEntity
  8
0
  6
Continuous
 62
     7
370
    25
100
AcDbCircle
 10
-72.289681024
 20
-33.9711284781
 30
0.0
 40
34.00000000000853
100
AcDbArc
 50
109.6558334647
 51
113.6949841133
  0
ARC
  5
5B3
330
1F
100
AcDbEntity
  8
0
  6
Continuous
 62
     7
370
    25
100
AcDbCircle
 10
-73.4955956528
 20
31.2767161362
 30
0.0
 40
34.00000000001375
100
AcDbArc
 50
248.4226629455
 51
252.4618135941
  0
MTEXT
  5
5B5
330
1F
100
AcDbEntity
  8
0
  6
Continuous
 62
     7
100
AcDbMText
 10
-85.9993254009
 20
-87.010501965
 30
0.0
 40
4.83362
 41
0.0
 71
     1
 72
     1
  1
SOLIDWORKS Educational Product.
  7
SLDTEXTSTYLE0
 73
     1
 44
1.0
  0
MTEXT
  5
5B6
330
1F
100
AcDbEntity
  8
0
  6
Continuous
 62
     7
100
AcDbMText
 10
-85.9993254009
 20
-94.260931965
 30
0.0
 40
4.83362
 41
0.0
 71
     1
 72
     1
  1
For Instructional Use Only.
  7
SLDTEXTSTYLE0
 73
     1
 44
1.0
  0
ENDSEC
  0
SECTION
  2
OBJECTS
  0
DICTIONARY
  5
C
330
0
100
AcDbDictionary
281
     1
  3
ACAD_GROUP
350
D
  3
ACAD_LAYOUT
350
1A
  3
ACAD_MLINESTYLE
350
17
  3
ACAD_PLOTSETTINGS
350
19
  3
ACAD_PLOTSTYLENAME
350
E
  3
ACAD_SCALELIST
350
47
  3
DWGPROPS
350
5B7
  0
DICTIONARY
  5
D
102
{ACAD_REACTORS
330
C
102
}
330
C
100
AcDbDictionary
281
     1
  0
DICTIONARY
  5
1A
102
{ACAD_REACTORS
330
C
102
}
330
C
100
AcDbDictionary
281
     1
  3
Layout1
350
1E
  3
Layout2
350
26
  3
Model
350
22
  0
DICTIONARY
  5
17
102
{ACAD_REACTORS
330
C
102
}
330
C
100
AcDbDictionary
281
     1
  3
Standard
350
18
  0
DICTIONARY
  5
19
102
{ACAD_REACTORS
330
C
102
}
330
C
100
AcDbDictionary
281
     1
  0
ACDBDICTIONARYWDFLT
  5
E
102
{ACAD_REACTORS
330
C
102
}
330
C
100
AcDbDictionary
281
     1
  3
Normal
350
F
100
AcDbDictionaryWithDefault
340
F
  0
DICTIONARY
  5
47
102
{ACAD_REACTORS
330
C
102
}
330
C
100
AcDbDictionary
281
     1
  3
A0
350
48
  3
A1
350
49
  3
A2
350
4A
  3
A3
350
4B
  3
A4
350
4C
  3
A5
350
4D
  3
A6
350
4E
  3
A7
350
4F
  3
A8
350
50
  3
A9
350
51
  3
B0
350
52
  3
B1
350
53
  3
B2
350
54
  3
B3
350
55
  3
B4
350
56
  3
B5
350
57
  3
B6
350
58
  0
XRECORD
  5
5B7
102
{ACAD_REACTORS
330
C
102
}
330
C
100
AcDbXrecord
280
     1
  1
DWGPROPS COOKIE
  2

  3

  4

  6

  7

  8
svenk
  9

300
=
301
=
302
=
303
=
304
=
305
=
306
=
307
=
308
=
309
=
 40
0.0
 41
2461020.639654584
 42
2461020.639692674
  1

 90
        0
  0
LAYOUT
  5
1E
102
{ACAD_REACTORS
330
1A
102
}
330
1A
100
AcDbPlotSettings
  1

  2
none_device
  4

  6

 40
0.0
 41
0.0
 42
0.0
 43
0.0
 44
0.0
 45
0.0
 46
0.0
 47
0.0
 48
0.0
 49
0.0
140
0.0
141
0.0
142
1.0
143
1.0
 70
   688
 72
     1
 73
     0
 74
     5
  7

 75
    16
147
1.0
148
0.0
149
0.0
100
AcDbLayout
  1
Layout1
 70
     1
 71
     1
 10
0.0
 20
0.0
 11
420.0
 21
297.0
 12
0.0
 22
0.0
 32
0.0
 14
1.0000000000E+20
 24
1.0000000000E+20
 34
1.0000000000E+20
 15
-1.0000000000E+20
 25
-1.0000000000E+20
 35
-1.0000000000E+20
146
0.0
 13
0.0
 23
0.0
 33
0.0
 16
1.0
 26
0.0
 36
0.0
 17
0.0
 27
1.0
 37
0.0
 76
     0
330
1B
  0
LAYOUT
  5
26
102
{ACAD_REACTORS
330
1A
102
}
330
1A
100
AcDbPlotSettings
  1

  2
none_device
  4

  6

 40
0.0
 41
0.0
 42
0.0
 43
0.0
 44
0.0
 45
0.0
 46
0.0
 47
0.0
 48
0.0
 49
0.0
140
0.0
141
0.0
142
1.0
143
1.0
 70
   688
 72
     1
 73
     0
 74
     5
  7

 75
    16
147
1.0
148
0.0
149
0.0
100
AcDbLayout
  1
Layout2
 70
     1
 71
     2
 10
0.0
 20
0.0
 11
0.0
 21
0.0
 12
0.0
 22
0.0
 32
0.0
 14
0.0
 24
0.0
 34
0.0
 15
0.0
 25
0.0
 35
0.0
146
0.0
 13
0.0
 23
0.0
 33
0.0
 16
1.0
 26
0.0
 36
0.0
 17
0.0
 27
1.0
 37
0.0
 76
     0
330
23
  0
LAYOUT
  5
22
102
{ACAD_REACTORS
330
1A
102
}
330
1A
100
AcDbPlotSettings
  1

  2
none_device
  4
ANSI_A_(11.00_x_8.50_Inches)
  6

 40
6.35
 41
19.05
 42
6.35000508
 43
19.05000254
 44
279.4
 45
215.9
 46
133.34999746
 47
88.89999873
 48
0.0
 49
0.0
140
0.0
141
0.0
142
0.0489295758
143
1.0
 70
  1696
 72
     0
 73
     0
 74
     0
  7

 75
     0
147
0.0179189148
148
-1300.4909072572
149
0.0
100
AcDbLayout
  1
Model
 70
     1
 71
     0
 10
0.0
 20
0.0
 11
420.0
 21
297.0
 12
0.0
 22
0.0
 32
0.0
 14
-85.9993254009
 24
-85.9909355733
 34
0.0
 15
85.9993254009
 25
85.9909355733
 35
0.0
146
0.0
 13
0.0
 23
0.0
 33
0.0
 16
1.0
 26
0.0
 36
0.0
 17
0.0
 27
1.0
 37
0.0
 76
     0
330
1F
331
29
  0
MLINESTYLE
  5
18
102
{ACAD_REACTORS
330
17
102
}
330
17
100
AcDbMlineStyle
  2
Standard
 70
     0
  3

 62
   256
 51
90.0
 52
90.0
 71
     2
 49
0.5
 62
   256
  6
BYLAYER
 49
-0.5
 62
   256
  6
BYLAYER
  0
ACDBPLACEHOLDER
  5
F
102
{ACAD_REACTORS
330
E
102
}
330
E
  0
SCALE
  5
48
102
{ACAD_REACTORS
330
47
102
}
330
47
100
AcDbScale
 70
     0
300
1:1
140
1.0
141
1.0
290
     1
  0
SCALE
  5
49
102
{ACAD_REACTORS
330
47
102
}
330
47
100
AcDbScale
 70
     0
300
1:2
140
1.0
141
2.0
290
     0
  0
SCALE
  5
4A
102
{ACAD_REACTORS
330
47
102
}
330
47
100
AcDbScale
 70
     0
300
1:4
140
1.0
141
4.0
290
     0
  0
SCALE
  5
4B
102
{ACAD_REACTORS
330
47
102
}
330
47
100
AcDbScale
 70
     0
300
1:5
140
1.0
141
5.0
290
     0
  0
SCALE
  5
4C
102
{ACAD_REACTORS
330
47
102
}
330
47
100
AcDbScale
 70
     0
300
1:8
140
1.0
141
8.0
290
     0
  0
SCALE
  5
4D
102
{ACAD_REACTORS
330
47
102
}
330
47
100
AcDbScale
 70
     0
300
1:10
140
1.0
141
10.0
290
     0
  0
SCALE
  5
4E
102
{ACAD_REACTORS
330
47
102
}
330
47
100
AcDbScale
 70
     0
300
1:16
140
1.0
141
16.0
290
     0
  0
SCALE
  5
4F
102
{ACAD_REACTORS
330
47
102
}
330
47
100
AcDbScale
 70
     0
300
1:20
140
1.0
141
20.0
290
     0
  0
SCALE
  5
50
102
{ACAD_REACTORS
330
47
102
}
330
47
100
AcDbScale
 70
     0
300
1:30
140
1.0
141
30.0
290
     0
  0
SCALE
  5
51
102
{ACAD_REACTORS
330
47
102
}
330
47
100
AcDbScale
 70
     0
300
1:40
140
1.0
141
40.0
290
     0
  0
SCALE
  5
52
102
{ACAD_REACTORS
330
47
102
}
330
47
100
AcDbScale
 70
     0
300
1:50
140
1.0
141
50.0
290
     0
  0
SCALE
  5
53
102
{ACAD_REACTORS
330
47
102
}
330
47
100
AcDbScale
 70
     0
300
1:100
140
1.0
141
100.0
290
     0
  0
SCALE
  5
54
102
{ACAD_REACTORS
330
47
102
}
330
47
100
AcDbScale
 70
     0
300
2:1
140
2.0
141
1.0
290
     0
  0
SCALE
  5
55
102
{ACAD_REACTORS
330
47
102
}
330
47
100
AcDbScale
 70
     0
300
4:1
140
4.0
141
1.0
290
     0
  0
SCALE
  5
56
102
{ACAD_REACTORS
330
47
102
}
330
47
100
AcDbScale
 70
     0
300
8:1
140
8.0
141
1.0
290
     0
  0
SCALE
  5
57
102
{ACAD_REACTORS
330
47
102
}
330
47
100
AcDbScale
 70
     0
300
10:1
140
10.0
141
1.0
290
     0
  0
SCALE
  5
58
102
{ACAD_REACTORS
330
47
102
}
330
47
100
AcDbScale
 70
     0
300
100:1
140
100.0
141
1.0
290
     0
  0
ENDSEC
  0
EOF
